<svg width="24" height="24" viewBox="0 0 24 24" fill="none" xmlns="http://www.w3.org/2000/svg">
<path d="M12.0001 7.59998C13.0681 7.59998 14.1122 7.91668 15.0002 8.51004C15.8882 9.1034 16.5803 9.94676 16.989 10.9335C17.3978 11.9202 17.5047 13.006 17.2963 14.0535C17.088 15.101 16.5737 16.0631 15.8185 16.8184C15.0633 17.5736 14.1011 18.0879 13.0536 18.2962C12.0061 18.5046 10.9203 18.3976 9.93361 17.9889C8.94689 17.5802 8.10352 16.8881 7.51016 16.0001C6.9168 15.112 6.6001 14.068 6.6001 13H12.0001V7.59998Z" fill="black"/>
<path fill-rule="evenodd" clip-rule="evenodd" d="M12 22C16.9706 22 21 17.9706 21 13C21 10.886 20.2711 8.94217 19.0509 7.40621L20.4756 5.95633L19.0491 4.55457L17.6414 5.98713C16.0981 4.74406 14.1359 4 12 4C7.02944 4 3 8.02944 3 13C3 17.9706 7.02944 22 12 22ZM12 20.2C8.02355 20.2 4.8 16.9764 4.8 13C4.8 9.02355 8.02355 5.8 12 5.8C15.9764 5.8 19.2 9.02355 19.2 13C19.2 16.9764 15.9764 20.2 12 20.2Z" fill="black"/>
<rect x="9" y="1" width="6" height="2" fill="black"/>
</svg>
