<svg width="24" height="24" viewBox="0 0 24 24" fill="none" xmlns="http://www.w3.org/2000/svg">
<path d="M12.0001 7.59998C13.1889 7.59998 14.3445 7.99228 15.2876 8.71604C16.2308 9.4398 16.9087 10.4546 17.2162 11.6029C17.5238 12.7512 17.4438 13.969 16.9887 15.0672C16.5336 16.1655 15.7288 17.0829 14.6991 17.6771L12.0001 13V7.59998Z" fill="black"/>
<path fill-rule="evenodd" clip-rule="evenodd" d="M12 22C16.9706 22 21 17.9706 21 13C21 10.886 20.2711 8.94217 19.0509 7.40621L20.4756 5.95633L19.0491 4.55457L17.6414 5.98713C16.0981 4.74406 14.1359 4 12 4C7.02944 4 3 8.02944 3 13C3 17.9706 7.02944 22 12 22ZM12 20.2C8.02355 20.2 4.8 16.9764 4.8 13C4.8 9.02355 8.02355 5.8 12 5.8C15.9764 5.8 19.2 9.02355 19.2 13C19.2 16.9764 15.9764 20.2 12 20.2Z" fill="black"/>
<rect x="9" y="1" width="6" height="2" fill="black"/>
</svg>
