<svg width="24" height="24" viewBox="0 0 24 24" fill="none" xmlns="http://www.w3.org/2000/svg">
<path d="M12.0001 7.59998C12.9482 7.59998 13.8796 7.84959 14.7006 8.32372C15.5216 8.79785 16.2033 9.47979 16.6772 10.301C17.1511 11.1221 17.4004 12.0536 17.4001 13.0017C17.3998 13.9498 17.1499 14.8811 16.6755 15.7019L12.0001 13V7.59998Z" fill="black"/>
<path fill-rule="evenodd" clip-rule="evenodd" d="M12 22C16.9706 22 21 17.9706 21 13C21 10.886 20.2711 8.94217 19.0509 7.40621L20.4756 5.95633L19.0491 4.55457L17.6414 5.98713C16.0981 4.74406 14.1359 4 12 4C7.02944 4 3 8.02944 3 13C3 17.9706 7.02944 22 12 22ZM12 20.2C8.02355 20.2 4.8 16.9764 4.8 13C4.8 9.02355 8.02355 5.8 12 5.8C15.9764 5.8 19.2 9.02355 19.2 13C19.2 16.9764 15.9764 20.2 12 20.2Z" fill="black"/>
<rect x="9" y="1" width="6" height="2" fill="black"/>
</svg>
