<svg width="24" height="24" viewBox="0 0 24 24" fill="none" xmlns="http://www.w3.org/2000/svg">
<path d="M12.0001 7.59998C12.8285 7.59998 13.6458 7.79056 14.3887 8.15699C15.1317 8.52341 15.7803 9.05585 16.2845 9.71311C16.7888 10.3704 17.135 11.1348 17.2965 11.9473C17.458 12.7598 17.4304 13.5986 17.2158 14.3987C17.0012 15.1988 16.6055 15.9388 16.0591 16.5615C15.5127 17.1842 14.8305 17.6728 14.065 17.9896C13.2996 18.3063 12.4715 18.4428 11.6449 18.3883C10.8184 18.3338 10.0154 18.0899 9.29814 17.6754L12.0001 13V7.59998Z" fill="black"/>
<path fill-rule="evenodd" clip-rule="evenodd" d="M12 22C16.9706 22 21 17.9706 21 13C21 10.886 20.2711 8.94217 19.0509 7.40621L20.4756 5.95633L19.0491 4.55457L17.6414 5.98713C16.0981 4.74406 14.1359 4 12 4C7.02944 4 3 8.02944 3 13C3 17.9706 7.02944 22 12 22ZM12 20.2C8.02355 20.2 4.8 16.9764 4.8 13C4.8 9.02355 8.02355 5.8 12 5.8C15.9764 5.8 19.2 9.02355 19.2 13C19.2 16.9764 15.9764 20.2 12 20.2Z" fill="black"/>
<rect x="9" y="1" width="6" height="2" fill="black"/>
</svg>
