<svg width="24" height="24" viewBox="0 0 24 24" fill="none" xmlns="http://www.w3.org/2000/svg">
<path d="M12.0001 7.59998C12.948 7.59998 13.8793 7.84951 14.7002 8.32351C15.5212 8.7975 16.2028 9.47925 16.6768 10.3002C17.1507 11.1212 17.4002 12.0525 17.4001 13.0004C17.4 13.9483 17.1504 14.8796 16.6764 15.7005C16.2023 16.5214 15.5205 17.203 14.6995 17.6769C13.8785 18.1507 12.9472 18.4001 11.9993 18.4C11.0513 18.3998 10.1201 18.1501 9.29924 17.676C8.47838 17.2019 7.7968 16.52 7.323 15.699L12.0001 13V7.59998Z" fill="black"/>
<path fill-rule="evenodd" clip-rule="evenodd" d="M12 22C16.9706 22 21 17.9706 21 13C21 10.886 20.2711 8.94217 19.0509 7.40621L20.4756 5.95633L19.0491 4.55457L17.6414 5.98713C16.0981 4.74406 14.1359 4 12 4C7.02944 4 3 8.02944 3 13C3 17.9706 7.02944 22 12 22ZM12 20.2C8.02355 20.2 4.8 16.9764 4.8 13C4.8 9.02355 8.02355 5.8 12 5.8C15.9764 5.8 19.2 9.02355 19.2 13C19.2 16.9764 15.9764 20.2 12 20.2Z" fill="black"/>
<rect x="9" y="1" width="6" height="2" fill="black"/>
</svg>
