<svg width="24" height="24" viewBox="0 0 24 24" fill="none" xmlns="http://www.w3.org/2000/svg">
<path d="M15 14C17.67 14 23 15.33 23 18V20H7V18C7 15.33 12.33 14 15 14ZM15 12C13.9391 12 12.9217 11.5786 12.1716 10.8284C11.4214 10.0783 11 9.06087 11 8C11 6.93913 11.4214 5.92172 12.1716 5.17157C12.9217 4.42143 13.9391 4 15 4C16.0609 4 17.0783 4.42143 17.8284 5.17157C18.5786 5.92172 19 6.93913 19 8C19 9.06087 18.5786 10.0783 17.8284 10.8284C17.0783 11.5786 16.0609 12 15 12ZM5 9.59L7.12 7.46L8.54 8.88L6.41 11L8.54 13.12L7.12 14.54L5 12.41L2.88 14.54L1.46 13.12L3.59 11L1.46 8.88L2.88 7.46L5 9.59Z" fill="black"/>
</svg>
