<svg width="112" height="112" viewBox="0 0 112 112" fill="none" xmlns="http://www.w3.org/2000/svg">
<path d="M24.6921 15.1225L41.5926 24.2651C41.9097 24.4367 42.19 24.669 42.4173 24.9488C42.6446 25.2287 42.8146 25.5506 42.9175 25.8961C43.0204 26.2416 43.0543 26.604 43.0172 26.9627C42.98 27.3213 42.8726 27.6691 42.7011 27.9862L33.5584 44.8867C33.3869 45.2038 33.1545 45.484 32.8747 45.7114C32.5949 45.9387 32.273 46.1087 31.9275 46.2116C31.5819 46.3145 31.2195 46.3484 30.8609 46.3112C30.5023 46.2741 30.1545 46.1667 29.8374 45.9952L12.9368 36.8525C12.6197 36.681 12.3395 36.4486 12.1122 36.1688C11.8849 35.8889 11.7149 35.5671 11.6119 35.2215C11.509 34.876 11.4752 34.5136 11.5123 34.155C11.5494 33.7963 11.6568 33.4486 11.8284 33.1314L20.971 16.2309C21.3175 15.5905 21.9042 15.1139 22.602 14.906C23.2998 14.6982 24.0517 14.776 24.6921 15.1225V15.1225Z" fill="#F5F5F5"/>
<path d="M32.0942 33.1714L26.9086 22.5632L20.378 34.6351L32.0942 33.1714Z" fill="#D5001F"/>
<path d="M85.4914 48.706L102.768 57.1154C103.093 57.2732 103.383 57.4933 103.622 57.7632C103.861 58.033 104.044 58.3473 104.162 58.6881C104.28 59.0289 104.329 59.3895 104.307 59.7494C104.286 60.1093 104.193 60.4614 104.035 60.7855L95.626 78.0626C95.4682 78.3868 95.2481 78.6767 94.9783 78.9158C94.7085 79.1549 94.3942 79.3386 94.0534 79.4562C93.7126 79.5739 93.352 79.6232 92.9921 79.6015C92.6322 79.5798 92.2801 79.4874 91.9559 79.3296L74.6789 70.9202C74.3547 70.7624 74.0648 70.5423 73.8256 70.2725C73.5865 70.0026 73.4029 69.6883 73.2853 69.3475C73.1676 69.0067 73.1182 68.6461 73.1399 68.2862C73.1617 67.9263 73.2541 67.5743 73.4118 67.2501L81.8213 49.973C82.14 49.3183 82.7056 48.817 83.3939 48.5794C84.0822 48.3418 84.8367 48.3873 85.4914 48.706V48.706Z" fill="#F5F5F5"/>
<path d="M87.4071 55.7452L83.7047 53.9431L82.5032 56.4117L86.2055 58.2138L87.4071 55.7452Z" fill="#27A83E"/>
<path d="M85.0045 60.6814L81.3021 58.8793L80.1006 61.3478L83.8029 63.1499L85.0045 60.6814Z" fill="#27A83E"/>
<path d="M82.6014 65.6185L78.899 63.8164L77.6975 66.285L81.3999 68.087L82.6014 65.6185Z" fill="#27A83E"/>
<path d="M99.748 61.752L96.0457 59.95L94.8441 62.4185L98.5465 64.2206L99.748 61.752Z" fill="#27A83E"/>
<path d="M97.3453 66.6882L93.6429 64.8861L92.4414 67.3547L96.1438 69.1567L97.3453 66.6882Z" fill="#27A83E"/>
<path d="M94.9422 71.6253L91.2399 69.8232L90.0383 72.2917L93.7407 74.0938L94.9422 71.6253Z" fill="#27A83E"/>
<path d="M93.578 58.7488L89.8756 56.9467L88.6741 59.4153L92.3764 61.2174L93.578 58.7488Z" fill="#27A83E"/>
<path d="M91.1754 63.685L87.473 61.8829L86.2715 64.3515L89.9738 66.1536L91.1754 63.685Z" fill="#27A83E"/>
<path d="M88.7723 68.6221L85.0699 66.82L83.8684 69.2886L87.5708 71.0906L88.7723 68.6221Z" fill="#27A83E"/>
<path d="M66.8134 13.6833L84.7964 20.4531C85.1338 20.5801 85.4429 20.7724 85.706 21.0189C85.9691 21.2653 86.1811 21.5612 86.3299 21.8896C86.4787 22.2181 86.5613 22.5726 86.5731 22.9329C86.5848 23.2932 86.5255 23.6524 86.3985 23.9898L79.6287 41.9727C79.5017 42.3102 79.3095 42.6193 79.063 42.8824C78.8165 43.1455 78.5206 43.3575 78.1922 43.5063C77.8638 43.655 77.5093 43.7377 77.1489 43.7494C76.7886 43.7612 76.4295 43.7019 76.092 43.5749L58.1091 36.8051C57.7717 36.6781 57.4626 36.4858 57.1995 36.2393C56.9363 35.9929 56.7243 35.697 56.5756 35.3686C56.4268 35.0401 56.3442 34.6857 56.3324 34.3253C56.3206 33.965 56.3799 33.6058 56.507 33.2684L63.2768 15.2855C63.5333 14.604 64.05 14.0524 64.7133 13.7519C65.3765 13.4515 66.132 13.4268 66.8134 13.6833V13.6833Z" fill="#F5F5F5"/>
<path d="M74.6765 20.0654C72.6324 19.2959 70.3663 19.3699 68.3768 20.2712C66.3873 21.1724 64.8373 22.8271 64.0678 24.8712L61.8112 30.8655C61.6836 31.2029 61.6239 31.5621 61.6354 31.9226C61.6469 32.2831 61.7294 32.6378 61.8782 32.9664C62.0271 33.2949 62.2393 33.5909 62.5027 33.8372C62.7661 34.0836 63.0756 34.2756 63.4133 34.4022L65.9818 35.3691L68.5608 28.5183L65.1359 27.229L65.7807 25.516C66.3792 23.9262 67.5847 22.6393 69.1321 21.9384C70.6794 21.2374 72.4419 21.1798 74.0316 21.7783C75.6214 22.3768 76.9084 23.5823 77.6093 25.1297C78.3103 26.677 78.3679 28.4394 77.7694 30.0292L77.1245 31.7422L73.6996 30.4528L71.1206 37.3036L73.69 38.2709C74.0273 38.3983 74.3865 38.4579 74.7469 38.4463C75.1073 38.4347 75.4619 38.3521 75.7904 38.2033C76.1188 38.0544 76.4146 37.8422 76.6609 37.5788C76.9072 37.3154 77.0992 37.0061 77.2257 36.6684L79.4823 30.6741C80.2518 28.63 80.1778 26.3639 79.2765 24.3744C78.3753 22.3849 76.7206 20.8349 74.6765 20.0654V20.0654Z" fill="#FFC107"/>
<path d="M49.695 79.0798L68.2552 74.1066C68.6035 74.0132 68.9667 73.9894 69.3242 74.0365C69.6816 74.0836 70.0263 74.2006 70.3385 74.3808C70.6508 74.5611 70.9244 74.8011 71.1439 75.0871C71.3634 75.3732 71.5244 75.6996 71.6177 76.0479L76.5909 94.6081C76.6842 94.9564 76.708 95.3196 76.661 95.6771C76.6139 96.0345 76.4969 96.3792 76.3166 96.6914C76.1364 97.0037 75.8964 97.2773 75.6103 97.4968C75.3243 97.7163 74.9979 97.8773 74.6496 97.9706L56.0893 102.944C55.7411 103.037 55.3779 103.061 55.0204 103.014C54.663 102.967 54.3183 102.85 54.006 102.67C53.6938 102.489 53.4201 102.249 53.2007 101.963C52.9812 101.677 52.8202 101.351 52.7269 101.003L47.7537 82.4422C47.5652 81.7389 47.6639 80.9895 48.0279 80.3589C48.392 79.7284 48.9917 79.2682 49.695 79.0798V79.0798Z" fill="#F5F5F5"/>
<path d="M55.0235 98.9665L58.0752 91.7374L62.4478 94.8554L65.4903 87.6362L73.5878 93.9923L55.0235 98.9665Z" fill="#FF4081"/>
<path fill-rule="evenodd" clip-rule="evenodd" d="M31.6382 61.4233L12.7334 57.9851C12.0172 57.8571 11.2796 58.0176 10.6814 58.4317C10.0833 58.8457 9.67328 59.4796 9.54097 60.195L6.10275 79.0999C5.97472 79.816 6.13526 80.5537 6.54932 81.1518C6.96337 81.7499 7.59729 82.1599 8.31263 82.2922L27.2175 85.7305C27.9336 85.8585 28.6713 85.698 29.2695 85.2839C29.8676 84.8698 30.2776 84.2359 30.4099 83.5206L33.8481 64.6157C33.9762 63.8996 33.8156 63.1619 33.4016 62.5638C32.9875 61.9656 32.3536 61.5556 31.6382 61.4233V61.4233Z" fill="#F5F5F5"/>
<path d="M13.9598 66.5786L27.4634 69.0345L27.9547 66.3333L14.451 63.8774L13.9598 66.5786ZM13.4687 69.2787L12.9775 71.9798L26.4811 74.4357L26.9724 71.7346L13.4687 69.2787ZM12.4864 74.6799L11.9951 77.3811L21.4476 79.1002L21.9387 76.4001L12.4864 74.6799Z" fill="#00BCD4"/>
<path d="M38.0442 51.4706V51.7206H38.2942H46.0736V56.5735H38.2942H38.0442V56.8235V64.6029H33.1913V56.8235V56.5735H32.9413H25.1619V51.7206H32.9413H33.1913V51.4706V43.6912H38.0442V51.4706ZM72.8383 46.1176C72.8383 51.8946 68.1594 56.5735 62.3825 56.5735C56.6055 56.5735 51.9266 51.8946 51.9266 46.1176C51.9266 40.3407 56.6055 35.6617 62.3825 35.6617C68.1594 35.6617 72.8383 40.3407 72.8383 46.1176ZM41.2207 72.8823C41.2207 71.1943 42.0643 69.6972 43.4809 68.3897C44.8992 67.0807 46.8751 65.9788 49.0897 65.0917C53.5193 63.3172 58.8406 62.4264 62.3825 62.4264C65.9243 62.4264 71.2456 63.3172 75.6752 65.0917C77.8898 65.9788 79.8657 67.0807 81.284 68.3897C82.7006 69.6972 83.5442 71.1943 83.5442 72.8823V77.9853H41.2207V72.8823Z" fill="#BFBFBF" stroke="#A39F9F" stroke-width="0.5"/>
</svg>
