<svg width="38" height="10" viewBox="0 0 38 10" fill="none" xmlns="http://www.w3.org/2000/svg">
<path d="M8.50609 0.501404H2.16204C1.33586 0.501404 0.666626 1.17681 0.666626 2.00916V8.407C0.666626 9.23935 1.33586 9.91476 2.16204 9.91476H8.50609C9.33227 9.91476 10.0006 9.23935 10.0006 8.407V2.00916C10.0015 1.17593 9.33227 0.501404 8.50609 0.501404Z" fill="#1677FF"/>
<path d="M8.35177 6.41249C7.97879 6.28641 7.47709 6.09331 6.91895 5.88963C7.25401 5.30152 7.52206 4.63228 7.6984 3.90485H5.85823V3.2365H8.11193V2.86353H5.85823V1.74902H4.93859C4.77723 1.74902 4.77723 1.9095 4.77723 1.9095V2.86265H2.49796V3.23562H4.77723V3.90397H2.89474V4.27694H6.5451C6.41196 4.74073 6.23208 5.17719 6.01959 5.57309C4.83542 5.17895 3.57102 4.85977 2.77747 5.05639C2.26959 5.18248 1.94247 5.40732 1.75025 5.64363C0.86852 6.72551 1.50072 8.36905 3.36293 8.36905C4.46422 8.36905 5.52494 7.75008 6.34671 6.72992C7.5732 7.3242 10.0006 8.34524 10.0006 8.34524V6.89039C10.0015 6.89039 9.6964 6.8657 8.35177 6.41249ZM3.18923 7.74038C1.73702 7.74038 1.30762 6.58708 2.02535 5.95576C2.26518 5.74238 2.70252 5.63833 2.9353 5.61541C3.79763 5.52988 4.59648 5.86141 5.53905 6.3252C4.87687 7.19635 4.03305 7.74038 3.18923 7.74038Z" fill="white"/>
<path d="M20.9349 1.87954C20.9349 2.36625 21.2912 2.69426 21.7876 2.69426C22.284 2.69426 22.6402 2.36625 22.6402 1.87954C22.6402 1.40164 22.284 1.06482 21.7876 1.06482C21.2912 1.06482 20.9349 1.40164 20.9349 1.87954Z" fill="#1677FF"/>
<path d="M20.0356 1.27026H18.556V8.1072H20.0356V1.27026Z" fill="black"/>
<path d="M15.9621 1.50482H13.9764L11.7571 8.1081H13.1246L13.4994 6.81548H15.8501L16.2063 8.1081H17.9574L15.9621 1.50482ZM13.808 5.73801L14.6879 2.69427H14.725L15.5582 5.73801H13.808Z" fill="black"/>
<path d="M22.5274 3.08752H21.0479V8.1081H22.5274V3.08752Z" fill="black"/>
<path d="M37.9912 3.09722L38 3.08752H36.6051L35.7243 6.14095H35.6775L34.6662 3.08752H33.0085L35.003 8.12661L34.1698 9.66258V9.69962H35.4712L37.9912 3.09722Z" fill="black"/>
<path d="M26.2086 2.98438C25.6654 2.98438 25.2439 3.1907 24.766 3.58395V3.08754H23.2865V9.69963H24.766V8.0605C25.0473 8.13544 25.3092 8.17336 25.6275 8.17336C26.9483 8.17336 28.1378 7.19904 28.1378 5.46644C28.1378 3.91195 27.2763 2.98438 26.2086 2.98438ZM25.2713 7.24578C25.1029 7.24578 24.9433 7.22726 24.7652 7.17083V4.4551C25.0746 4.23996 25.3268 4.1368 25.6451 4.1368C26.198 4.1368 26.638 4.57678 26.638 5.51406C26.6388 6.71233 25.9925 7.24578 25.2713 7.24578Z" fill="black"/>
<path d="M32.7175 6.85253V4.75489C32.7175 3.61217 32.043 2.98438 30.8536 2.98438C30.0944 2.98438 29.5706 3.11575 28.6148 3.40584L28.8767 4.55826C29.7479 4.16501 30.1314 3.9966 30.5344 3.9966C31.0211 3.9966 31.2371 4.34312 31.2371 4.87745V4.91448C29.5415 5.23279 29.0169 5.4109 28.6898 5.7389C28.4464 5.98226 28.3433 6.32878 28.3433 6.73173C28.3433 7.69634 29.0927 8.21127 29.7946 8.21127C30.3192 8.21127 30.7407 8.01465 31.312 7.58348L31.4152 8.10811H32.8948L32.7175 6.85253ZM31.238 6.89044C30.8447 7.10558 30.6199 7.19023 30.358 7.19023C30.0018 7.19023 29.777 6.95569 29.777 6.58183C29.777 6.44164 29.8052 6.30056 29.9172 6.18858C30.0953 6.01047 30.4418 5.87909 31.238 5.69217V6.89044Z" fill="black"/>
</svg>
