<?xml version="1.0" encoding="utf-8"?>
<svg xmlns="http://www.w3.org/2000/svg" fill="none" height="32" viewBox="0 0 47 32" width="47">
<rect fill="white" height="31" rx="3.5" stroke="#EBEBEB" width="45.6667" x="0.833374" y="0.5"/>
<path d="M12.8395 11.5015H6.49541C5.66923 11.5015 5 12.1769 5 13.0092V19.4071C5 20.2394 5.66923 20.9148 6.49541 20.9148H12.8395C13.6656 20.9148 14.334 20.2394 14.334 19.4071V13.0092C14.3349 12.176 13.6656 11.5015 12.8395 11.5015Z" fill="#1677FF"/>
<path d="M12.6851 17.4125C12.3122 17.2864 11.8105 17.0933 11.2523 16.8896C11.5874 16.3015 11.8554 15.6323 12.0318 14.9049H10.1916V14.2365H12.4453V13.8635H10.1916V12.749H9.27196C9.1106 12.749 9.1106 12.9095 9.1106 12.9095V13.8626H6.83133V14.2356H9.1106V14.904H7.22811V15.2769H10.8785C10.7453 15.7407 10.5655 16.1772 10.353 16.5731C9.1688 16.179 7.9044 15.8598 7.11084 16.0564C6.60296 16.1825 6.27584 16.4073 6.08362 16.6436C5.20189 17.7255 5.83409 19.3691 7.69631 19.3691C8.79759 19.3691 9.85831 18.7501 10.6801 17.7299C11.9066 18.3242 14.334 19.3452 14.334 19.3452V17.8904C14.3349 17.8904 14.0298 17.8657 12.6851 17.4125ZM7.52261 18.7404C6.0704 18.7404 5.641 17.5871 6.35872 16.9558C6.59855 16.7424 7.03589 16.6383 7.26867 16.6154C8.131 16.5299 8.92985 16.8614 9.87242 17.3252C9.21024 18.1964 8.36642 18.7404 7.52261 18.7404Z" fill="white"/>
<path d="M25.2683 12.8797C25.2683 13.3664 25.6245 13.6944 26.1209 13.6944C26.6174 13.6944 26.9736 13.3664 26.9736 12.8797C26.9736 12.4018 26.6174 12.0649 26.1209 12.0649C25.6245 12.0649 25.2683 12.4018 25.2683 12.8797Z" fill="#1677FF"/>
<path d="M24.3689 12.2703H22.8894V19.1072H24.3689V12.2703Z" fill="black"/>
<path d="M20.2954 12.5049H18.3098L16.0905 19.1082H17.458L17.8328 17.8155H20.1834L20.5397 19.1082H22.2908L20.2954 12.5049ZM18.1414 16.7381L19.0213 13.6943H19.0584L19.8916 16.7381H18.1414Z" fill="black"/>
<path d="M26.8608 14.0876H25.3812V19.1082H26.8608V14.0876Z" fill="black"/>
<path d="M42.3246 14.0973L42.3334 14.0876H40.9385L40.0576 17.1411H40.0109L38.9996 14.0876H37.3419L39.3364 19.1267L38.5032 20.6627V20.6997H39.8046L42.3246 14.0973Z" fill="black"/>
<path d="M30.5419 13.9844C29.9988 13.9844 29.5773 14.1907 29.0994 14.584V14.0875H27.6199V20.6996H29.0994V19.0605C29.3807 19.1354 29.6426 19.1734 29.9609 19.1734C31.2817 19.1734 32.4712 18.199 32.4712 16.4664C32.4712 14.912 31.6097 13.9844 30.5419 13.9844ZM29.6046 18.2458C29.4362 18.2458 29.2766 18.2273 29.0985 18.1708V15.4551C29.408 15.24 29.6602 15.1368 29.9785 15.1368C30.5313 15.1368 30.9713 15.5768 30.9713 16.5141C30.9722 17.7123 30.3259 18.2458 29.6046 18.2458Z" fill="black"/>
<path d="M37.0509 17.8525V15.7549C37.0509 14.6122 36.3764 13.9844 35.1869 13.9844C34.4278 13.9844 33.904 14.1158 32.9482 14.4058L33.2101 15.5583C34.0812 15.165 34.4648 14.9966 34.8677 14.9966C35.3545 14.9966 35.5705 15.3431 35.5705 15.8775V15.9145C33.8749 16.2328 33.3503 16.4109 33.0232 16.7389C32.7798 16.9823 32.6766 17.3288 32.6766 17.7317C32.6766 18.6963 33.4261 19.2113 34.128 19.2113C34.6526 19.2113 35.0741 19.0146 35.6454 18.5835L35.7486 19.1081H37.2281L37.0509 17.8525ZM35.5714 17.8904C35.1781 18.1056 34.9533 18.1902 34.6914 18.1902C34.3352 18.1902 34.1103 17.9557 34.1103 17.5818C34.1103 17.4416 34.1385 17.3006 34.2505 17.1886C34.4286 17.0105 34.7752 16.8791 35.5714 16.6922V17.8904Z" fill="black"/>
</svg>