<svg width="144" height="144" viewBox="0 0 144 144" fill="none" xmlns="http://www.w3.org/2000/svg">
<path d="M30.0015 18H113.999C115.575 18 117.135 18.3104 118.591 18.9136C120.047 19.5167 121.37 20.4007 122.485 21.5152C123.599 22.6296 124.483 23.9526 125.086 25.4087C125.69 26.8648 126 28.4254 126 30.0015V113.999C126 115.575 125.69 117.135 125.086 118.591C124.483 120.047 123.599 121.37 122.485 122.485C121.37 123.599 120.047 124.483 118.591 125.086C117.135 125.69 115.575 126 113.999 126H30.0015C28.4254 126 26.8648 125.69 25.4087 125.086C23.9526 124.483 22.6296 123.599 21.5152 122.485C20.4007 121.37 19.5167 120.047 18.9136 118.591C18.3104 117.135 18 115.575 18 113.999V30.0015C18 26.8185 19.2644 23.7659 21.5152 21.5152C23.7659 19.2644 26.8185 18 30.0015 18V18Z" fill="#F5F5F5"/>
<path d="M72 31.9995C62.4522 31.9995 53.2955 35.7924 46.5442 42.5437C39.7929 49.295 36 58.4517 36 67.9995V95.9985C35.9976 97.5752 36.3065 99.1369 36.9087 100.594C37.511 102.051 38.395 103.375 39.5099 104.49C40.6248 105.605 41.9488 106.489 43.4059 107.091C44.8631 107.694 46.4248 108.002 48.0015 108H59.9985V76.0005H44.001V67.9995C44.001 60.5737 46.9509 53.4521 52.2017 48.2012C57.4526 42.9504 64.5742 40.0005 72 40.0005C79.4258 40.0005 86.5475 42.9504 91.7983 48.2012C97.0491 53.4521 99.999 60.5737 99.999 67.9995V76.0005H84.0015V108H96.003C97.5794 108.002 99.1406 107.693 100.597 107.09C102.054 106.487 103.377 105.603 104.492 104.489C105.606 103.374 106.49 102.05 107.092 100.593C107.694 99.1362 108.002 97.5749 108 95.9985V67.9995C108 58.4517 104.207 49.295 97.4559 42.5437C90.7046 35.7924 81.5478 31.9995 72 31.9995Z" fill="black"/>
</svg>
