<svg width="23" height="22" viewBox="0 0 23 22" fill="none" xmlns="http://www.w3.org/2000/svg">
<path fill-rule="evenodd" clip-rule="evenodd" d="M22.1693 11.0862C22.1693 17.0248 17.3554 21.8389 11.4171 21.8389C5.47874 21.8389 0.664795 17.0248 0.664795 11.0862C0.664795 5.14756 5.47874 0.333374 11.4171 0.333374C17.3554 0.333374 22.1693 5.14756 22.1693 11.0862ZM14.0002 7.09112C15.4959 7.60476 16.59 8.37387 16.3754 9.8052C16.2195 10.8533 15.6363 11.3602 14.8615 11.5377C15.9245 12.089 16.2868 13.1353 15.9502 14.4004C15.311 16.221 13.7917 16.3743 11.7709 15.9937L11.2802 17.9508L10.0957 17.6563L10.5796 15.7255C10.2725 15.6495 9.95867 15.5682 9.63537 15.4814L9.14941 17.4217L7.96623 17.1272L8.45624 15.1661L6.07031 14.5664L6.65886 13.2151C6.65886 13.2151 7.53224 13.4457 7.52009 13.4289C7.85554 13.5116 8.0047 13.2938 8.06342 13.1492L9.39306 7.83737C9.40791 7.58661 9.32084 7.27063 8.84096 7.15096C8.85918 7.13818 7.9804 6.93784 7.9804 6.93784L8.2956 5.67727L10.6849 6.26688L11.1709 4.32796L12.3547 4.62243L11.8789 6.52303C12.1975 6.59496 12.5174 6.66824 12.8285 6.74556L13.301 4.85706L14.4855 5.15153L14.0002 7.09112ZM11.1659 10.3255C11.9728 10.5394 13.7286 11.0049 14.0347 9.78438C14.3469 8.53558 12.6411 8.15842 11.8058 7.97376C11.7112 7.95283 11.6277 7.93437 11.5596 7.9174L10.9697 10.2745C11.0259 10.2884 11.0918 10.3058 11.1656 10.3254L11.1659 10.3255L11.1659 10.3255ZM10.2517 14.1205C11.2182 14.3751 13.3318 14.9319 13.6682 13.5869C14.0124 12.2117 11.9631 11.7537 10.9631 11.5302C10.8514 11.5052 10.7528 11.4832 10.6721 11.4631L10.0214 14.0609C10.0875 14.0773 10.165 14.0977 10.2516 14.1205L10.2517 14.1205Z" fill="#F7931A"/>
</svg>
