<svg height="24" viewBox="0 0 24 24" width="24" xmlns="http://www.w3.org/2000/svg" xmlns:xlink="http://www.w3.org/1999/xlink"><clipPath id="a"><path d="m0 0h24v24h-24z"/></clipPath><g clip-path="url(#a)"><path d="m179.083 35.025a2.21 2.21 0 0 0 1.8-2.1c.249-1.7-1.1-2.6-2.951-3.2l.6-2.3-1.4-.4-.551 2.25c-.2-.05-.387-.087-.574-.125s-.375-.075-.576-.125l.6-2.25-1.35-.35-.6 2.3c-.178-.03-.373-.077-.556-.121-.125-.03-.242-.059-.344-.079l-1.95-.5-.4 1.5 1 .25a.736.736 0 0 1 .651.8l-1.551 6.35a.51.51 0 0 1 -.65.3l-1-.25-.7 1.6 1.8.5c.158.045.315.08.468.114a5.481 5.481 0 0 1 .531.136l-.6 2.35 1.4.4.6-2.3a7.565 7.565 0 0 1 .951.2l.2.051-.6 2.3 1.4.45.65-2.35c2.4.4 4.25.25 5-1.95a2.441 2.441 0 0 0 -1.298-3.451z" fill="#fff" fill-rule="evenodd" transform="translate(-163.208 -22.788)"/><g fill="#fc932b"><path d="m172.466 32.258-.75 3.1c.949.2 3.9 1.2 4.35-.6s-2.6-2.25-3.6-2.5z" transform="translate(-161.642 -19.871)"/><path d="m173.182 29.425-.7 2.85c.8.2 3.249 1 3.65-.6.35-1.65-2.149-2-2.95-2.25z" transform="translate(-161.258 -21.288)"/><path d="m179.29 25a11 11 0 1 0 8.051 13.35 10.955 10.955 0 0 0 -8.051-13.35zm3.051 8.8a2.21 2.21 0 0 1 -1.8 2.1 2.441 2.441 0 0 1 1.3 3.45c-.75 2.2-2.6 2.35-5 1.95l-.65 2.35-1.4-.45.6-2.3a9.453 9.453 0 0 0 -1.149-.25l-.6 2.3-1.4-.4.6-2.35c-.3-.1-.65-.15-1-.25l-1.8-.5.7-1.6 1 .25a.51.51 0 0 0 .65-.3l1.551-6.35a.736.736 0 0 0 -.651-.8l-1-.25.4-1.5 1.95.5c.25.05.6.15.9.2l.6-2.3 1.35.35-.6 2.25c.4.1.75.15 1.15.25l.551-2.25 1.4.4-.6 2.3c1.847.6 3.197 1.5 2.948 3.2z" transform="translate(-164.667 -23.667)"/></g></g></svg>