<svg width="31" height="20" viewBox="0 0 23 22" fill="none" xmlns="http://www.w3.org/2000/svg">
<path fill-rule="evenodd" clip-rule="evenodd" d="M22.1693 11.0861C22.1693 17.0247 17.3554 21.8389 11.4171 21.8389C5.47874 21.8389 0.664795 17.0247 0.664795 11.0861C0.664795 5.1475 5.47874 0.333313 11.4171 0.333313C17.3554 0.333313 22.1693 5.1475 22.1693 11.0861ZM14.0002 7.09106C15.4959 7.6047 16.59 8.37381 16.3754 9.80514C16.2195 10.8533 15.6363 11.3602 14.8615 11.5377C15.9245 12.0889 16.2868 13.1352 15.9502 14.4003C15.311 16.2209 13.7917 16.3742 11.7709 15.9937L11.2802 17.9507L10.0957 17.6563L10.5796 15.7254C10.2725 15.6495 9.95867 15.5681 9.63537 15.4814L9.14941 17.4216L7.96623 17.1272L8.45624 15.1661L6.07031 14.5664L6.65886 13.2151C6.65886 13.2151 7.53224 13.4457 7.52009 13.4288C7.85554 13.5115 8.0047 13.2937 8.06342 13.1492L9.39306 7.83731C9.40791 7.58654 9.32084 7.27056 8.84096 7.15089C8.85918 7.13812 7.9804 6.93777 7.9804 6.93777L8.2956 5.67721L10.6849 6.26682L11.1709 4.3279L12.3547 4.62237L11.8789 6.52296C12.1975 6.5949 12.5174 6.66818 12.8285 6.7455L13.301 4.857L14.4855 5.15147L14.0002 7.09106ZM11.1659 10.3254C11.9728 10.5394 13.7286 11.0049 14.0347 9.78432C14.3469 8.53552 12.6411 8.15836 11.8058 7.9737C11.7112 7.95277 11.6277 7.93431 11.5596 7.91734L10.9697 10.2744C11.0259 10.2883 11.0918 10.3058 11.1656 10.3254L11.1659 10.3254L11.1659 10.3254ZM10.2517 14.1205C11.2182 14.375 13.3318 14.9318 13.6682 13.5869C14.0124 12.2117 11.9631 11.7536 10.9631 11.5301C10.8514 11.5052 10.7528 11.4831 10.6721 11.4631L10.0214 14.0608C10.0875 14.0772 10.165 14.0976 10.2516 14.1204L10.2517 14.1205Z" fill="#F7931A"/>
</svg>
