<svg width="136" height="136" viewBox="0 0 136 136" fill="none" xmlns="http://www.w3.org/2000/svg">
<g filter="url(#filter0_d)">
<path d="M10 68C10 35.9675 35.9675 10 68 10V10C100.033 10 126 35.9675 126 68V68C126 100.033 100.033 126 68 126V126C35.9675 126 10 100.033 10 68V68Z" fill="white"/>
<path d="M68.0001 19.6667C58.4407 19.6667 49.0959 22.5014 41.1475 27.8123C33.1992 33.1232 27.0042 40.6719 23.3459 49.5036C19.6877 58.3354 18.7305 68.0536 20.5955 77.4294C22.4604 86.8051 27.0637 95.4173 33.8233 102.177C40.5828 108.936 49.195 113.54 58.5707 115.405C67.9465 117.27 77.6647 116.312 86.4965 112.654C95.3282 108.996 102.877 102.801 108.188 94.8526C113.499 86.9042 116.333 77.5594 116.333 68C116.333 61.6528 115.083 55.3677 112.654 49.5036C110.225 43.6396 106.665 38.3113 102.177 33.8232C97.6888 29.335 92.3605 25.7748 86.4965 23.3458C80.6324 20.9168 74.3473 19.6667 68.0001 19.6667V19.6667ZM58.3334 92.1667L34.1668 68L40.9818 61.185L58.3334 78.4883L95.0184 41.8033L101.833 48.6667L58.3334 92.1667Z" fill="#00A83E"/>
</g>
<defs>
<filter id="filter0_d" x="0" y="0" width="136" height="136" filterUnits="userSpaceOnUse" color-interpolation-filters="sRGB">
<feFlood flood-opacity="0" result="BackgroundImageFix"/>
<feColorMatrix in="SourceAlpha" type="matrix" values="0 0 0 0 0 0 0 0 0 0 0 0 0 0 0 0 0 0 127 0"/>
<feOffset/>
<feGaussianBlur stdDeviation="5"/>
<feColorMatrix type="matrix" values="0 0 0 0 0 0 0 0 0 0 0 0 0 0 0 0 0 0 0.18 0"/>
<feBlend mode="normal" in2="BackgroundImageFix" result="effect1_dropShadow"/>
<feBlend mode="normal" in="SourceGraphic" in2="effect1_dropShadow" result="shape"/>
</filter>
</defs>
</svg>
