<svg width="132" height="163" viewBox="0 0 132 163" fill="none" xmlns="http://www.w3.org/2000/svg">
<path fill-rule="evenodd" clip-rule="evenodd" d="M58.5 112.5C95 114.5 112 88.7564 112 57C112 25.2436 95 1 58.5 1C38 1 28.2124 7.56411 18 16.5C6.43296 26.6212 1 40.1342 1 57C1 86 22 110.5 58.5 112.5Z" stroke="#191919"/>
<path fill-rule="evenodd" clip-rule="evenodd" d="M58.3919 108.896C92.9189 110.796 109 86.346 109 56.1856C109 26.0252 92.9189 3 58.3919 3C39 3 29.7414 9.23421 20.0811 17.721C9.13928 27.3336 4 40.1674 4 56.1856C4 83.7281 23.8649 106.997 58.3919 108.896Z" fill="url(#paint0_radial_1986:31117)" stroke="#191919" stroke-width="0.5"/>
<path d="M84.4388 107.45C92.2056 119.219 98.6161 123.767 103.369 133.613C106.152 139.378 113.183 155.291 116.991 158.964C118.095 160.029 127.126 166.482 127.671 156.447C128.104 148.456 116.741 135.323 112.743 132.362C101.606 124.116 102.003 115.931 91.5594 103.589" stroke="#191919" stroke-width="0.5"/>
<mask id="mask0_1986:31117" style="mask-type:alpha" maskUnits="userSpaceOnUse" x="5" y="4" width="104" height="105">
<path d="M58.8739 108.897C93.0721 110.779 109 86.5597 109 56.6838C109 26.808 93.0721 4 58.8739 4C39.6667 4 30.4963 10.1754 20.9279 18.5821C10.0903 28.104 5 40.8168 5 56.6838C5 83.9665 24.6757 107.016 58.8739 108.897Z" fill="white"/>
</mask>
<g mask="url(#mask0_1986:31117)">
<path d="M65 33H-81V89H65V33Z" fill="white" stroke="#007A7C"/>
<path d="M40.5 63H39.71L39.43 62.73C40.41 61.59 41 60.11 41 58.5C41 54.91 38.09 52 34.5 52C30.91 52 28 54.91 28 58.5C28 62.09 30.91 65 34.5 65C36.11 65 37.59 64.41 38.73 63.43L39 63.71V64.5L44 69.49L45.49 68L40.5 63ZM34.5 63C32.01 63 30 60.99 30 58.5C30 56.01 32.01 54 34.5 54C36.99 54 39 56.01 39 58.5C39 60.99 36.99 63 34.5 63Z" fill="#007A7C"/>
<path d="M-295 89H65" stroke="#007A7C"/>
</g>
<defs>
<radialGradient id="paint0_radial_1986:31117" cx="0" cy="0" r="1" gradientUnits="userSpaceOnUse" gradientTransform="translate(109 30) rotate(101.848) scale(73.0565 72.3673)">
<stop stop-color="#F8F8F8" stop-opacity="0"/>
<stop offset="1" stop-color="#F8F8F8"/>
</radialGradient>
</defs>
</svg>
