<svg width="25" height="24" viewBox="0 0 25 24" fill="none" xmlns="http://www.w3.org/2000/svg">
<g clip-path="url(#clip0_303_3978)">
<path d="M12.0781 4.5C7.07812 4.5 2.80813 7.61 1.07812 12C2.80813 16.39 7.07812 19.5 12.0781 19.5C17.0781 19.5 21.3481 16.39 23.0781 12C21.3481 7.61 17.0781 4.5 12.0781 4.5ZM12.0781 17C9.31812 17 7.07812 14.76 7.07812 12C7.07812 9.24 9.31812 7 12.0781 7C14.8381 7 17.0781 9.24 17.0781 12C17.0781 14.76 14.8381 17 12.0781 17ZM12.0781 9C10.4181 9 9.07812 10.34 9.07812 12C9.07812 13.66 10.4181 15 12.0781 15C13.7381 15 15.0781 13.66 15.0781 12C15.0781 10.34 13.7381 9 12.0781 9Z" fill="black"/>
</g>
<defs>
<clipPath id="clip0_303_3978">
<rect width="24" height="24" fill="white" transform="translate(0.078125)"/>
</clipPath>
</defs>
</svg>
