<svg height="16" viewBox="0 0 84.527 16" width="84.527" xmlns="http://www.w3.org/2000/svg"><g fill="#040505"><path d="m459.729 940.554a.352.352 0 0 1 -.351-.35v-15.304a.352.352 0 0 1 .351-.35h2.6a.351.351 0 0 1 .35.35v12.8a.351.351 0 0 0 .35.35h4.623a.351.351 0 0 1 .35.35v1.8a.351.351 0 0 1 -.35.35z" transform="translate(-459.378 -924.554)"/><path d="m488.73 940.712a.477.477 0 0 1 -.437-.339l-.687-2.678a.477.477 0 0 0 -.437-.339h-3.878a.481.481 0 0 0 -.439.339l-.708 2.679a.479.479 0 0 1 -.439.338h-2.254a.254.254 0 0 1 -.258-.337l4.147-15.167a.485.485 0 0 1 .442-.338h3.066a.483.483 0 0 1 .441.338l4.076 15.165a.255.255 0 0 1 -.259.338zm-3.346-12.972a.763.763 0 0 0 -.13-.341.773.773 0 0 0 -.132.34l-1.731 7.174a.264.264 0 0 0 .268.341h3.14a.266.266 0 0 0 .27-.341z" transform="translate(-469.28 -924.713)"/><path d="m514.943 940.712a.611.611 0 0 1 -.5-.315l-5.092-10.557a1.055 1.055 0 0 0 -.193-.315.788.788 0 0 0 -.039.35l.051 10.487a.349.349 0 0 1 -.349.35h-2.2a.351.351 0 0 1 -.35-.35v-15.141a.351.351 0 0 1 .35-.35h2.979a.605.605 0 0 1 .5.316l5.043 10.622a1.054 1.054 0 0 0 .19.317.792.792 0 0 0 .039-.35l-.025-10.555a.35.35 0 0 1 .349-.35h2.092a.351.351 0 0 1 .35.35v15.141a.351.351 0 0 1 -.35.35z" transform="translate(-482.823 -924.713)"/><path d="m540.531 927.153a.351.351 0 0 0 -.35.35v12.859a.351.351 0 0 1 -.35.35h-2.469a.351.351 0 0 1 -.35-.35v-12.862a.351.351 0 0 0 -.35-.35h-2.871a.351.351 0 0 1 -.35-.35v-1.582a.351.351 0 0 1 .35-.35h9.61a.351.351 0 0 1 .35.35v1.582a.351.351 0 0 1 -.35.35z" transform="translate(-496.41 -924.713)"/><path d="m558.331 940.712a.351.351 0 0 1 -.351-.35v-15.141a.351.351 0 0 1 .351-.35h7.811a.351.351 0 0 1 .35.35v1.671a.351.351 0 0 1 -.35.35h-4.723a.351.351 0 0 0 -.35.35v3.508a.351.351 0 0 0 .35.35h4.32a.351.351 0 0 1 .35.35v1.493a.351.351 0 0 1 -.35.35h-4.32a.351.351 0 0 0 -.35.35v3.976a.351.351 0 0 0 .35.35h4.992a.351.351 0 0 1 .35.35v1.694a.351.351 0 0 1 -.35.35z" transform="translate(-508.679 -924.713)"/><path d="m587.3 940.712a.581.581 0 0 1 -.49-.32l-2.674-6.116a.583.583 0 0 0 -.49-.321h-1.1a.351.351 0 0 0 -.35.35v6.057a.351.351 0 0 1 -.35.35h-2.415a.351.351 0 0 1 -.35-.35v-15.141a.351.351 0 0 1 .35-.35h4.723c.193 0 .508.009.7.02a12.43 12.43 0 0 1 1.826.237 4.587 4.587 0 0 1 1.7.818 3.867 3.867 0 0 1 1.115 1.409 4.718 4.718 0 0 1 .4 2.036 4.343 4.343 0 0 1 -.281 1.622 4.138 4.138 0 0 1 -.712 1.2 3.764 3.764 0 0 1 -.953.794 3.906 3.906 0 0 1 -.7.31.3.3 0 0 0 -.186.421l3.114 6.66a.206.206 0 0 1 -.2.317zm-.565-11.187a2.578 2.578 0 0 0 -.241-1.185 1.97 1.97 0 0 0 -.631-.739 2.522 2.522 0 0 0 -.873-.38 4.132 4.132 0 0 0 -.616-.091c-.193-.011-.507-.021-.7-.021h-1.125a.351.351 0 0 0 -.35.351v4.177a.351.351 0 0 0 .35.35h1.125a5.909 5.909 0 0 0 .7-.049 4.139 4.139 0 0 0 1.6-.566 2.227 2.227 0 0 0 .762-1.847z" transform="translate(-519.231 -924.713)"/><path d="m613.371 940.712a.611.611 0 0 1 -.5-.315l-5.093-10.557a1.034 1.034 0 0 0 -.193-.315.8.8 0 0 0 -.038.35l.05 10.487a.349.349 0 0 1 -.348.35h-2.2a.351.351 0 0 1 -.351-.35v-15.141a.351.351 0 0 1 .351-.35h2.978a.605.605 0 0 1 .5.316l5.043 10.622a1.047 1.047 0 0 0 .19.317.8.8 0 0 0 .039-.35l-.026-10.555a.35.35 0 0 1 .349-.35h2.093a.351.351 0 0 1 .35.35v15.141a.351.351 0 0 1 -.35.35z" transform="translate(-532.037 -924.713)"/></g></svg>