<svg width="24" height="9" viewBox="0 0 24 9" fill="none" xmlns="http://www.w3.org/2000/svg">
<path d="M12 2.00001C10.4384 1.99766 8.88615 2.24062 7.39998 2.72001V5.82001C7.39943 6.00723 7.34675 6.1906 7.24783 6.34956C7.14892 6.50852 7.0077 6.6368 6.83998 6.72001C5.87053 7.20818 4.97499 7.83101 4.17998 8.57001C4.0875 8.66049 3.97805 8.73181 3.85792 8.77986C3.73779 8.82791 3.60935 8.85175 3.47998 8.85001C3.34837 8.85077 3.21791 8.82554 3.09607 8.77578C2.97424 8.72601 2.86342 8.65269 2.76998 8.56001L0.289981 6.08001C0.196492 5.98925 0.122541 5.88034 0.0726716 5.75996C0.0228019 5.63959 -0.0019346 5.51029 -1.87074e-05 5.38001C-0.000779601 5.2484 0.0244455 5.11794 0.0742101 4.9961C0.123975 4.87426 0.1973 4.76345 0.289981 4.67001C3.4514 1.67141 7.64268 -0.000137329 12 -0.000137329C16.3573 -0.000137329 20.5486 1.67141 23.71 4.67001C23.8959 4.85957 24 5.11449 24 5.38001C24 5.64552 23.8959 5.90044 23.71 6.09001L21.23 8.57001C21.1365 8.66269 21.0257 8.73601 20.9039 8.78578C20.782 8.83554 20.6516 8.86077 20.52 8.86001C20.2596 8.85889 20.0093 8.75879 19.82 8.58001C19.024 7.83764 18.1246 7.2145 17.15 6.73001C16.9817 6.64754 16.8399 6.51944 16.7409 6.36031C16.6419 6.20118 16.5896 6.01743 16.59 5.83001V2.73001C15.1091 2.24173 13.5593 1.99524 12 2.00001Z" fill="white"/>
</svg>
