<svg width="24" height="24" viewBox="0 0 24 24" fill="none" xmlns="http://www.w3.org/2000/svg">
<g clip-path="url(#clip0_1668:6447)">
<path d="M12 8.9999C10.4384 8.99755 8.88615 9.24051 7.39998 9.7199V12.8199C7.39943 13.0071 7.34675 13.1905 7.24783 13.3495C7.14892 13.5084 7.0077 13.6367 6.83998 13.7199C5.87053 14.2081 4.97499 14.8309 4.17998 15.5699C4.0875 15.6604 3.97805 15.7317 3.85792 15.7798C3.73779 15.8278 3.60935 15.8516 3.47998 15.8499C3.34837 15.8507 3.21791 15.8254 3.09607 15.7757C2.97424 15.7259 2.86342 15.6526 2.76998 15.5599L0.289981 13.0799C0.196492 12.9891 0.122541 12.8802 0.0726716 12.7599C0.0228019 12.6395 -0.0019346 12.5102 -1.87074e-05 12.3799C-0.000779601 12.2483 0.0244455 12.1178 0.0742101 11.996C0.123975 11.8742 0.1973 11.7633 0.289981 11.6699C3.4514 8.67131 7.64268 6.99976 12 6.99976C16.3573 6.99976 20.5486 8.67131 23.71 11.6699C23.8959 11.8595 24 12.1144 24 12.3799C24 12.6454 23.8959 12.9003 23.71 13.0899L21.23 15.5699C21.1365 15.6626 21.0257 15.7359 20.9039 15.7857C20.782 15.8354 20.6516 15.8607 20.52 15.8599C20.2596 15.8588 20.0093 15.7587 19.82 15.5799C19.024 14.8375 18.1246 14.2144 17.15 13.7299C16.9817 13.6474 16.8399 13.5193 16.7409 13.3602C16.6419 13.2011 16.5896 13.0173 16.59 12.8299V9.7299C15.1091 9.24162 13.5593 8.99513 12 8.9999Z" fill="white"/>
</g>
<defs>
<clipPath id="clip0_1668:6447">
<rect width="24" height="24" fill="white"/>
</clipPath>
</defs>
</svg>
