<svg width="227" height="227" viewBox="0 0 227 227" fill="none" xmlns="http://www.w3.org/2000/svg">
<path d="M47.294 28.375H179.706C182.19 28.375 184.651 28.8644 186.946 29.8151C189.241 30.7659 191.327 32.1595 193.084 33.9163C194.841 35.6731 196.234 37.7587 197.185 40.054C198.136 42.3494 198.625 44.8095 198.625 47.294V179.706C198.625 182.19 198.136 184.651 197.185 186.946C196.234 189.241 194.841 191.327 193.084 193.084C191.327 194.841 189.241 196.234 186.946 197.185C184.651 198.136 182.19 198.625 179.706 198.625H47.294C44.8095 198.625 42.3494 198.136 40.054 197.185C37.7587 196.234 35.6731 194.841 33.9163 193.084C32.1595 191.327 30.7659 189.241 29.8151 186.946C28.8644 184.651 28.375 182.19 28.375 179.706V47.294C28.375 42.2764 30.3682 37.4643 33.9163 33.9163C37.4643 30.3682 42.2764 28.375 47.294 28.375V28.375Z" fill="#F5F5F5"/>
<path d="M47.2941 170.25L80.4999 127.574L104.044 156.126L137.172 113.5L179.734 170.25H47.2941Z" fill="#BFBFBF"/>
</svg>
