<svg height="16" viewBox="0 0 16 16" width="16" xmlns="http://www.w3.org/2000/svg"><path d="m0 0h16v16h-16z" fill="none"/><path d="m6 10.159v-4h1.338v4zm.667-9.992a6.424 6.424 0 0 1 4.715 1.951 6.406 6.406 0 0 1 1.951 4.7 6.406 6.406 0 0 1 -1.951 4.7 6.424 6.424 0 0 1 -4.715 1.951 6.424 6.424 0 0 1 -4.715-1.951 6.406 6.406 0 0 1 -1.952-4.7 6.406 6.406 0 0 1 1.951-4.7 6.424 6.424 0 0 1 4.716-1.951zm0 11.991a5.127 5.127 0 0 0 3.762-1.558 5.149 5.149 0 0 0 1.561-3.778 5.144 5.144 0 0 0 -1.561-3.782 5.129 5.129 0 0 0 -3.762-1.562 5.129 5.129 0 0 0 -3.767 1.562 5.144 5.144 0 0 0 -1.557 3.778 5.149 5.149 0 0 0 1.557 3.782 5.127 5.127 0 0 0 3.767 1.558zm-.667-7.339v-1.343h1.338v1.343z" fill="#707070" transform="translate(1.333 1.166)"/></svg>