<svg width="24" height="24" viewBox="0 0 24 24" fill="none" xmlns="http://www.w3.org/2000/svg">
<g clip-path="url(#clip0_6005_303)">
<!--<path d="M12.0058 0.181808C7.07106 0.181808 5.62783 0.186899 5.34729 0.210172C4.3346 0.294354 3.70443 0.453808 3.01791 0.795627C2.48884 1.05835 2.07158 1.3629 1.65977 1.78981C0.909792 2.56835 0.455261 3.52617 0.29072 4.66472C0.210722 5.21745 0.18745 5.33017 0.182723 8.15345C0.180905 9.09454 0.182723 10.3331 0.182723 11.9944C0.182723 16.9253 0.188178 18.3671 0.211813 18.6471C0.293629 19.6325 0.44817 20.2525 0.775433 20.9307C1.40087 22.2289 2.59538 23.2034 4.00261 23.5671C4.48987 23.6925 5.02803 23.7616 5.71892 23.7944C6.01164 23.8071 8.99518 23.8162 11.9805 23.8162C14.9659 23.8162 17.9513 23.8125 18.2367 23.798C19.0367 23.7604 19.5012 23.698 20.0148 23.5653C21.4312 23.1998 22.6039 22.2398 23.242 20.9234C23.5629 20.2616 23.7256 19.618 23.7993 18.684C23.8153 18.4804 23.822 15.2336 23.822 11.9913C23.822 8.74835 23.8147 5.50763 23.7987 5.30399C23.7242 4.3549 23.5615 3.71672 23.2302 3.04217C22.9584 2.48999 22.6566 2.07763 22.2184 1.65599C21.4364 0.909081 20.4801 0.454536 19.3405 0.290172C18.7883 0.210354 18.6783 0.186718 15.853 0.181808H12.0058Z" fill="black"/>-->
<!--<path d="M12.0058 0.181808C7.07106 0.181808 5.62783 0.186899 5.34729 0.210172C4.3346 0.294354 3.70443 0.453808 3.01791 0.795627C2.48884 1.05835 2.07158 1.3629 1.65977 1.78981C0.909792 2.56835 0.455261 3.52617 0.29072 4.66472C0.210722 5.21745 0.18745 5.33017 0.182723 8.15345C0.180905 9.09454 0.182723 10.3331 0.182723 11.9944C0.182723 16.9253 0.188178 18.3671 0.211813 18.6471C0.293629 19.6325 0.44817 20.2525 0.775433 20.9307C1.40087 22.2289 2.59538 23.2034 4.00261 23.5671C4.48987 23.6925 5.02803 23.7616 5.71892 23.7944C6.01164 23.8071 8.99518 23.8162 11.9805 23.8162C14.9659 23.8162 17.9513 23.8125 18.2367 23.798C19.0367 23.7604 19.5012 23.698 20.0148 23.5653C21.4312 23.1998 22.6039 22.2398 23.242 20.9234C23.5629 20.2616 23.7256 19.618 23.7993 18.684C23.8153 18.4804 23.822 15.2336 23.822 11.9913C23.822 8.74835 23.8147 5.50763 23.7987 5.30399C23.7242 4.3549 23.5615 3.71672 23.2302 3.04217C22.9584 2.48999 22.6566 2.07763 22.2184 1.65599C21.4364 0.909081 20.4801 0.454536 19.3405 0.290172C18.7883 0.210354 18.6783 0.186718 15.853 0.181808H12.0058Z" fill="black"/>-->
<path d="M12.0004 3.27263C9.63025 3.27263 9.33281 3.28299 8.40193 3.32536C7.47287 3.3679 6.8387 3.51499 6.28381 3.73081C5.70983 3.95372 5.22293 4.2519 4.73786 4.73717C4.25242 5.22227 3.95424 5.70917 3.73061 6.28299C3.51426 6.83808 3.36699 7.47245 3.32517 8.40117C3.28354 9.33208 3.27263 9.62972 3.27263 11.9999C3.27263 14.3701 3.28317 14.6666 3.32535 15.5975C3.36808 16.5266 3.51517 17.1608 3.7308 17.7157C3.95388 18.2897 4.25205 18.7766 4.73731 19.2617C5.22221 19.7472 5.7091 20.0461 6.28272 20.269C6.83798 20.4848 7.47232 20.6319 8.4012 20.6744C9.33208 20.7168 9.62935 20.7272 11.9993 20.7272C14.3696 20.7272 14.6661 20.7168 15.597 20.6744C16.526 20.6319 17.1609 20.4848 17.7162 20.269C18.29 20.0461 18.7762 19.7472 19.2611 19.2617C19.7465 18.7766 20.0447 18.2897 20.2683 17.7159C20.4828 17.1608 20.6301 16.5264 20.6737 15.5977C20.7156 14.6668 20.7265 14.3701 20.7265 11.9999C20.7265 9.62972 20.7156 9.33227 20.6737 8.40136C20.6301 7.47227 20.4828 6.83808 20.2683 6.28317C20.0447 5.70917 19.7465 5.22227 19.2611 4.73717C18.7756 4.25172 18.2902 3.95354 17.7156 3.73081C17.1593 3.51499 16.5248 3.3679 15.5957 3.32536C14.6648 3.28299 14.3685 3.27263 11.9976 3.27263H12.0004ZM11.2175 4.84536C11.4498 4.84499 11.7091 4.84536 12.0004 4.84536C14.3305 4.84536 14.6066 4.85372 15.5268 4.89554C16.3777 4.93445 16.8395 5.07663 17.1471 5.19608C17.5544 5.35427 17.8447 5.54336 18.15 5.84881C18.4554 6.15426 18.6445 6.44517 18.8031 6.85245C18.9225 7.15972 19.0649 7.62154 19.1036 8.47245C19.1454 9.39245 19.1545 9.66881 19.1545 11.9979C19.1545 14.327 19.1454 14.6034 19.1036 15.5234C19.0647 16.3743 18.9225 16.8361 18.8031 17.1434C18.6449 17.5506 18.4554 17.8406 18.15 18.1459C17.8446 18.4514 17.5546 18.6404 17.1471 18.7986C16.8399 18.9186 16.3777 19.0604 15.5268 19.0994C14.6068 19.1412 14.3305 19.1503 12.0004 19.1503C9.67007 19.1503 9.3939 19.1412 8.47393 19.0994C7.62304 19.0601 7.16124 18.9179 6.85343 18.7984C6.44617 18.6403 6.15527 18.4512 5.84982 18.1457C5.54438 17.8403 5.35529 17.5501 5.19675 17.1426C5.0773 16.8354 4.93494 16.3735 4.89622 15.5226C4.8544 14.6026 4.84604 14.3263 4.84604 11.9957C4.84604 9.66517 4.8544 9.39027 4.89622 8.47027C4.93512 7.61936 5.0773 7.15754 5.19675 6.8499C5.35493 6.44263 5.54438 6.15172 5.84982 5.84627C6.15527 5.54081 6.44617 5.35172 6.85343 5.19317C7.16106 5.07317 7.62304 4.93136 8.47393 4.89227C9.27899 4.8559 9.59098 4.84499 11.2175 4.84317V4.84536ZM16.6588 6.29445C16.0806 6.29445 15.6115 6.76299 15.6115 7.34136C15.6115 7.91954 16.0806 8.38863 16.6588 8.38863C17.2369 8.38863 17.706 7.91954 17.706 7.34136C17.706 6.76317 17.2369 6.29408 16.6588 6.29408V6.29445ZM12.0004 7.51808C9.52535 7.51808 7.51868 9.52481 7.51868 11.9999C7.51868 14.475 9.52535 16.4808 12.0004 16.4808C14.4754 16.4808 16.4813 14.475 16.4813 11.9999C16.4813 9.52481 14.4754 7.51808 12.0004 7.51808ZM12.0004 9.09081C13.6069 9.09081 14.9094 10.3932 14.9094 11.9999C14.9094 13.6064 13.6069 14.909 12.0004 14.909C10.3937 14.909 9.09136 13.6064 9.09136 11.9999C9.09136 10.3932 10.3937 9.09081 12.0004 9.09081Z" fill="white"/>
</g>
<defs>
<clipPath id="clip0_6005_303">
<rect width="24" height="24" fill="white"/>
</clipPath>
</defs>
</svg>
