<svg width="282" height="315" viewBox="0 0 282 315" fill="none" xmlns="http://www.w3.org/2000/svg">
<path fill-rule="evenodd" clip-rule="evenodd" d="M46.4137 6.57153C37.9349 1.04819 24.3744 -0.368478 5.73225 2.32154C3.01601 2.71349 1.00009 5.04118 1.00009 7.78556V28.6011C1.00009 31.65 3.47175 34.1217 6.5207 34.1217C6.55855 34.1217 6.5964 34.1213 6.63424 34.1205L14.2548 33.9637C15.8656 37.7494 17.8437 40.7021 20.189 42.822C20.189 41.1261 20.3203 38.1299 20.5829 33.8335L42.0715 33.3915C45.0444 33.3303 47.4347 30.9256 47.478 27.9524C47.6518 16.0098 47.2971 8.8828 46.4137 6.57153Z" fill="#007A7C" fill-opacity="0.09" stroke="#191919"/>
<path d="M9.14294 12.7312L36.9629 13.0072" stroke="#191919" stroke-linecap="round" stroke-linejoin="round" stroke-dasharray="15 11"/>
<path d="M6.93445 17.1477L34.7544 17.4237" stroke="#191919" stroke-linecap="round" stroke-linejoin="round"/>
<path d="M12.4552 22.1165L40.2751 22.3925" stroke="#191919" stroke-linecap="round" stroke-linejoin="round" stroke-dasharray="10 8"/>
<path fill-rule="evenodd" clip-rule="evenodd" d="M46.4137 94.8428C37.9349 89.3194 24.3744 87.9028 5.73225 90.5928C3.01601 90.9847 1.00009 93.3124 1.00009 96.0568V116.872C1.00009 119.921 3.47175 122.393 6.5207 122.393C6.55855 122.393 6.5964 122.393 6.63424 122.392L14.2548 122.235C15.8656 126.021 17.8437 128.973 20.189 131.093C20.189 129.397 20.3203 126.401 20.5829 122.105L42.0715 121.663C45.0444 121.602 47.4347 119.197 47.478 116.224C47.6518 104.281 47.2971 97.154 46.4137 94.8428Z" fill="#007A7C" fill-opacity="0.09" stroke="#191919"/>
<path d="M9.14294 101.003L36.9629 101.279" stroke="#191919" stroke-linecap="round" stroke-linejoin="round" stroke-dasharray="15 11"/>
<path d="M6.93445 105.419L34.7544 105.695" stroke="#191919" stroke-linecap="round" stroke-linejoin="round"/>
<path d="M12.4552 110.388L40.2751 110.664" stroke="#191919" stroke-linecap="round" stroke-linejoin="round" stroke-dasharray="10 8"/>
<path fill-rule="evenodd" clip-rule="evenodd" d="M46.4137 185.012C37.9349 179.489 24.3744 178.072 5.73225 180.762C3.01601 181.154 1.00009 183.482 1.00009 186.226V207.042C1.00009 210.091 3.47175 212.562 6.5207 212.562C6.55855 212.562 6.5964 212.562 6.63424 212.561L14.2548 212.404C15.8656 216.19 17.8437 219.143 20.189 221.263C20.189 219.567 20.3203 216.571 20.5829 212.274L42.0715 211.832C45.0444 211.771 47.4347 209.366 47.478 206.393C47.6518 194.45 47.2971 187.323 46.4137 185.012Z" fill="#007A7C" fill-opacity="0.09" stroke="#191919"/>
<path d="M9.14294 191.172L36.9629 191.448" stroke="#191919" stroke-linecap="round" stroke-linejoin="round" stroke-dasharray="15 11"/>
<path d="M6.93445 195.589L34.7544 195.865" stroke="#191919" stroke-linecap="round" stroke-linejoin="round"/>
<path d="M12.4552 200.557L40.2751 200.833" stroke="#191919" stroke-linecap="round" stroke-linejoin="round" stroke-dasharray="10 8"/>
<path d="M113.743 17.9138H98.0195C95.809 17.9138 94.0171 19.7132 94.0171 21.9328V36.5732C94.0171 38.7928 95.809 40.5921 98.0195 40.5921H113.743C115.954 40.5921 117.746 38.7928 117.746 36.5732V21.9328C117.746 19.7132 115.954 17.9138 113.743 17.9138Z" fill="#007A7C" fill-opacity="0.09" stroke="#191919"/>
<path fill-rule="evenodd" clip-rule="evenodd" d="M106.025 34.7073C108.884 34.7073 108.026 34.7073 107.413 29.2754C108.126 28.8159 108.598 28.0133 108.598 27.1C108.598 25.6731 107.446 24.5164 106.025 24.5164C104.604 24.5164 103.452 25.6731 103.452 27.1C103.452 28.0015 103.911 28.7951 104.608 29.2573C104.309 34.4202 103.452 34.7073 106.025 34.7073Z" fill="#007A7C" fill-opacity="0.09"/>
<path fill-rule="evenodd" clip-rule="evenodd" d="M111.17 12.8197C111.17 10.9772 110.453 7.29222 105.702 7.29222C102.534 7.29222 100.831 9.13473 100.592 12.8197V17.9137H97.4474V11.1676C97.8286 6.28749 100.545 3.84741 105.595 3.84741C113.171 3.84741 114.315 8.72756 114.315 11.1676V17.9137H111.17V12.8197Z" fill="#007A7C" fill-opacity="0.09" stroke="#191919"/>
<path d="M113.743 17.9138H98.0195C95.809 17.9138 94.0171 19.7132 94.0171 21.9328V36.5732C94.0171 38.7928 95.809 40.5921 98.0195 40.5921H113.743C115.954 40.5921 117.746 38.7928 117.746 36.5732V21.9328C117.746 19.7132 115.954 17.9138 113.743 17.9138Z" fill="#007A7C" fill-opacity="0.09"/>
<path fill-rule="evenodd" clip-rule="evenodd" d="M106.025 34.7073C108.884 34.7073 108.026 34.7073 107.413 29.2754C108.126 28.8159 108.598 28.0133 108.598 27.1C108.598 25.6731 107.446 24.5164 106.025 24.5164C104.604 24.5164 103.452 25.6731 103.452 27.1C103.452 28.0015 103.911 28.7951 104.608 29.2573C104.309 34.4202 103.452 34.7073 106.025 34.7073Z" fill="#191919"/>
<path fill-rule="evenodd" clip-rule="evenodd" d="M111.17 12.8197C111.17 10.9772 110.453 7.29222 105.702 7.29222C102.534 7.29222 100.831 9.13473 100.592 12.8197V17.9137H97.4474V11.1676C97.8286 6.28749 100.545 3.84741 105.595 3.84741C113.171 3.84741 114.315 8.72756 114.315 11.1676V17.9137H111.17V12.8197Z" fill="#007A7C" fill-opacity="0.09"/>
<path d="M113.743 106.185H98.0195C95.809 106.185 94.0171 107.984 94.0171 110.204V124.844C94.0171 127.064 95.809 128.863 98.0195 128.863H113.743C115.954 128.863 117.746 127.064 117.746 124.844V110.204C117.746 107.984 115.954 106.185 113.743 106.185Z" fill="#007A7C" fill-opacity="0.09" stroke="#191919"/>
<path fill-rule="evenodd" clip-rule="evenodd" d="M106.025 122.978C108.884 122.978 108.026 122.978 107.413 117.547C108.126 117.087 108.598 116.284 108.598 115.371C108.598 113.944 107.446 112.787 106.025 112.787C104.604 112.787 103.452 113.944 103.452 115.371C103.452 116.273 103.911 117.066 104.608 117.528C104.309 122.691 103.452 122.978 106.025 122.978Z" fill="#007A7C" fill-opacity="0.09"/>
<path fill-rule="evenodd" clip-rule="evenodd" d="M111.17 101.091C111.17 99.2485 110.453 95.5635 105.702 95.5635C102.534 95.5635 100.831 97.406 100.592 101.091V106.185H97.4474V99.4389C97.8286 94.5587 100.545 92.1187 105.595 92.1187C113.171 92.1187 114.315 96.9988 114.315 99.4389V106.185H111.17V101.091Z" fill="#007A7C" fill-opacity="0.09" stroke="#191919"/>
<path d="M113.743 106.185H98.0195C95.809 106.185 94.0171 107.984 94.0171 110.204V124.844C94.0171 127.064 95.809 128.863 98.0195 128.863H113.743C115.954 128.863 117.746 127.064 117.746 124.844V110.204C117.746 107.984 115.954 106.185 113.743 106.185Z" fill="#007A7C" fill-opacity="0.09"/>
<path fill-rule="evenodd" clip-rule="evenodd" d="M106.025 122.978C108.884 122.978 108.026 122.978 107.413 117.547C108.126 117.087 108.598 116.284 108.598 115.371C108.598 113.944 107.446 112.787 106.025 112.787C104.604 112.787 103.452 113.944 103.452 115.371C103.452 116.273 103.911 117.066 104.608 117.528C104.309 122.691 103.452 122.978 106.025 122.978Z" fill="#191919"/>
<path fill-rule="evenodd" clip-rule="evenodd" d="M111.17 101.091C111.17 99.2485 110.453 95.5635 105.702 95.5635C102.534 95.5635 100.831 97.406 100.592 101.091V106.185H97.4474V99.4389C97.8286 94.5587 100.545 92.1187 105.595 92.1187C113.171 92.1187 114.315 96.9988 114.315 99.4389V106.185H111.17V101.091Z" fill="#007A7C" fill-opacity="0.09"/>
<path d="M113.743 196.354H98.0195C95.809 196.354 94.0171 198.154 94.0171 200.373V215.014C94.0171 217.233 95.809 219.033 98.0195 219.033H113.743C115.954 219.033 117.746 217.233 117.746 215.014V200.373C117.746 198.154 115.954 196.354 113.743 196.354Z" fill="#007A7C" fill-opacity="0.09" stroke="#191919"/>
<path fill-rule="evenodd" clip-rule="evenodd" d="M106.025 213.148C108.884 213.148 108.026 213.148 107.413 207.716C108.126 207.257 108.598 206.454 108.598 205.541C108.598 204.114 107.446 202.957 106.025 202.957C104.604 202.957 103.452 204.114 103.452 205.541C103.452 206.442 103.911 207.236 104.608 207.698C104.309 212.861 103.452 213.148 106.025 213.148Z" fill="#007A7C" fill-opacity="0.09"/>
<path fill-rule="evenodd" clip-rule="evenodd" d="M111.17 191.261C111.17 189.418 110.453 185.733 105.702 185.733C102.534 185.733 100.831 187.576 100.592 191.261V196.355H97.4474V189.608C97.8286 184.728 100.545 182.288 105.595 182.288C113.171 182.288 114.315 187.168 114.315 189.608V196.355H111.17V191.261Z" fill="#007A7C" fill-opacity="0.09" stroke="#191919"/>
<path d="M113.743 196.354H98.0195C95.809 196.354 94.0171 198.154 94.0171 200.373V215.014C94.0171 217.233 95.809 219.033 98.0195 219.033H113.743C115.954 219.033 117.746 217.233 117.746 215.014V200.373C117.746 198.154 115.954 196.354 113.743 196.354Z" fill="#007A7C" fill-opacity="0.09"/>
<path fill-rule="evenodd" clip-rule="evenodd" d="M106.025 213.148C108.884 213.148 108.026 213.148 107.413 207.716C108.126 207.257 108.598 206.454 108.598 205.541C108.598 204.114 107.446 202.957 106.025 202.957C104.604 202.957 103.452 204.114 103.452 205.541C103.452 206.442 103.911 207.236 104.608 207.698C104.309 212.861 103.452 213.148 106.025 213.148Z" fill="#191919"/>
<path fill-rule="evenodd" clip-rule="evenodd" d="M111.17 191.261C111.17 189.418 110.453 185.733 105.702 185.733C102.534 185.733 100.831 187.576 100.592 191.261V196.355H97.4474V189.608C97.8286 184.728 100.545 182.288 105.595 182.288C113.171 182.288 114.315 187.168 114.315 189.608V196.355H111.17V191.261Z" fill="#007A7C" fill-opacity="0.09"/>
<path fill-rule="evenodd" clip-rule="evenodd" d="M209.668 6.57153C201.189 1.04819 187.628 -0.368478 168.986 2.32154C166.27 2.71349 164.254 5.04118 164.254 7.78556V28.6011C164.254 31.65 166.726 34.1217 169.774 34.1217C169.812 34.1217 169.85 34.1213 169.888 34.1205L177.509 33.9637C179.119 37.7494 181.097 40.7021 183.443 42.822C183.443 41.1261 183.574 38.1299 183.837 33.8335L205.325 33.3915C208.298 33.3303 210.689 30.9256 210.732 27.9524C210.906 16.0098 210.551 8.8828 209.668 6.57153Z" fill="#007A7C" fill-opacity="0.09" stroke="#191919"/>
<path d="M172.397 12.7312L200.217 13.0072" stroke="#191919" stroke-linecap="round" stroke-linejoin="round" stroke-dasharray="15 11"/>
<path d="M170.189 17.1477L198.009 17.4237" stroke="#191919" stroke-linecap="round" stroke-linejoin="round"/>
<path d="M175.709 22.1165L203.529 22.3925" stroke="#191919" stroke-linecap="round" stroke-linejoin="round" stroke-dasharray="10 8"/>
<path fill-rule="evenodd" clip-rule="evenodd" d="M209.668 94.8428C201.189 89.3194 187.628 87.9028 168.986 90.5928C166.27 90.9847 164.254 93.3124 164.254 96.0568V116.872C164.254 119.921 166.726 122.393 169.774 122.393C169.812 122.393 169.85 122.393 169.888 122.392L177.509 122.235C179.119 126.021 181.097 128.973 183.443 131.093C183.443 129.397 183.574 126.401 183.837 122.105L205.325 121.663C208.298 121.602 210.689 119.197 210.732 116.224C210.906 104.281 210.551 97.154 209.668 94.8428Z" fill="#007A7C" fill-opacity="0.09" stroke="#191919"/>
<path d="M172.397 101.002L200.217 101.278" stroke="#191919" stroke-linecap="round" stroke-linejoin="round" stroke-dasharray="15 11"/>
<path d="M170.189 105.419L198.009 105.695" stroke="#191919" stroke-linecap="round" stroke-linejoin="round"/>
<path d="M175.709 110.388L203.529 110.664" stroke="#191919" stroke-linecap="round" stroke-linejoin="round" stroke-dasharray="10 8"/>
<path fill-rule="evenodd" clip-rule="evenodd" d="M209.668 185.012C201.189 179.489 187.628 178.072 168.986 180.762C166.27 181.154 164.254 183.482 164.254 186.226V207.042C164.254 210.091 166.726 212.562 169.774 212.562C169.812 212.562 169.85 212.562 169.888 212.561L177.509 212.404C179.119 216.19 181.097 219.143 183.443 221.263C183.443 219.567 183.574 216.571 183.837 212.274L205.325 211.832C208.298 211.771 210.689 209.366 210.732 206.393C210.906 194.45 210.551 187.323 209.668 185.012Z" fill="#007A7C" fill-opacity="0.09" stroke="#191919"/>
<path d="M172.397 191.172L200.217 191.448" stroke="#191919" stroke-linecap="round" stroke-linejoin="round" stroke-dasharray="15 11"/>
<path d="M170.189 195.589L198.009 195.865" stroke="#191919" stroke-linecap="round" stroke-linejoin="round"/>
<path d="M175.709 200.557L203.529 200.833" stroke="#191919" stroke-linecap="round" stroke-linejoin="round" stroke-dasharray="10 8"/>
<path d="M276.998 17.9138H261.274C259.063 17.9138 257.271 19.7132 257.271 21.9328V36.5732C257.271 38.7928 259.063 40.5921 261.274 40.5921H276.998C279.208 40.5921 281 38.7928 281 36.5732V21.9328C281 19.7132 279.208 17.9138 276.998 17.9138Z" fill="#007A7C" fill-opacity="0.09" stroke="#191919"/>
<path fill-rule="evenodd" clip-rule="evenodd" d="M269.279 34.7073C272.138 34.7073 271.28 34.7073 270.667 29.2754C271.38 28.8159 271.852 28.0133 271.852 27.1C271.852 25.6731 270.7 24.5164 269.279 24.5164C267.858 24.5164 266.706 25.6731 266.706 27.1C266.706 28.0015 267.166 28.7951 267.863 29.2573C267.563 34.4202 266.706 34.7073 269.279 34.7073Z" fill="#007A7C" fill-opacity="0.09"/>
<path fill-rule="evenodd" clip-rule="evenodd" d="M274.424 12.8197C274.424 10.9772 273.707 7.29222 268.956 7.29222C265.789 7.29222 264.085 9.13473 263.846 12.8197V17.9137H260.702V11.1676C261.083 6.28749 263.799 3.84741 268.849 3.84741C276.425 3.84741 277.569 8.72756 277.569 11.1676V17.9137H274.424V12.8197Z" fill="#007A7C" fill-opacity="0.09" stroke="#191919"/>
<path d="M276.998 17.9138H261.274C259.063 17.9138 257.271 19.7132 257.271 21.9328V36.5732C257.271 38.7928 259.063 40.5921 261.274 40.5921H276.998C279.208 40.5921 281 38.7928 281 36.5732V21.9328C281 19.7132 279.208 17.9138 276.998 17.9138Z" fill="#007A7C" fill-opacity="0.09"/>
<path fill-rule="evenodd" clip-rule="evenodd" d="M269.279 34.7073C272.138 34.7073 271.28 34.7073 270.667 29.2754C271.38 28.8159 271.852 28.0133 271.852 27.1C271.852 25.6731 270.7 24.5164 269.279 24.5164C267.858 24.5164 266.706 25.6731 266.706 27.1C266.706 28.0015 267.166 28.7951 267.863 29.2573C267.563 34.4202 266.706 34.7073 269.279 34.7073Z" fill="#191919"/>
<path fill-rule="evenodd" clip-rule="evenodd" d="M274.424 12.8197C274.424 10.9772 273.707 7.29222 268.956 7.29222C265.789 7.29222 264.085 9.13473 263.846 12.8197V17.9137H260.702V11.1676C261.083 6.28749 263.799 3.84741 268.849 3.84741C276.425 3.84741 277.569 8.72756 277.569 11.1676V17.9137H274.424V12.8197Z" fill="#007A7C" fill-opacity="0.09"/>
<path d="M276.998 106.185H261.274C259.063 106.185 257.271 107.984 257.271 110.204V124.844C257.271 127.064 259.063 128.863 261.274 128.863H276.998C279.208 128.863 281 127.064 281 124.844V110.204C281 107.984 279.208 106.185 276.998 106.185Z" fill="#007A7C" fill-opacity="0.09" stroke="#191919"/>
<path fill-rule="evenodd" clip-rule="evenodd" d="M269.279 122.978C272.138 122.978 271.28 122.978 270.667 117.547C271.38 117.087 271.852 116.284 271.852 115.371C271.852 113.944 270.7 112.787 269.279 112.787C267.858 112.787 266.706 113.944 266.706 115.371C266.706 116.273 267.166 117.066 267.863 117.528C267.563 122.691 266.706 122.978 269.279 122.978Z" fill="#007A7C" fill-opacity="0.09"/>
<path fill-rule="evenodd" clip-rule="evenodd" d="M274.424 101.091C274.424 99.2485 273.707 95.5635 268.956 95.5635C265.789 95.5635 264.085 97.406 263.846 101.091V106.185H260.702V99.4389C261.083 94.5587 263.799 92.1187 268.849 92.1187C276.425 92.1187 277.569 96.9988 277.569 99.4389V106.185H274.424V101.091Z" fill="#007A7C" fill-opacity="0.09" stroke="#191919"/>
<path d="M276.998 106.185H261.274C259.063 106.185 257.271 107.984 257.271 110.204V124.844C257.271 127.064 259.063 128.863 261.274 128.863H276.998C279.208 128.863 281 127.064 281 124.844V110.204C281 107.984 279.208 106.185 276.998 106.185Z" fill="#007A7C" fill-opacity="0.09"/>
<path fill-rule="evenodd" clip-rule="evenodd" d="M269.279 122.978C272.138 122.978 271.28 122.978 270.667 117.547C271.38 117.087 271.852 116.284 271.852 115.371C271.852 113.944 270.7 112.787 269.279 112.787C267.858 112.787 266.706 113.944 266.706 115.371C266.706 116.273 267.166 117.066 267.863 117.528C267.563 122.691 266.706 122.978 269.279 122.978Z" fill="#191919"/>
<path fill-rule="evenodd" clip-rule="evenodd" d="M274.424 101.091C274.424 99.2485 273.707 95.5635 268.956 95.5635C265.789 95.5635 264.085 97.406 263.846 101.091V106.185H260.702V99.4389C261.083 94.5587 263.799 92.1187 268.849 92.1187C276.425 92.1187 277.569 96.9988 277.569 99.4389V106.185H274.424V101.091Z" fill="#007A7C" fill-opacity="0.09"/>
<path d="M276.998 190.659H261.274C259.063 190.659 257.271 192.459 257.271 194.678V209.319C257.271 211.538 259.063 213.338 261.274 213.338H276.998C279.208 213.338 281 211.538 281 209.319V194.678C281 192.459 279.208 190.659 276.998 190.659Z" fill="#007A7C" fill-opacity="0.09" stroke="#191919"/>
<path fill-rule="evenodd" clip-rule="evenodd" d="M269.279 207.453C272.138 207.453 271.28 207.453 270.667 202.021C271.38 201.562 271.852 200.759 271.852 199.846C271.852 198.419 270.7 197.262 269.279 197.262C267.858 197.262 266.706 198.419 266.706 199.846C266.706 200.747 267.166 201.541 267.863 202.003C267.563 207.166 266.706 207.453 269.279 207.453Z" fill="#007A7C" fill-opacity="0.09"/>
<path fill-rule="evenodd" clip-rule="evenodd" d="M274.424 185.565C274.424 183.723 273.707 180.038 268.956 180.038C265.789 180.038 264.085 181.88 263.846 185.565V190.659H260.702V183.913C261.083 179.033 263.799 176.593 268.849 176.593C276.425 176.593 277.569 181.473 277.569 183.913V190.659H274.424V185.565Z" fill="#007A7C" fill-opacity="0.09" stroke="#191919"/>
<path d="M276.998 190.659H261.274C259.063 190.659 257.271 192.459 257.271 194.678V209.319C257.271 211.538 259.063 213.338 261.274 213.338H276.998C279.208 213.338 281 211.538 281 209.319V194.678C281 192.459 279.208 190.659 276.998 190.659Z" fill="#007A7C" fill-opacity="0.09"/>
<path fill-rule="evenodd" clip-rule="evenodd" d="M269.279 207.453C272.138 207.453 271.28 207.453 270.667 202.021C271.38 201.562 271.852 200.759 271.852 199.846C271.852 198.419 270.7 197.262 269.279 197.262C267.858 197.262 266.706 198.419 266.706 199.846C266.706 200.747 267.166 201.541 267.863 202.003C267.563 207.166 266.706 207.453 269.279 207.453Z" fill="#191919"/>
<path fill-rule="evenodd" clip-rule="evenodd" d="M274.424 185.565C274.424 183.723 273.707 180.038 268.956 180.038C265.789 180.038 264.085 181.88 263.846 185.565V190.659H260.702V183.913C261.083 179.033 263.799 176.593 268.849 176.593C276.425 176.593 277.569 181.473 277.569 183.913V190.659H274.424V185.565Z" fill="#007A7C" fill-opacity="0.09"/>
<path fill-rule="evenodd" clip-rule="evenodd" d="M46.4137 277.08C37.9349 271.557 24.3744 270.14 5.73225 272.83C3.01601 273.222 1.00009 275.55 1.00009 278.294V299.11C1.00009 302.159 3.47175 304.63 6.5207 304.63C6.55855 304.63 6.5964 304.63 6.63424 304.629L14.2548 304.472C15.8656 308.258 17.8437 311.211 20.189 313.331C20.189 311.635 20.3203 308.638 20.5829 304.342L42.0715 303.9C45.0444 303.839 47.4347 301.434 47.478 298.461C47.6518 286.518 47.2971 279.391 46.4137 277.08Z" fill="#007A7C" fill-opacity="0.09" stroke="#191919"/>
<path d="M9.14294 283.24L36.9629 283.516" stroke="#191919" stroke-linecap="round" stroke-linejoin="round" stroke-dasharray="15 11"/>
<path d="M6.93445 287.656L34.7544 287.932" stroke="#191919" stroke-linecap="round" stroke-linejoin="round"/>
<path d="M12.4552 292.625L40.2751 292.901" stroke="#191919" stroke-linecap="round" stroke-linejoin="round" stroke-dasharray="10 8"/>
<path d="M113.743 279.88H98.0195C95.809 279.88 94.0171 281.679 94.0171 283.899V298.539C94.0171 300.759 95.809 302.558 98.0195 302.558H113.743C115.954 302.558 117.746 300.759 117.746 298.539V283.899C117.746 281.679 115.954 279.88 113.743 279.88Z" fill="#007A7C" fill-opacity="0.09" stroke="#191919"/>
<path fill-rule="evenodd" clip-rule="evenodd" d="M106.025 296.673C108.884 296.673 108.026 296.673 107.413 291.241C108.126 290.782 108.598 289.979 108.598 289.066C108.598 287.639 107.446 286.482 106.025 286.482C104.604 286.482 103.452 287.639 103.452 289.066C103.452 289.967 103.911 290.761 104.608 291.223C104.309 296.386 103.452 296.673 106.025 296.673Z" fill="#007A7C" fill-opacity="0.09"/>
<path fill-rule="evenodd" clip-rule="evenodd" d="M111.17 274.786C111.17 272.943 110.453 269.258 105.702 269.258C102.534 269.258 100.831 271.101 100.592 274.786V279.88H97.4474V273.134C97.8286 268.254 100.545 265.813 105.595 265.813C113.171 265.813 114.315 270.694 114.315 273.134V279.88H111.17V274.786Z" fill="#007A7C" fill-opacity="0.09" stroke="#191919"/>
<path d="M113.743 279.88H98.0195C95.809 279.88 94.0171 281.679 94.0171 283.899V298.539C94.0171 300.759 95.809 302.558 98.0195 302.558H113.743C115.954 302.558 117.746 300.759 117.746 298.539V283.899C117.746 281.679 115.954 279.88 113.743 279.88Z" fill="#007A7C" fill-opacity="0.09"/>
<path fill-rule="evenodd" clip-rule="evenodd" d="M106.025 296.673C108.884 296.673 108.026 296.673 107.413 291.241C108.126 290.782 108.598 289.979 108.598 289.066C108.598 287.639 107.446 286.482 106.025 286.482C104.604 286.482 103.452 287.639 103.452 289.066C103.452 289.967 103.911 290.761 104.608 291.223C104.309 296.386 103.452 296.673 106.025 296.673Z" fill="#191919"/>
<path fill-rule="evenodd" clip-rule="evenodd" d="M111.17 274.786C111.17 272.943 110.453 269.258 105.702 269.258C102.534 269.258 100.831 271.101 100.592 274.786V279.88H97.4474V273.134C97.8286 268.254 100.545 265.813 105.595 265.813C113.171 265.813 114.315 270.694 114.315 273.134V279.88H111.17V274.786Z" fill="#007A7C" fill-opacity="0.09"/>
<path fill-rule="evenodd" clip-rule="evenodd" d="M209.668 277.08C201.189 271.557 187.628 270.14 168.986 272.83C166.27 273.222 164.254 275.55 164.254 278.294V299.11C164.254 302.159 166.726 304.63 169.774 304.63C169.812 304.63 169.85 304.63 169.888 304.629L177.509 304.472C179.119 308.258 181.097 311.211 183.443 313.331C183.443 311.635 183.574 308.638 183.837 304.342L205.325 303.9C208.298 303.839 210.689 301.434 210.732 298.461C210.906 286.518 210.551 279.391 209.668 277.08Z" fill="#007A7C" fill-opacity="0.09" stroke="#191919"/>
<path d="M172.397 283.24L200.217 283.516" stroke="#191919" stroke-linecap="round" stroke-linejoin="round" stroke-dasharray="15 11"/>
<path d="M170.189 287.656L198.009 287.932" stroke="#191919" stroke-linecap="round" stroke-linejoin="round"/>
<path d="M175.709 292.625L203.529 292.901" stroke="#191919" stroke-linecap="round" stroke-linejoin="round" stroke-dasharray="10 8"/>
<path d="M276.998 279.88H261.274C259.063 279.88 257.271 281.679 257.271 283.899V298.539C257.271 300.759 259.063 302.558 261.274 302.558H276.998C279.208 302.558 281 300.759 281 298.539V283.899C281 281.679 279.208 279.88 276.998 279.88Z" fill="#007A7C" fill-opacity="0.09" stroke="#191919"/>
<path fill-rule="evenodd" clip-rule="evenodd" d="M269.279 296.673C272.138 296.673 271.28 296.673 270.667 291.241C271.38 290.782 271.852 289.979 271.852 289.066C271.852 287.639 270.7 286.482 269.279 286.482C267.858 286.482 266.706 287.639 266.706 289.066C266.706 289.967 267.166 290.761 267.863 291.223C267.563 296.386 266.706 296.673 269.279 296.673Z" fill="#007A7C" fill-opacity="0.09"/>
<path fill-rule="evenodd" clip-rule="evenodd" d="M274.424 274.786C274.424 272.943 273.707 269.258 268.956 269.258C265.789 269.258 264.085 271.101 263.846 274.786V279.88H260.702V273.134C261.083 268.254 263.799 265.813 268.849 265.813C276.425 265.813 277.569 270.694 277.569 273.134V279.88H274.424V274.786Z" fill="#007A7C" fill-opacity="0.09" stroke="#191919"/>
<path d="M276.998 279.88H261.274C259.063 279.88 257.271 281.679 257.271 283.899V298.539C257.271 300.759 259.063 302.558 261.274 302.558H276.998C279.208 302.558 281 300.759 281 298.539V283.899C281 281.679 279.208 279.88 276.998 279.88Z" fill="#007A7C" fill-opacity="0.09"/>
<path fill-rule="evenodd" clip-rule="evenodd" d="M269.279 296.673C272.138 296.673 271.28 296.673 270.667 291.241C271.38 290.782 271.852 289.979 271.852 289.066C271.852 287.639 270.7 286.482 269.279 286.482C267.858 286.482 266.706 287.639 266.706 289.066C266.706 289.967 267.166 290.761 267.863 291.223C267.563 296.386 266.706 296.673 269.279 296.673Z" fill="#191919"/>
<path fill-rule="evenodd" clip-rule="evenodd" d="M274.424 274.786C274.424 272.943 273.707 269.258 268.956 269.258C265.789 269.258 264.085 271.101 263.846 274.786V279.88H260.702V273.134C261.083 268.254 263.799 265.813 268.849 265.813C276.425 265.813 277.569 270.694 277.569 273.134V279.88H274.424V274.786Z" fill="#007A7C" fill-opacity="0.09"/>
</svg>
