<svg width="282" height="315" viewBox="0 0 282 315" fill="none" xmlns="http://www.w3.org/2000/svg">
<path fill-rule="evenodd" clip-rule="evenodd" d="M46.4137 6.2644C37.9349 0.741057 24.3744 -0.675607 5.73225 2.01441C3.01601 2.40636 1.00009 4.73406 1.00009 7.47843V28.2939C1.00009 31.3429 3.47175 33.8145 6.5207 33.8145C6.55855 33.8145 6.5964 33.8141 6.63424 33.8134L14.2548 33.6566C15.8656 37.4422 17.8437 40.395 20.189 42.5149C20.189 40.819 20.3203 37.8228 20.5829 33.5264L42.0715 33.0844C45.0444 33.0232 47.4347 30.6184 47.478 27.6453C47.6518 15.7026 47.2971 8.57567 46.4137 6.2644Z" fill="#007A7C" fill-opacity="0.09" stroke="#191919"/>
<path d="M9.14294 12.4241L36.9629 12.7001" stroke="#191919" stroke-linecap="round" stroke-linejoin="round" stroke-dasharray="15 11"/>
<path d="M6.93445 16.8406L34.7544 17.1166" stroke="#191919" stroke-linecap="round" stroke-linejoin="round"/>
<path d="M12.4552 21.8093L40.2751 22.0854" stroke="#191919" stroke-linecap="round" stroke-linejoin="round" stroke-dasharray="10 8"/>
<path fill-rule="evenodd" clip-rule="evenodd" d="M46.4137 94.5356C37.9349 89.0123 24.3744 87.5956 5.73225 90.2857C3.01601 90.6776 1.00009 93.0053 1.00009 95.7497V116.565C1.00009 119.614 3.47175 122.086 6.5207 122.086C6.55855 122.086 6.5964 122.085 6.63424 122.085L14.2548 121.928C15.8656 125.713 17.8437 128.666 20.189 130.786C20.189 129.09 20.3203 126.094 20.5829 121.798L42.0715 121.356C45.0444 121.294 47.4347 118.89 47.478 115.917C47.6518 103.974 47.2971 96.8469 46.4137 94.5356Z" fill="#007A7C" fill-opacity="0.09" stroke="#191919"/>
<path d="M9.14294 100.695L36.9629 100.971" stroke="#191919" stroke-linecap="round" stroke-linejoin="round" stroke-dasharray="15 11"/>
<path d="M6.93445 105.112L34.7544 105.388" stroke="#191919" stroke-linecap="round" stroke-linejoin="round"/>
<path d="M12.4552 110.08L40.2751 110.356" stroke="#191919" stroke-linecap="round" stroke-linejoin="round" stroke-dasharray="10 8"/>
<path fill-rule="evenodd" clip-rule="evenodd" d="M46.4137 184.705C37.9349 179.182 24.3744 177.765 5.73225 180.455C3.01601 180.847 1.00009 183.175 1.00009 185.919V206.735C1.00009 209.784 3.47175 212.255 6.5207 212.255C6.55855 212.255 6.5964 212.255 6.63424 212.254L14.2548 212.097C15.8656 215.883 17.8437 218.836 20.189 220.956C20.189 219.26 20.3203 216.263 20.5829 211.967L42.0715 211.525C45.0444 211.464 47.4347 209.059 47.478 206.086C47.6518 194.143 47.2971 187.016 46.4137 184.705Z" fill="#007A7C" fill-opacity="0.09" stroke="#191919"/>
<path d="M9.14294 190.865L36.9629 191.141" stroke="#191919" stroke-linecap="round" stroke-linejoin="round" stroke-dasharray="15 11"/>
<path d="M6.93445 195.281L34.7544 195.557" stroke="#191919" stroke-linecap="round" stroke-linejoin="round"/>
<path d="M12.4552 200.25L40.2751 200.526" stroke="#191919" stroke-linecap="round" stroke-linejoin="round" stroke-dasharray="10 8"/>
<path d="M113.743 17.6067H98.0195C95.809 17.6067 94.0171 19.406 94.0171 21.6256V36.2661C94.0171 38.4857 95.809 40.285 98.0195 40.285H113.743C115.954 40.285 117.746 38.4857 117.746 36.2661V21.6256C117.746 19.406 115.954 17.6067 113.743 17.6067Z" fill="#007A7C" fill-opacity="0.09" stroke="#191919"/>
<path fill-rule="evenodd" clip-rule="evenodd" d="M106.025 34.4001C108.884 34.4001 108.026 34.4001 107.413 28.9683C108.126 28.5088 108.598 27.7062 108.598 26.7928C108.598 25.3659 107.446 24.2092 106.025 24.2092C104.604 24.2092 103.452 25.3659 103.452 26.7928C103.452 27.6943 103.911 28.488 104.608 28.9502C104.309 34.1131 103.452 34.4001 106.025 34.4001Z" fill="#007A7C" fill-opacity="0.09"/>
<path fill-rule="evenodd" clip-rule="evenodd" d="M111.17 12.5126C111.17 10.6701 110.453 6.98509 105.702 6.98509C102.534 6.98509 100.831 8.8276 100.592 12.5126V17.6066H97.4474V10.8605C97.8286 5.98036 100.545 3.54028 105.595 3.54028C113.171 3.54028 114.315 8.42043 114.315 10.8605V17.6066H111.17V12.5126Z" fill="#007A7C" fill-opacity="0.09" stroke="#191919"/>
<path d="M113.743 17.6067H98.0195C95.809 17.6067 94.0171 19.406 94.0171 21.6256V36.2661C94.0171 38.4857 95.809 40.285 98.0195 40.285H113.743C115.954 40.285 117.746 38.4857 117.746 36.2661V21.6256C117.746 19.406 115.954 17.6067 113.743 17.6067Z" fill="#007A7C" fill-opacity="0.09"/>
<path fill-rule="evenodd" clip-rule="evenodd" d="M106.025 34.4001C108.884 34.4001 108.026 34.4001 107.413 28.9683C108.126 28.5088 108.598 27.7062 108.598 26.7928C108.598 25.3659 107.446 24.2092 106.025 24.2092C104.604 24.2092 103.452 25.3659 103.452 26.7928C103.452 27.6943 103.911 28.488 104.608 28.9502C104.309 34.1131 103.452 34.4001 106.025 34.4001Z" fill="#191919"/>
<path fill-rule="evenodd" clip-rule="evenodd" d="M111.17 12.5126C111.17 10.6701 110.453 6.98509 105.702 6.98509C102.534 6.98509 100.831 8.8276 100.592 12.5126V17.6066H97.4474V10.8605C97.8286 5.98036 100.545 3.54028 105.595 3.54028C113.171 3.54028 114.315 8.42043 114.315 10.8605V17.6066H111.17V12.5126Z" fill="#007A7C" fill-opacity="0.09"/>
<path d="M113.743 105.878H98.0195C95.809 105.878 94.0171 107.677 94.0171 109.897V124.537C94.0171 126.757 95.809 128.556 98.0195 128.556H113.743C115.954 128.556 117.746 126.757 117.746 124.537V109.897C117.746 107.677 115.954 105.878 113.743 105.878Z" fill="#007A7C" fill-opacity="0.09" stroke="#191919"/>
<path fill-rule="evenodd" clip-rule="evenodd" d="M106.025 122.671C108.884 122.671 108.026 122.671 107.413 117.239C108.126 116.78 108.598 115.977 108.598 115.064C108.598 113.637 107.446 112.48 106.025 112.48C104.604 112.48 103.452 113.637 103.452 115.064C103.452 115.965 103.911 116.759 104.608 117.221C104.309 122.384 103.452 122.671 106.025 122.671Z" fill="#007A7C" fill-opacity="0.09"/>
<path fill-rule="evenodd" clip-rule="evenodd" d="M111.17 100.784C111.17 98.9413 110.453 95.2563 105.702 95.2563C102.534 95.2563 100.831 97.0988 100.592 100.784V105.878H97.4474V99.1317C97.8286 94.2516 100.545 91.8115 105.595 91.8115C113.171 91.8115 114.315 96.6917 114.315 99.1317V105.878H111.17V100.784Z" fill="#007A7C" fill-opacity="0.09" stroke="#191919"/>
<path d="M113.743 105.878H98.0195C95.809 105.878 94.0171 107.677 94.0171 109.897V124.537C94.0171 126.757 95.809 128.556 98.0195 128.556H113.743C115.954 128.556 117.746 126.757 117.746 124.537V109.897C117.746 107.677 115.954 105.878 113.743 105.878Z" fill="#007A7C" fill-opacity="0.09"/>
<path fill-rule="evenodd" clip-rule="evenodd" d="M106.025 122.671C108.884 122.671 108.026 122.671 107.413 117.239C108.126 116.78 108.598 115.977 108.598 115.064C108.598 113.637 107.446 112.48 106.025 112.48C104.604 112.48 103.452 113.637 103.452 115.064C103.452 115.965 103.911 116.759 104.608 117.221C104.309 122.384 103.452 122.671 106.025 122.671Z" fill="#191919"/>
<path fill-rule="evenodd" clip-rule="evenodd" d="M111.17 100.784C111.17 98.9413 110.453 95.2563 105.702 95.2563C102.534 95.2563 100.831 97.0988 100.592 100.784V105.878H97.4474V99.1317C97.8286 94.2516 100.545 91.8115 105.595 91.8115C113.171 91.8115 114.315 96.6917 114.315 99.1317V105.878H111.17V100.784Z" fill="#007A7C" fill-opacity="0.09"/>
<path d="M113.743 196.047H98.0195C95.809 196.047 94.0171 197.847 94.0171 200.066V214.707C94.0171 216.926 95.809 218.726 98.0195 218.726H113.743C115.954 218.726 117.746 216.926 117.746 214.707V200.066C117.746 197.847 115.954 196.047 113.743 196.047Z" fill="#007A7C" fill-opacity="0.09" stroke="#191919"/>
<path fill-rule="evenodd" clip-rule="evenodd" d="M106.025 212.841C108.884 212.841 108.026 212.841 107.413 207.409C108.126 206.949 108.598 206.147 108.598 205.234C108.598 203.807 107.446 202.65 106.025 202.65C104.604 202.65 103.452 203.807 103.452 205.234C103.452 206.135 103.911 206.929 104.608 207.391C104.309 212.554 103.452 212.841 106.025 212.841Z" fill="#007A7C" fill-opacity="0.09"/>
<path fill-rule="evenodd" clip-rule="evenodd" d="M111.17 190.953C111.17 189.111 110.453 185.426 105.702 185.426C102.534 185.426 100.831 187.268 100.592 190.953V196.047H97.4474V189.301C97.8286 184.421 100.545 181.981 105.595 181.981C113.171 181.981 114.315 186.861 114.315 189.301V196.047H111.17V190.953Z" fill="#007A7C" fill-opacity="0.09" stroke="#191919"/>
<path d="M113.743 196.047H98.0195C95.809 196.047 94.0171 197.847 94.0171 200.066V214.707C94.0171 216.926 95.809 218.726 98.0195 218.726H113.743C115.954 218.726 117.746 216.926 117.746 214.707V200.066C117.746 197.847 115.954 196.047 113.743 196.047Z" fill="#007A7C" fill-opacity="0.09"/>
<path fill-rule="evenodd" clip-rule="evenodd" d="M106.025 212.841C108.884 212.841 108.026 212.841 107.413 207.409C108.126 206.949 108.598 206.147 108.598 205.234C108.598 203.807 107.446 202.65 106.025 202.65C104.604 202.65 103.452 203.807 103.452 205.234C103.452 206.135 103.911 206.929 104.608 207.391C104.309 212.554 103.452 212.841 106.025 212.841Z" fill="#191919"/>
<path fill-rule="evenodd" clip-rule="evenodd" d="M111.17 190.953C111.17 189.111 110.453 185.426 105.702 185.426C102.534 185.426 100.831 187.268 100.592 190.953V196.047H97.4474V189.301C97.8286 184.421 100.545 181.981 105.595 181.981C113.171 181.981 114.315 186.861 114.315 189.301V196.047H111.17V190.953Z" fill="#007A7C" fill-opacity="0.09"/>
<path fill-rule="evenodd" clip-rule="evenodd" d="M209.668 6.2644C201.189 0.741057 187.628 -0.675607 168.986 2.01441C166.27 2.40636 164.254 4.73406 164.254 7.47843V28.2939C164.254 31.3429 166.726 33.8145 169.774 33.8145C169.812 33.8145 169.85 33.8141 169.888 33.8134L177.509 33.6566C179.119 37.4422 181.097 40.395 183.443 42.5149C183.443 40.819 183.574 37.8228 183.837 33.5264L205.325 33.0844C208.298 33.0232 210.689 30.6184 210.732 27.6453C210.906 15.7026 210.551 8.57567 209.668 6.2644Z" fill="#007A7C" fill-opacity="0.09" stroke="#191919"/>
<path d="M172.397 12.4241L200.217 12.7001" stroke="#191919" stroke-linecap="round" stroke-linejoin="round" stroke-dasharray="15 11"/>
<path d="M170.189 16.8406L198.009 17.1166" stroke="#191919" stroke-linecap="round" stroke-linejoin="round"/>
<path d="M175.709 21.8093L203.529 22.0854" stroke="#191919" stroke-linecap="round" stroke-linejoin="round" stroke-dasharray="10 8"/>
<path fill-rule="evenodd" clip-rule="evenodd" d="M209.668 94.5356C201.189 89.0123 187.628 87.5956 168.986 90.2857C166.27 90.6776 164.254 93.0053 164.254 95.7497V116.565C164.254 119.614 166.726 122.086 169.774 122.086C169.812 122.086 169.85 122.085 169.888 122.085L177.509 121.928C179.119 125.713 181.097 128.666 183.443 130.786C183.443 129.09 183.574 126.094 183.837 121.798L205.325 121.356C208.298 121.294 210.689 118.89 210.732 115.917C210.906 103.974 210.551 96.8469 209.668 94.5356Z" fill="#007A7C" fill-opacity="0.09" stroke="#191919"/>
<path d="M172.397 100.695L200.217 100.971" stroke="#191919" stroke-linecap="round" stroke-linejoin="round" stroke-dasharray="15 11"/>
<path d="M170.189 105.112L198.009 105.388" stroke="#191919" stroke-linecap="round" stroke-linejoin="round"/>
<path d="M175.709 110.08L203.529 110.356" stroke="#191919" stroke-linecap="round" stroke-linejoin="round" stroke-dasharray="10 8"/>
<path fill-rule="evenodd" clip-rule="evenodd" d="M209.668 184.705C201.189 179.182 187.628 177.765 168.986 180.455C166.27 180.847 164.254 183.175 164.254 185.919V206.735C164.254 209.784 166.726 212.255 169.774 212.255C169.812 212.255 169.85 212.255 169.888 212.254L177.509 212.097C179.119 215.883 181.097 218.836 183.443 220.956C183.443 219.26 183.574 216.263 183.837 211.967L205.325 211.525C208.298 211.464 210.689 209.059 210.732 206.086C210.906 194.143 210.551 187.016 209.668 184.705Z" fill="#007A7C" fill-opacity="0.09" stroke="#191919"/>
<path d="M172.397 190.865L200.217 191.141" stroke="#191919" stroke-linecap="round" stroke-linejoin="round" stroke-dasharray="15 11"/>
<path d="M170.189 195.281L198.009 195.557" stroke="#191919" stroke-linecap="round" stroke-linejoin="round"/>
<path d="M175.709 200.25L203.529 200.526" stroke="#191919" stroke-linecap="round" stroke-linejoin="round" stroke-dasharray="10 8"/>
<path d="M276.998 17.6067H261.274C259.063 17.6067 257.271 19.406 257.271 21.6256V36.2661C257.271 38.4857 259.063 40.285 261.274 40.285H276.998C279.208 40.285 281 38.4857 281 36.2661V21.6256C281 19.406 279.208 17.6067 276.998 17.6067Z" fill="#007A7C" fill-opacity="0.09" stroke="#191919"/>
<path fill-rule="evenodd" clip-rule="evenodd" d="M269.279 34.4001C272.138 34.4001 271.28 34.4001 270.667 28.9683C271.38 28.5088 271.852 27.7062 271.852 26.7928C271.852 25.3659 270.7 24.2092 269.279 24.2092C267.858 24.2092 266.706 25.3659 266.706 26.7928C266.706 27.6943 267.166 28.488 267.863 28.9502C267.563 34.1131 266.706 34.4001 269.279 34.4001Z" fill="#007A7C" fill-opacity="0.09"/>
<path fill-rule="evenodd" clip-rule="evenodd" d="M274.424 12.5126C274.424 10.6701 273.707 6.98509 268.956 6.98509C265.789 6.98509 264.085 8.8276 263.846 12.5126V17.6066H260.702V10.8605C261.083 5.98036 263.799 3.54028 268.849 3.54028C276.425 3.54028 277.569 8.42043 277.569 10.8605V17.6066H274.424V12.5126Z" fill="#007A7C" fill-opacity="0.09" stroke="#191919"/>
<path d="M276.998 17.6067H261.274C259.063 17.6067 257.271 19.406 257.271 21.6256V36.2661C257.271 38.4857 259.063 40.285 261.274 40.285H276.998C279.208 40.285 281 38.4857 281 36.2661V21.6256C281 19.406 279.208 17.6067 276.998 17.6067Z" fill="#007A7C" fill-opacity="0.09"/>
<path fill-rule="evenodd" clip-rule="evenodd" d="M269.279 34.4001C272.138 34.4001 271.28 34.4001 270.667 28.9683C271.38 28.5088 271.852 27.7062 271.852 26.7928C271.852 25.3659 270.7 24.2092 269.279 24.2092C267.858 24.2092 266.706 25.3659 266.706 26.7928C266.706 27.6943 267.166 28.488 267.863 28.9502C267.563 34.1131 266.706 34.4001 269.279 34.4001Z" fill="#191919"/>
<path fill-rule="evenodd" clip-rule="evenodd" d="M274.424 12.5126C274.424 10.6701 273.707 6.98509 268.956 6.98509C265.789 6.98509 264.085 8.8276 263.846 12.5126V17.6066H260.702V10.8605C261.083 5.98036 263.799 3.54028 268.849 3.54028C276.425 3.54028 277.569 8.42043 277.569 10.8605V17.6066H274.424V12.5126Z" fill="#007A7C" fill-opacity="0.09"/>
<path d="M276.998 105.878H261.274C259.063 105.878 257.271 107.677 257.271 109.897V124.537C257.271 126.757 259.063 128.556 261.274 128.556H276.998C279.208 128.556 281 126.757 281 124.537V109.897C281 107.677 279.208 105.878 276.998 105.878Z" fill="#007A7C" fill-opacity="0.09" stroke="#191919"/>
<path fill-rule="evenodd" clip-rule="evenodd" d="M269.279 122.671C272.138 122.671 271.28 122.671 270.667 117.239C271.38 116.78 271.852 115.977 271.852 115.064C271.852 113.637 270.7 112.48 269.279 112.48C267.858 112.48 266.706 113.637 266.706 115.064C266.706 115.965 267.166 116.759 267.863 117.221C267.563 122.384 266.706 122.671 269.279 122.671Z" fill="#007A7C" fill-opacity="0.09"/>
<path fill-rule="evenodd" clip-rule="evenodd" d="M274.424 100.784C274.424 98.9413 273.707 95.2563 268.956 95.2563C265.789 95.2563 264.085 97.0988 263.846 100.784V105.878H260.702V99.1317C261.083 94.2516 263.799 91.8115 268.849 91.8115C276.425 91.8115 277.569 96.6917 277.569 99.1317V105.878H274.424V100.784Z" fill="#007A7C" fill-opacity="0.09" stroke="#191919"/>
<path d="M276.998 105.878H261.274C259.063 105.878 257.271 107.677 257.271 109.897V124.537C257.271 126.757 259.063 128.556 261.274 128.556H276.998C279.208 128.556 281 126.757 281 124.537V109.897C281 107.677 279.208 105.878 276.998 105.878Z" fill="#007A7C" fill-opacity="0.09"/>
<path fill-rule="evenodd" clip-rule="evenodd" d="M269.279 122.671C272.138 122.671 271.28 122.671 270.667 117.239C271.38 116.78 271.852 115.977 271.852 115.064C271.852 113.637 270.7 112.48 269.279 112.48C267.858 112.48 266.706 113.637 266.706 115.064C266.706 115.965 267.166 116.759 267.863 117.221C267.563 122.384 266.706 122.671 269.279 122.671Z" fill="#191919"/>
<path fill-rule="evenodd" clip-rule="evenodd" d="M274.424 100.784C274.424 98.9413 273.707 95.2563 268.956 95.2563C265.789 95.2563 264.085 97.0988 263.846 100.784V105.878H260.702V99.1317C261.083 94.2516 263.799 91.8115 268.849 91.8115C276.425 91.8115 277.569 96.6917 277.569 99.1317V105.878H274.424V100.784Z" fill="#007A7C" fill-opacity="0.09"/>
<path d="M276.998 190.352H261.274C259.063 190.352 257.271 192.152 257.271 194.371V209.012C257.271 211.231 259.063 213.031 261.274 213.031H276.998C279.208 213.031 281 211.231 281 209.012V194.371C281 192.152 279.208 190.352 276.998 190.352Z" fill="#007A7C" fill-opacity="0.09" stroke="#191919"/>
<path fill-rule="evenodd" clip-rule="evenodd" d="M269.279 207.146C272.138 207.146 271.28 207.146 270.667 201.714C271.38 201.254 271.852 200.452 271.852 199.538C271.852 198.112 270.7 196.955 269.279 196.955C267.858 196.955 266.706 198.112 266.706 199.538C266.706 200.44 267.166 201.234 267.863 201.696C267.563 206.859 266.706 207.146 269.279 207.146Z" fill="#007A7C" fill-opacity="0.09"/>
<path fill-rule="evenodd" clip-rule="evenodd" d="M274.424 185.258C274.424 183.416 273.707 179.731 268.956 179.731C265.789 179.731 264.085 181.573 263.846 185.258V190.352H260.702V183.606C261.083 178.726 263.799 176.286 268.849 176.286C276.425 176.286 277.569 181.166 277.569 183.606V190.352H274.424V185.258Z" fill="#007A7C" fill-opacity="0.09" stroke="#191919"/>
<path d="M276.998 190.352H261.274C259.063 190.352 257.271 192.152 257.271 194.371V209.012C257.271 211.231 259.063 213.031 261.274 213.031H276.998C279.208 213.031 281 211.231 281 209.012V194.371C281 192.152 279.208 190.352 276.998 190.352Z" fill="#007A7C" fill-opacity="0.09"/>
<path fill-rule="evenodd" clip-rule="evenodd" d="M269.279 207.146C272.138 207.146 271.28 207.146 270.667 201.714C271.38 201.254 271.852 200.452 271.852 199.538C271.852 198.112 270.7 196.955 269.279 196.955C267.858 196.955 266.706 198.112 266.706 199.538C266.706 200.44 267.166 201.234 267.863 201.696C267.563 206.859 266.706 207.146 269.279 207.146Z" fill="#191919"/>
<path fill-rule="evenodd" clip-rule="evenodd" d="M274.424 185.258C274.424 183.416 273.707 179.731 268.956 179.731C265.789 179.731 264.085 181.573 263.846 185.258V190.352H260.702V183.606C261.083 178.726 263.799 176.286 268.849 176.286C276.425 176.286 277.569 181.166 277.569 183.606V190.352H274.424V185.258Z" fill="#007A7C" fill-opacity="0.09"/>
<path fill-rule="evenodd" clip-rule="evenodd" d="M46.4137 276.773C37.9349 271.25 24.3744 269.833 5.73225 272.523C3.01601 272.915 1.00009 275.243 1.00009 277.987V298.802C1.00009 301.851 3.47175 304.323 6.5207 304.323C6.55855 304.323 6.5964 304.323 6.63424 304.322L14.2548 304.165C15.8656 307.951 17.8437 310.904 20.189 313.023C20.189 311.328 20.3203 308.331 20.5829 304.035L42.0715 303.593C45.0444 303.532 47.4347 301.127 47.478 298.154C47.6518 286.211 47.2971 279.084 46.4137 276.773Z" fill="#007A7C" fill-opacity="0.09" stroke="#191919"/>
<path d="M9.14294 282.933L36.9629 283.209" stroke="#191919" stroke-linecap="round" stroke-linejoin="round" stroke-dasharray="15 11"/>
<path d="M6.93445 287.349L34.7544 287.625" stroke="#191919" stroke-linecap="round" stroke-linejoin="round"/>
<path d="M12.4552 292.318L40.2751 292.594" stroke="#191919" stroke-linecap="round" stroke-linejoin="round" stroke-dasharray="10 8"/>
<path d="M113.743 279.573H98.0195C95.809 279.573 94.0171 281.372 94.0171 283.592V298.232C94.0171 300.452 95.809 302.251 98.0195 302.251H113.743C115.954 302.251 117.746 300.452 117.746 298.232V283.592C117.746 281.372 115.954 279.573 113.743 279.573Z" fill="#007A7C" fill-opacity="0.09" stroke="#191919"/>
<path fill-rule="evenodd" clip-rule="evenodd" d="M106.025 296.366C108.884 296.366 108.026 296.366 107.413 290.934C108.126 290.475 108.598 289.672 108.598 288.759C108.598 287.332 107.446 286.175 106.025 286.175C104.604 286.175 103.452 287.332 103.452 288.759C103.452 289.66 103.911 290.454 104.608 290.916C104.309 296.079 103.452 296.366 106.025 296.366Z" fill="#007A7C" fill-opacity="0.09"/>
<path fill-rule="evenodd" clip-rule="evenodd" d="M111.17 274.479C111.17 272.636 110.453 268.951 105.702 268.951C102.534 268.951 100.831 270.794 100.592 274.479V279.573H97.4474V272.827C97.8286 267.946 100.545 265.506 105.595 265.506C113.171 265.506 114.315 270.386 114.315 272.827V279.573H111.17V274.479Z" fill="#007A7C" fill-opacity="0.09" stroke="#191919"/>
<path d="M113.743 279.573H98.0195C95.809 279.573 94.0171 281.372 94.0171 283.592V298.232C94.0171 300.452 95.809 302.251 98.0195 302.251H113.743C115.954 302.251 117.746 300.452 117.746 298.232V283.592C117.746 281.372 115.954 279.573 113.743 279.573Z" fill="#007A7C" fill-opacity="0.09"/>
<path fill-rule="evenodd" clip-rule="evenodd" d="M106.025 296.366C108.884 296.366 108.026 296.366 107.413 290.934C108.126 290.475 108.598 289.672 108.598 288.759C108.598 287.332 107.446 286.175 106.025 286.175C104.604 286.175 103.452 287.332 103.452 288.759C103.452 289.66 103.911 290.454 104.608 290.916C104.309 296.079 103.452 296.366 106.025 296.366Z" fill="#191919"/>
<path fill-rule="evenodd" clip-rule="evenodd" d="M111.17 274.479C111.17 272.636 110.453 268.951 105.702 268.951C102.534 268.951 100.831 270.794 100.592 274.479V279.573H97.4474V272.827C97.8286 267.946 100.545 265.506 105.595 265.506C113.171 265.506 114.315 270.386 114.315 272.827V279.573H111.17V274.479Z" fill="#007A7C" fill-opacity="0.09"/>
<path fill-rule="evenodd" clip-rule="evenodd" d="M209.668 276.773C201.189 271.25 187.628 269.833 168.986 272.523C166.27 272.915 164.254 275.243 164.254 277.987V298.802C164.254 301.851 166.726 304.323 169.774 304.323C169.812 304.323 169.85 304.323 169.888 304.322L177.509 304.165C179.119 307.951 181.097 310.904 183.443 313.023C183.443 311.328 183.574 308.331 183.837 304.035L205.325 303.593C208.298 303.532 210.689 301.127 210.732 298.154C210.906 286.211 210.551 279.084 209.668 276.773Z" fill="#007A7C" fill-opacity="0.09" stroke="#191919"/>
<path d="M172.397 282.933L200.217 283.209" stroke="#191919" stroke-linecap="round" stroke-linejoin="round" stroke-dasharray="15 11"/>
<path d="M170.189 287.349L198.009 287.625" stroke="#191919" stroke-linecap="round" stroke-linejoin="round"/>
<path d="M175.709 292.318L203.529 292.594" stroke="#191919" stroke-linecap="round" stroke-linejoin="round" stroke-dasharray="10 8"/>
<path d="M276.998 279.573H261.274C259.063 279.573 257.271 281.372 257.271 283.592V298.232C257.271 300.452 259.063 302.251 261.274 302.251H276.998C279.208 302.251 281 300.452 281 298.232V283.592C281 281.372 279.208 279.573 276.998 279.573Z" fill="#007A7C" fill-opacity="0.09" stroke="#191919"/>
<path fill-rule="evenodd" clip-rule="evenodd" d="M269.279 296.366C272.138 296.366 271.28 296.366 270.667 290.934C271.38 290.475 271.852 289.672 271.852 288.759C271.852 287.332 270.7 286.175 269.279 286.175C267.858 286.175 266.706 287.332 266.706 288.759C266.706 289.66 267.166 290.454 267.863 290.916C267.563 296.079 266.706 296.366 269.279 296.366Z" fill="#007A7C" fill-opacity="0.09"/>
<path fill-rule="evenodd" clip-rule="evenodd" d="M274.424 274.479C274.424 272.636 273.707 268.951 268.956 268.951C265.789 268.951 264.085 270.794 263.846 274.479V279.573H260.702V272.827C261.083 267.946 263.799 265.506 268.849 265.506C276.425 265.506 277.569 270.386 277.569 272.827V279.573H274.424V274.479Z" fill="#007A7C" fill-opacity="0.09" stroke="#191919"/>
<path d="M276.998 279.573H261.274C259.063 279.573 257.271 281.372 257.271 283.592V298.232C257.271 300.452 259.063 302.251 261.274 302.251H276.998C279.208 302.251 281 300.452 281 298.232V283.592C281 281.372 279.208 279.573 276.998 279.573Z" fill="#007A7C" fill-opacity="0.09"/>
<path fill-rule="evenodd" clip-rule="evenodd" d="M269.279 296.366C272.138 296.366 271.28 296.366 270.667 290.934C271.38 290.475 271.852 289.672 271.852 288.759C271.852 287.332 270.7 286.175 269.279 286.175C267.858 286.175 266.706 287.332 266.706 288.759C266.706 289.66 267.166 290.454 267.863 290.916C267.563 296.079 266.706 296.366 269.279 296.366Z" fill="#191919"/>
<path fill-rule="evenodd" clip-rule="evenodd" d="M274.424 274.479C274.424 272.636 273.707 268.951 268.956 268.951C265.789 268.951 264.085 270.794 263.846 274.479V279.573H260.702V272.827C261.083 267.946 263.799 265.506 268.849 265.506C276.425 265.506 277.569 270.386 277.569 272.827V279.573H274.424V274.479Z" fill="#007A7C" fill-opacity="0.09"/>
</svg>
