<svg width="49" height="48" viewBox="0 0 49 48" fill="none" xmlns="http://www.w3.org/2000/svg">
<path d="M32.362 17.694H16.6381C14.4276 17.694 12.6356 19.4933 12.6356 21.7129V36.3534C12.6356 38.573 14.4276 40.3723 16.6381 40.3723H32.362C34.5725 40.3723 36.3644 38.573 36.3644 36.3534V21.7129C36.3644 19.4933 34.5725 17.694 32.362 17.694Z" fill="#007A7C" fill-opacity="0.09" stroke="#191919"/>
<path fill-rule="evenodd" clip-rule="evenodd" d="M24.6432 34.4874C27.5021 34.4874 26.6444 34.4874 26.0318 29.0555C26.7442 28.5961 27.2162 27.7934 27.2162 26.8801C27.2162 25.4532 26.0642 24.2965 24.6432 24.2965C23.2222 24.2965 22.0702 25.4532 22.0702 26.8801C22.0702 27.7816 22.53 28.5753 23.227 29.0375C22.9279 34.2003 22.0702 34.4874 24.6432 34.4874Z" fill="#007A7C" fill-opacity="0.09"/>
<path fill-rule="evenodd" clip-rule="evenodd" d="M29.7886 12.6C29.7886 10.7575 29.0715 7.0725 24.3204 7.0725C21.153 7.0725 19.4497 8.915 19.2107 12.6V17.694H16.0659V10.9479C16.4471 6.06776 19.1631 3.62769 24.2138 3.62769C31.7898 3.62769 32.9334 8.50783 32.9334 10.9479V17.694H29.7886V12.6Z" fill="#007A7C" fill-opacity="0.09" stroke="#191919"/>
<path d="M32.362 17.694H16.6381C14.4276 17.694 12.6356 19.4933 12.6356 21.7129V36.3534C12.6356 38.573 14.4276 40.3723 16.6381 40.3723H32.362C34.5725 40.3723 36.3644 38.573 36.3644 36.3534V21.7129C36.3644 19.4933 34.5725 17.694 32.362 17.694Z" fill="#007A7C" fill-opacity="0.09"/>
<path fill-rule="evenodd" clip-rule="evenodd" d="M24.6432 34.4874C27.5021 34.4874 26.6444 34.4874 26.0318 29.0555C26.7442 28.5961 27.2162 27.7934 27.2162 26.8801C27.2162 25.4532 26.0642 24.2965 24.6432 24.2965C23.2222 24.2965 22.0702 25.4532 22.0702 26.8801C22.0702 27.7816 22.53 28.5753 23.227 29.0375C22.9279 34.2003 22.0702 34.4874 24.6432 34.4874Z" fill="#191919"/>
<path fill-rule="evenodd" clip-rule="evenodd" d="M29.7886 12.6C29.7886 10.7575 29.0715 7.0725 24.3204 7.0725C21.153 7.0725 19.4498 8.915 19.2107 12.6V17.694H16.0659V10.9479C16.4471 6.06776 19.1631 3.62769 24.2138 3.62769C31.7898 3.62769 32.9334 8.50783 32.9334 10.9479V17.694H29.7886V12.6Z" fill="#007A7C" fill-opacity="0.09"/>
</svg>
