<svg width="49" height="44" viewBox="0 0 49 44" fill="none" xmlns="http://www.w3.org/2000/svg">
<path fill-rule="evenodd" clip-rule="evenodd" d="M46.4137 6.57153C37.9349 1.04819 24.3744 -0.368478 5.73225 2.32154C3.01601 2.71349 1.00009 5.04118 1.00009 7.78556V28.6011C1.00009 31.65 3.47175 34.1217 6.5207 34.1217C6.55855 34.1217 6.5964 34.1213 6.63424 34.1205L14.2548 33.9637C15.8656 37.7494 17.8437 40.7021 20.189 42.822C20.189 41.1261 20.3203 38.1299 20.5829 33.8335L42.0715 33.3915C45.0444 33.3303 47.4347 30.9256 47.478 27.9524C47.6518 16.0098 47.2971 8.8828 46.4137 6.57153Z" fill="#007A7C" fill-opacity="0.09" stroke="#191919"/>
<path d="M9.14294 12.7312L36.9629 13.0072" stroke="#191919" stroke-linecap="round" stroke-linejoin="round" stroke-dasharray="15 11"/>
<path d="M6.93445 17.1477L34.7544 17.4237" stroke="#191919" stroke-linecap="round" stroke-linejoin="round"/>
<path d="M12.4552 22.1165L40.2751 22.3925" stroke="#191919" stroke-linecap="round" stroke-linejoin="round" stroke-dasharray="10 8"/>
</svg>
