<svg width="26" height="39" viewBox="0 0 26 39" fill="none" xmlns="http://www.w3.org/2000/svg">
<path d="M20.7435 14.9138H5.01954C2.80905 14.9138 1.01709 16.7132 1.01709 18.9328V33.5732C1.01709 35.7928 2.80905 37.5921 5.01954 37.5921H20.7435C22.9539 37.5921 24.7459 35.7928 24.7459 33.5732V18.9328C24.7459 16.7132 22.9539 14.9138 20.7435 14.9138Z" fill="#007A7C" fill-opacity="0.09" stroke="#191919"/>
<path fill-rule="evenodd" clip-rule="evenodd" d="M13.0247 31.7073C15.8836 31.7073 15.0259 31.7073 14.4133 26.2754C15.1257 25.8159 15.5977 25.0133 15.5977 24.1C15.5977 22.6731 14.4457 21.5164 13.0247 21.5164C11.6036 21.5164 10.4517 22.6731 10.4517 24.1C10.4517 25.0015 10.9115 25.7951 11.6084 26.2573C11.3093 31.4202 10.4517 31.7073 13.0247 31.7073Z" fill="#007A7C" fill-opacity="0.09"/>
<path fill-rule="evenodd" clip-rule="evenodd" d="M18.1701 9.81974C18.1701 7.97723 17.4529 4.29222 12.7018 4.29222C9.53444 4.29222 7.83122 6.13473 7.59217 9.81974V14.9137H4.44739V8.16763C4.82857 3.28749 7.54452 0.847412 12.5952 0.847412C20.1713 0.847412 21.3149 5.72756 21.3149 8.16763V14.9137H18.1701V9.81974Z" fill="#007A7C" fill-opacity="0.09" stroke="#191919"/>
<path d="M20.7435 14.9138H5.01954C2.80905 14.9138 1.01709 16.7132 1.01709 18.9328V33.5732C1.01709 35.7928 2.80905 37.5921 5.01954 37.5921H20.7435C22.9539 37.5921 24.7459 35.7928 24.7459 33.5732V18.9328C24.7459 16.7132 22.9539 14.9138 20.7435 14.9138Z" fill="#007A7C" fill-opacity="0.09"/>
<path fill-rule="evenodd" clip-rule="evenodd" d="M13.0247 31.7073C15.8836 31.7073 15.0259 31.7073 14.4133 26.2754C15.1257 25.8159 15.5977 25.0133 15.5977 24.1C15.5977 22.6731 14.4457 21.5164 13.0247 21.5164C11.6036 21.5164 10.4517 22.6731 10.4517 24.1C10.4517 25.0015 10.9115 25.7951 11.6084 26.2573C11.3093 31.4202 10.4517 31.7073 13.0247 31.7073Z" fill="#191919"/>
<path fill-rule="evenodd" clip-rule="evenodd" d="M18.1701 9.81974C18.1701 7.97723 17.4529 4.29222 12.7018 4.29222C9.53444 4.29222 7.83122 6.13473 7.59217 9.81974V14.9137H4.44739V8.16763C4.82857 3.28749 7.54452 0.847412 12.5952 0.847412C20.1713 0.847412 21.3149 5.72756 21.3149 8.16763V14.9137H18.1701V9.81974Z" fill="#007A7C" fill-opacity="0.09"/>
</svg>
