<svg width="72" height="72" viewBox="0 0 72 72" fill="none" xmlns="http://www.w3.org/2000/svg">
<path d="M36 0L40.2924 7.52167L46.6112 1.59938L48.4958 10.0521L56.2795 6.2554L55.589 14.8881L64.1459 13.5544L60.9415 21.6L69.5115 22.8477L64.0779 29.5914L71.8993 33.3097L64.7195 38.1522L71.0974 44.0108L62.8092 46.5218L67.1769 54L58.5167 53.9565L60.4862 62.3899L52.2236 59.7957L51.6198 68.4349L44.4889 63.5205L41.3655 71.5979L36 64.8L30.6345 71.5979L27.5111 63.5205L20.3802 68.4349L19.7764 59.7957L11.5138 62.3899L13.4833 53.9565L4.82309 54L9.19084 46.5218L0.902596 44.0108L7.28053 38.1522L0.100662 33.3097L7.92208 29.5914L2.48854 22.8477L11.0585 21.6L7.85407 13.5544L16.411 14.8881L15.7205 6.2554L23.5041 10.0521L25.3888 1.59938L31.7076 7.52167L36 0Z" fill="#00BCD4"/>
<path d="M47.6092 29.4169L47.8365 24.8654L42.0709 22.3625L42.2239 19.1765L39.2112 17.5034C39.5017 16.9351 39.6396 16.301 39.6111 15.6634C39.5827 15.0257 39.389 14.4065 39.049 13.8663C38.709 13.3261 38.2343 12.8836 37.6717 12.5822C37.1091 12.2808 36.4779 12.1308 35.8398 12.1469C35.2018 12.1631 34.5789 12.3448 34.0323 12.6743C33.4856 13.0038 33.0341 13.4697 32.7219 14.0264C32.4097 14.5831 32.2475 15.2113 32.2513 15.8496C32.2551 16.4878 32.4248 17.1141 32.7437 17.667L29.7065 19.4024C29.7065 19.4024 30.0722 22.4387 29.9871 22.4886C29.731 22.635 24.1689 24.561 24.1689 24.561L24.6803 29.4185L24.7173 29.4103C24.8809 31.1171 27.3452 55.6528 33.2492 58.7267C33.3849 58.8183 33.5347 58.8868 33.6927 58.9295V58.923L34.8954 59.4892L36.0032 60.0619L38.6214 58.9516L38.7596 58.887C38.9226 58.8058 39.0789 58.7117 39.2268 58.6055C45.1733 54.9122 47.5502 29.4185 47.5502 29.4185L39.7186 27.9123V27.9016L47.6092 29.4169ZM35.9329 12.9207C36.4297 12.9195 36.9187 13.0454 37.3531 13.2865C37.7876 13.5275 38.153 13.8758 38.4148 14.298C38.6767 14.7203 38.8262 15.2025 38.8491 15.6988C38.8719 16.1951 38.7672 16.689 38.5453 17.1335L36.0785 15.7631L33.4046 17.2906C33.1483 16.8474 33.0133 16.3445 33.0133 15.8325C33.0134 15.3205 33.1485 14.8176 33.4049 14.3744C33.6612 13.9312 34.0299 13.5635 34.4737 13.3083C34.9176 13.0531 35.4209 12.9194 35.9329 12.9207Z" fill="#FEE600"/>
<path d="M42.0677 22.3657L42.2207 19.1798L39.2081 17.5065C39.4986 16.9382 39.6364 16.3042 39.608 15.6666C39.5795 15.029 39.3856 14.4097 39.0457 13.8695C38.7057 13.3293 38.2312 12.8868 37.6686 12.5854C37.106 12.284 36.4747 12.134 35.8366 12.1501C35.1986 12.1662 34.5757 12.348 34.0291 12.6775C33.4825 13.007 33.0308 13.4729 32.7185 14.0296C32.4063 14.5862 32.2441 15.2145 32.2479 15.8527C32.2517 16.491 32.4214 17.1173 32.7403 17.6702L29.7033 19.4056C29.7033 19.4056 30.069 22.4418 29.9839 22.4917C29.7278 22.6382 24.1658 24.5642 24.1658 24.5642L24.6771 29.4218C26.631 29.0037 32.1137 27.9073 32.1382 27.9335C32.1817 27.9895 32.2058 28.0581 32.207 28.129C32.2585 29.2409 33.6478 58.8509 33.6478 58.8509V58.9066L34.8922 59.4923L36 60.0651L38.6182 58.9548L39.717 27.9024L47.6058 29.4193L47.8333 24.8677L42.0677 22.3657ZM33.0104 15.8416C33.0092 15.401 33.1079 14.9658 33.2988 14.5688C33.4897 14.1717 33.7679 13.823 34.1128 13.5489C34.4577 13.2747 34.8602 13.0821 35.2901 12.9856C35.72 12.8891 36.1661 12.8911 36.5951 12.9916C37.0241 13.092 37.4247 13.2883 37.767 13.5656C38.1094 13.8429 38.3845 14.1941 38.5718 14.5929C38.7591 14.9917 38.8539 15.4277 38.8487 15.8682C38.8435 16.3088 38.7387 16.7425 38.5421 17.1367L36.0751 15.7663L33.4015 17.2939C33.1449 16.8517 33.0099 16.3495 33.0104 15.8383V15.8416Z" fill="black"/>
</svg>
