<svg width="226" height="20" viewBox="0 0 226 20" fill="none" xmlns="http://www.w3.org/2000/svg">
<g clip-path="url(#clip0_3885_46135)">
<path d="M1.0028 19.4972C0.889726 19.4966 0.781452 19.4514 0.701493 19.3714C0.621535 19.2915 0.576348 19.1832 0.575745 19.0701L0.575745 0.427046C0.576348 0.313973 0.621535 0.205702 0.701493 0.125745C0.781452 0.045789 0.889726 0.000603073 1.0028 0L4.1736 0C4.28667 0.000603073 4.39495 0.045789 4.47491 0.125745C4.55486 0.205702 4.60005 0.313973 4.60065 0.427046V16.0142C4.60065 16.0702 4.61172 16.1256 4.63321 16.1773C4.6547 16.229 4.68619 16.2759 4.72587 16.3154C4.76556 16.3549 4.81266 16.3861 4.86446 16.4073C4.91626 16.4285 4.97174 16.4393 5.02771 16.439H10.6598C10.7729 16.4396 10.8812 16.4848 10.9611 16.5647C11.0411 16.6447 11.0863 16.753 11.0869 16.866V19.0701C11.0863 19.1832 11.0411 19.2915 10.9611 19.3714C10.8812 19.4514 10.7729 19.4966 10.6598 19.4972H1.0028Z" fill="#231F20"/>
<path d="M24.2775 19.4972C24.1568 19.4923 24.0405 19.4498 23.9451 19.3757C23.8496 19.3017 23.7796 19.1997 23.7448 19.0839L22.9068 15.8214C22.872 15.7057 22.802 15.6036 22.7065 15.5296C22.6111 15.4555 22.4948 15.413 22.3741 15.4081H17.6489C17.5269 15.4113 17.4091 15.4527 17.3119 15.5264C17.2147 15.6002 17.143 15.7025 17.107 15.8191L16.2506 19.0839C16.2151 19.1997 16.1446 19.3016 16.0488 19.3756C15.953 19.4496 15.8366 19.4921 15.7157 19.4972H12.9742C12.9231 19.501 12.8718 19.4919 12.825 19.4709C12.7783 19.4498 12.7375 19.4174 12.7065 19.3765C12.6755 19.3357 12.6551 19.2877 12.6474 19.237C12.6396 19.1863 12.6446 19.1345 12.662 19.0862L17.7132 0.603846C17.7507 0.48816 17.8227 0.38674 17.9196 0.313256C18.0165 0.239771 18.1336 0.197755 18.2551 0.192871H21.9838C22.1047 0.198027 22.221 0.24022 22.3172 0.313733C22.4133 0.387246 22.4844 0.488524 22.521 0.603846L27.4896 19.0839C27.5064 19.1327 27.5109 19.1849 27.5026 19.2358C27.4944 19.2867 27.4736 19.3348 27.4422 19.3757C27.4108 19.4166 27.3698 19.4491 27.3228 19.4703C27.2758 19.4916 27.2242 19.5008 27.1728 19.4972H24.2775ZM20.1998 3.6896C20.1805 3.54052 20.1262 3.39812 20.0414 3.27403C19.9553 3.3977 19.9002 3.54021 19.8806 3.6896L17.7729 12.4303C17.7575 12.4798 17.7544 12.5323 17.7638 12.5832C17.7732 12.6342 17.795 12.6821 17.8271 12.7228C17.8592 12.7635 17.9007 12.7957 17.9481 12.8168C17.9954 12.8378 18.0472 12.847 18.0989 12.8435H21.9287C21.9807 12.847 22.0327 12.8377 22.0804 12.8166C22.128 12.7954 22.1698 12.763 22.2021 12.7221C22.2344 12.6812 22.2563 12.633 22.2659 12.5818C22.2754 12.5306 22.2724 12.4778 22.257 12.428L20.1998 3.6896Z" fill="#231F20"/>
<path d="M39.7159 19.4972C39.5893 19.4905 39.4665 19.4515 39.3592 19.384C39.2519 19.3165 39.1637 19.2227 39.1028 19.1115L32.9036 6.25418C32.8509 6.11354 32.7731 5.98363 32.674 5.87076C32.6265 6.00779 32.6108 6.15381 32.6281 6.2978L32.6878 19.077C32.6866 19.1893 32.641 19.2965 32.5609 19.3752C32.4809 19.454 32.373 19.4978 32.2607 19.4972H29.5721C29.459 19.4966 29.3507 19.4514 29.2708 19.3715C29.1908 19.2915 29.1456 19.1832 29.145 19.0702V0.619924C29.1456 0.50685 29.1908 0.398579 29.2708 0.318623C29.3507 0.238666 29.459 0.19348 29.5721 0.192877H33.2021C33.3281 0.199515 33.4502 0.23849 33.5568 0.306048C33.6634 0.373606 33.7508 0.46747 33.8105 0.578597L39.9569 13.5231C40.009 13.6641 40.0869 13.7941 40.1865 13.9066C40.2328 13.7701 40.2485 13.6251 40.2325 13.4818L40.2026 0.624516C40.202 0.567856 40.2127 0.511642 40.234 0.459148C40.2553 0.406654 40.2869 0.35893 40.3269 0.318756C40.3668 0.278583 40.4144 0.246764 40.4668 0.225152C40.5191 0.203541 40.5753 0.192569 40.632 0.192877H43.1805C43.2936 0.19348 43.4019 0.238666 43.4819 0.318623C43.5618 0.398579 43.607 0.50685 43.6076 0.619924V19.0702C43.607 19.1832 43.5618 19.2915 43.4819 19.3715C43.4019 19.4514 43.2936 19.4966 43.1805 19.4972H39.7159Z" fill="#231F20"/>
<path d="M54.3415 2.98474C54.2282 2.98474 54.1196 3.02974 54.0395 3.10982C53.9594 3.18991 53.9144 3.29853 53.9144 3.41179V19.0701C53.9138 19.1832 53.8686 19.2915 53.7887 19.3714C53.7087 19.4514 53.6004 19.4966 53.4873 19.4972H50.4796C50.3665 19.4966 50.2582 19.4514 50.1783 19.3714C50.0983 19.2915 50.0531 19.1832 50.0525 19.0701V3.40031C50.0489 3.28924 50.0025 3.18388 49.9228 3.10638C49.8432 3.02888 49.7366 2.98528 49.6255 2.98474H46.1286C46.0154 2.98474 45.9067 2.93975 45.8267 2.85966C45.7466 2.77958 45.7016 2.67096 45.7016 2.5577V0.619917C45.7016 0.506658 45.7466 0.398037 45.8267 0.31795C45.9067 0.237863 46.0154 0.192871 46.1286 0.192871H57.8383C57.9514 0.193474 58.0596 0.23866 58.1396 0.318616C58.2196 0.398573 58.2647 0.506844 58.2653 0.619917V2.54622C58.2669 2.60326 58.257 2.66002 58.2362 2.71317C58.2154 2.76631 58.1842 2.81475 58.1444 2.85563C58.1046 2.89651 58.057 2.929 58.0044 2.95117C57.9518 2.97335 57.8953 2.98476 57.8383 2.98474H54.3415Z" fill="#231F20"/>
<path d="M61.0803 19.4972C60.967 19.4972 60.8584 19.4522 60.7783 19.3721C60.6982 19.292 60.6532 19.1834 60.6532 19.0701V0.619917C60.6532 0.506658 60.6982 0.398037 60.7783 0.31795C60.8584 0.237863 60.967 0.192871 61.0803 0.192871H70.6041C70.7172 0.193474 70.8255 0.23866 70.9054 0.318616C70.9854 0.398573 71.0306 0.506844 71.0312 0.619917V2.65642C71.0306 2.7695 70.9854 2.87777 70.9054 2.95772C70.8255 3.03768 70.7172 3.08286 70.6041 3.08347H64.8411C64.7843 3.08225 64.7278 3.09239 64.6749 3.1133C64.622 3.13421 64.5738 3.16548 64.5332 3.20525C64.4926 3.24503 64.4603 3.29252 64.4383 3.34494C64.4162 3.39736 64.4049 3.45365 64.4049 3.51051V7.78097C64.4049 7.83706 64.4159 7.89259 64.4374 7.9444C64.4589 7.99621 64.4903 8.04329 64.53 8.08294C64.5696 8.1226 64.6167 8.15405 64.6685 8.17551C64.7203 8.19698 64.7759 8.20802 64.8319 8.20802H70.0967C70.1528 8.20802 70.2083 8.21907 70.2601 8.24053C70.3119 8.26199 70.359 8.29345 70.3987 8.3331C70.4383 8.37276 70.4698 8.41983 70.4913 8.47164C70.5127 8.52346 70.5238 8.57899 70.5238 8.63507V10.4535C70.5238 10.5095 70.5127 10.5651 70.4913 10.6169C70.4698 10.6687 70.4383 10.7158 70.3987 10.7554C70.359 10.7951 70.3119 10.8265 70.2601 10.848C70.2083 10.8695 70.1528 10.8805 70.0967 10.8805H64.8411C64.7844 10.8796 64.728 10.8899 64.6752 10.911C64.6225 10.932 64.5745 10.9633 64.5339 11.003C64.4933 11.0427 64.461 11.0901 64.4389 11.1423C64.4167 11.1946 64.4052 11.2508 64.4049 11.3075V16.152C64.4055 16.2651 64.4507 16.3733 64.5306 16.4533C64.6106 16.5333 64.7189 16.5784 64.8319 16.579H70.9164C71.0296 16.579 71.1383 16.624 71.2184 16.7041C71.2984 16.7842 71.3434 16.8928 71.3434 17.0061V19.0724C71.3428 19.1855 71.2976 19.2938 71.2177 19.3737C71.1377 19.4537 71.0295 19.4989 70.9164 19.4995L61.0803 19.4972Z" fill="#231F20"/>
<path d="M83.5238 19.4972C83.3987 19.4904 83.2777 19.4507 83.1729 19.3822C83.0681 19.3137 82.9832 19.2187 82.9268 19.1069L79.6688 11.6542C79.6129 11.5418 79.5282 11.4463 79.4233 11.3773C79.3184 11.3083 79.1971 11.2684 79.0718 11.2616H77.7332C77.6202 11.2622 77.5119 11.3074 77.4319 11.3874C77.352 11.4673 77.3068 11.5756 77.3062 11.6887V19.0701C77.3056 19.1832 77.2604 19.2915 77.1804 19.3714C77.1005 19.4514 76.9922 19.4966 76.8791 19.4972H73.9379C73.8248 19.4966 73.7166 19.4514 73.6366 19.3714C73.5567 19.2915 73.5115 19.1832 73.5109 19.0701V0.619917C73.5115 0.506844 73.5567 0.398573 73.6366 0.318616C73.7166 0.23866 73.8248 0.193474 73.9379 0.192871H79.6917C79.9213 0.192871 80.3117 0.204351 80.5458 0.218127C81.2944 0.259016 82.0388 0.355714 82.773 0.507416C83.5234 0.691578 84.2272 1.03016 84.8394 1.50156C85.427 1.95614 85.899 2.54297 86.217 3.21434C86.5623 3.99513 86.7301 4.84279 86.7084 5.69626C86.721 6.37115 86.604 7.0422 86.3639 7.67307C86.1589 8.2045 85.8655 8.69743 85.496 9.13099C85.1621 9.51811 84.7655 9.84641 84.3228 10.1022C84.0488 10.2562 83.7604 10.3831 83.4618 10.481C83.4097 10.495 83.3613 10.5204 83.3203 10.5555C83.2792 10.5905 83.2465 10.6342 83.2245 10.6835C83.2025 10.7328 83.1918 10.7863 83.1931 10.8403C83.1945 10.8942 83.2078 10.9472 83.2322 10.9953L87.0252 19.1092C87.0516 19.1497 87.0658 19.197 87.0661 19.2454C87.0664 19.2937 87.0528 19.3412 87.0269 19.382C87.001 19.4229 86.964 19.4555 86.9201 19.4759C86.8763 19.4963 86.8275 19.5037 86.7795 19.4972H83.5238ZM82.835 5.86386C82.853 5.36622 82.7531 4.87136 82.5434 4.41971C82.3664 4.06001 82.102 3.75053 81.7742 3.5197C81.4519 3.30117 81.0912 3.14538 80.7112 3.06051C80.4631 3.00515 80.2115 2.96756 79.9581 2.94801C79.7285 2.93653 79.3404 2.92505 79.1062 2.92505H77.7286C77.6158 2.92505 77.5075 2.96972 77.4275 3.04931C77.3474 3.1289 77.3022 3.23694 77.3016 3.3498V8.43532C77.3016 8.54858 77.3466 8.6572 77.4267 8.73729C77.5068 8.81737 77.6154 8.86237 77.7286 8.86237H79.1062C79.3903 8.85856 79.674 8.83863 79.9558 8.80267C79.9558 8.80267 81.2829 8.6144 81.9051 8.11389C82.5273 7.61337 82.835 6.86489 82.835 5.86386Z" fill="#231F20"/>
<path d="M99.6854 19.4972C99.5592 19.4901 99.4369 19.4509 99.3301 19.3835C99.2232 19.316 99.1353 19.2224 99.0747 19.1115L92.8755 6.25418C92.8227 6.11354 92.7449 5.98363 92.6458 5.87076C92.5983 6.00777 92.5818 6.15364 92.5976 6.2978L92.6458 19.0702C92.6459 19.183 92.6012 19.2913 92.5216 19.3713C92.442 19.4513 92.334 19.4966 92.2211 19.4972H89.5439C89.4309 19.4966 89.3226 19.4514 89.2426 19.3715C89.1627 19.2915 89.1175 19.1832 89.1169 19.0702V0.619924C89.1175 0.50685 89.1627 0.398579 89.2426 0.318623C89.3226 0.238667 89.4309 0.193481 89.5439 0.192878H93.1739C93.3019 0.197565 93.4265 0.235625 93.5352 0.303284C93.6439 0.370943 93.7331 0.465851 93.7939 0.578597L99.9265 13.5232C99.9805 13.6632 100.058 13.7929 100.156 13.9066C100.204 13.7704 100.22 13.6252 100.204 13.4818L100.174 0.624516C100.174 0.567966 100.184 0.511803 100.205 0.45932C100.226 0.406838 100.257 0.359093 100.297 0.318888C100.337 0.278683 100.384 0.246826 100.437 0.225188C100.489 0.203549 100.545 0.192564 100.602 0.192878H103.152C103.265 0.193481 103.374 0.238667 103.454 0.318623C103.534 0.398579 103.579 0.50685 103.579 0.619924V19.0702C103.579 19.1832 103.534 19.2915 103.454 19.3715C103.374 19.4514 103.265 19.4966 103.152 19.4972H99.6854Z" fill="#231F20"/>
<path d="M122.889 5.85923C122.908 6.74812 122.73 7.6302 122.368 8.44217C122.043 9.14457 121.574 9.77048 120.99 10.2789C120.425 10.7731 119.764 11.1472 119.05 11.3787C118.458 11.5438 117.851 11.6514 117.238 11.7001C116.986 11.7185 116.575 11.7346 116.32 11.7346H114.589C114.467 11.7346 114.35 11.7829 114.264 11.8691C114.178 11.9552 114.13 12.072 114.13 12.1938V19.038C114.13 19.1598 114.081 19.2766 113.995 19.3627C113.909 19.4488 113.792 19.4972 113.67 19.4972H110.853C110.731 19.4972 110.615 19.4488 110.529 19.3627C110.442 19.2766 110.394 19.1598 110.394 19.038V0.606101C110.394 0.484317 110.442 0.36752 110.529 0.281405C110.615 0.19529 110.731 0.146912 110.853 0.146912H116.118C116.371 0.146912 116.784 0.160687 117.036 0.176759C117.625 0.215982 118.209 0.297313 118.786 0.420129C119.522 0.591483 120.214 0.912718 120.82 1.36376C121.441 1.8326 121.948 2.4343 122.306 3.12476C122.721 3.9748 122.921 4.91375 122.889 5.85923ZM119.314 5.90056C119.314 4.86738 119.029 4.11431 118.46 3.64134C117.89 3.18215 116.731 3.00077 116.731 3.00077C116.427 2.96006 116.12 2.93783 115.813 2.93419H114.58C114.458 2.93419 114.341 2.98257 114.255 3.06869C114.169 3.1548 114.12 3.2716 114.12 3.39338V8.5983C114.12 8.72008 114.169 8.83688 114.255 8.92299C114.341 9.00911 114.458 9.05749 114.58 9.05749H115.813C116.12 9.05309 116.427 9.02777 116.731 8.98172C116.731 8.98172 117.89 8.78886 118.46 8.2539C119.029 7.71895 119.314 6.93373 119.314 5.90056Z" fill="#231F20"/>
<path d="M125.991 19.5156C125.869 19.5156 125.752 19.4672 125.666 19.3811C125.58 19.295 125.532 19.1782 125.532 19.0564V0.617637C125.532 0.495852 125.58 0.379055 125.666 0.292941C125.752 0.206826 125.869 0.158447 125.991 0.158447H128.9C129.022 0.158447 129.138 0.206826 129.225 0.292941C129.311 0.379055 129.359 0.495852 129.359 0.617637V16.0166C129.359 16.1383 129.407 16.2551 129.494 16.3413C129.58 16.4274 129.696 16.4757 129.818 16.4757H135.069C135.191 16.4757 135.308 16.5241 135.394 16.6102C135.48 16.6964 135.528 16.8131 135.528 16.9349V19.0564C135.528 19.1782 135.48 19.295 135.394 19.3811C135.308 19.4672 135.191 19.5156 135.069 19.5156H125.991Z" fill="#231F20"/>
<path d="M149.215 19.4972C149.085 19.4917 148.96 19.4465 148.856 19.3676C148.753 19.2888 148.676 19.1802 148.636 19.0563L147.768 15.842C147.729 15.7178 147.652 15.6086 147.549 15.5294C147.445 15.4501 147.32 15.4046 147.19 15.3989H142.224C142.093 15.4044 141.967 15.4499 141.864 15.5291C141.76 15.6084 141.683 15.7176 141.643 15.842L140.75 19.0563C140.709 19.1793 140.632 19.2872 140.53 19.3658C140.427 19.4445 140.303 19.4902 140.173 19.4972H137.289C137.235 19.5009 137.18 19.4909 137.13 19.4681C137.081 19.4453 137.037 19.4104 137.004 19.3666C136.972 19.3228 136.95 19.2714 136.942 19.2173C136.934 19.1631 136.94 19.1077 136.959 19.0563L142.272 0.587734C142.313 0.463538 142.391 0.354857 142.496 0.276121C142.6 0.197386 142.727 0.152321 142.857 0.146912H146.779C146.909 0.152777 147.035 0.198051 147.139 0.276755C147.243 0.355459 147.321 0.463891 147.362 0.587734L152.585 19.0563C152.604 19.1083 152.61 19.1641 152.602 19.2188C152.594 19.2734 152.572 19.3251 152.539 19.3692C152.505 19.4133 152.461 19.4483 152.411 19.4711C152.361 19.4938 152.305 19.5036 152.25 19.4995L149.215 19.4972ZM144.912 3.67349C144.853 3.42782 144.774 3.22807 144.738 3.22807C144.646 3.36101 144.586 3.5135 144.563 3.67349L142.352 12.3751C142.333 12.4285 142.328 12.4857 142.337 12.5417C142.346 12.5976 142.368 12.6504 142.403 12.6954C142.437 12.7403 142.482 12.7759 142.534 12.799C142.586 12.8221 142.642 12.8318 142.699 12.8274H146.715C146.77 12.8308 146.826 12.8206 146.876 12.7977C146.927 12.7748 146.971 12.74 147.005 12.6961C147.039 12.6522 147.062 12.6007 147.072 12.546C147.082 12.4913 147.078 12.435 147.061 12.382L144.912 3.67349Z" fill="#231F20"/>
<path d="M160.541 2.94802C160.419 2.94802 160.303 2.9964 160.217 3.08252C160.13 3.16863 160.082 3.28543 160.082 3.40721V19.0564C160.082 19.1782 160.034 19.295 159.948 19.3811C159.861 19.4672 159.745 19.5156 159.623 19.5156H156.808C156.686 19.5156 156.569 19.4672 156.483 19.3811C156.397 19.295 156.349 19.1782 156.349 19.0564V3.40721C156.349 3.28543 156.3 3.16863 156.214 3.08252C156.128 2.9964 156.011 2.94802 155.89 2.94802H152.599C152.478 2.94802 152.361 2.89964 152.275 2.81353C152.188 2.72742 152.14 2.61062 152.14 2.48883V0.617637C152.14 0.495852 152.188 0.379055 152.275 0.292941C152.361 0.206826 152.478 0.158447 152.599 0.158447H163.822C163.944 0.158447 164.061 0.206826 164.147 0.292941C164.233 0.379055 164.281 0.495852 164.281 0.617637V2.48883C164.281 2.61062 164.233 2.72742 164.147 2.81353C164.061 2.89964 163.944 2.94802 163.822 2.94802H160.541Z" fill="#231F20"/>
<path d="M167.356 19.5156C167.234 19.5156 167.117 19.4672 167.031 19.3811C166.945 19.295 166.897 19.1782 166.897 19.0564V0.617637C166.897 0.495852 166.945 0.379055 167.031 0.292941C167.117 0.206826 167.234 0.158447 167.356 0.158447H170.233C170.354 0.158447 170.471 0.206826 170.557 0.292941C170.644 0.379055 170.692 0.495852 170.692 0.617637V19.0564C170.692 19.1782 170.644 19.295 170.557 19.3811C170.471 19.4672 170.354 19.5156 170.233 19.5156H167.356Z" fill="#231F20"/>
<path d="M183.582 19.5156C183.446 19.5087 183.315 19.4668 183.201 19.3939C183.086 19.3211 182.993 19.2198 182.93 19.1L176.96 6.26796C176.903 6.11652 176.821 5.97539 176.719 5.8501C176.674 5.99872 176.658 6.1547 176.673 6.30929L176.73 19.0564C176.73 19.1782 176.682 19.295 176.596 19.3811C176.51 19.4672 176.393 19.5156 176.271 19.5156H173.775C173.654 19.5156 173.537 19.4672 173.451 19.3811C173.365 19.295 173.316 19.1782 173.316 19.0564V0.617637C173.316 0.495852 173.365 0.379055 173.451 0.292941C173.537 0.206826 173.654 0.158447 173.775 0.158447H177.192C177.327 0.165744 177.458 0.208106 177.572 0.281369C177.686 0.354632 177.779 0.456275 177.842 0.57631L183.754 13.4887C183.808 13.6392 183.885 13.7803 183.984 13.9066C184.029 13.758 184.044 13.602 184.029 13.4474L184 0.617637C184 0.495852 184.048 0.379055 184.134 0.292941C184.22 0.206826 184.337 0.158447 184.459 0.158447H186.831C186.952 0.158447 187.069 0.206826 187.155 0.292941C187.241 0.379055 187.29 0.495852 187.29 0.617637V19.0564C187.29 19.1782 187.241 19.295 187.155 19.3811C187.069 19.4672 186.952 19.5156 186.831 19.5156H183.582Z" fill="#231F20"/>
<path d="M203.509 15.5183C203.272 16.378 202.85 17.1756 202.274 17.8556C201.674 18.5434 200.921 19.0812 200.076 19.426C199.035 19.8355 197.921 20.0307 196.802 20C195.688 20.0324 194.58 19.8371 193.544 19.426C192.707 19.0818 191.963 18.5435 191.374 17.8556C190.807 17.1742 190.396 16.3763 190.171 15.5183C189.997 14.7247 189.885 13.9186 189.836 13.1076C189.82 12.855 189.808 12.4418 189.808 12.1892V0.617637C189.808 0.495852 189.857 0.379055 189.943 0.292941C190.029 0.206826 190.146 0.158447 190.268 0.158447H193.145C193.266 0.158447 193.383 0.206826 193.469 0.292941C193.555 0.379055 193.604 0.495852 193.604 0.617637V11.8884C193.604 12.141 193.604 12.5543 193.622 12.8068C193.641 13.2342 193.683 13.6603 193.746 14.0834C193.826 14.5975 193.998 15.0929 194.254 15.5459C194.491 15.9617 194.835 16.3065 195.25 16.5446C195.753 16.7865 196.305 16.912 196.863 16.912C197.421 16.912 197.973 16.7865 198.476 16.5446C198.891 16.3059 199.235 15.9612 199.472 15.5459C199.727 15.0924 199.898 14.5971 199.978 14.0834C200.042 13.6605 200.084 13.2343 200.102 12.8068C200.113 12.5543 200.12 12.141 200.12 11.8884V0.617637C200.12 0.495852 200.168 0.379055 200.254 0.292941C200.34 0.206826 200.457 0.158447 200.579 0.158447H203.426C203.548 0.158447 203.665 0.206826 203.751 0.292941C203.837 0.379055 203.885 0.495852 203.885 0.617637V12.1892C203.885 12.4418 203.872 12.855 203.855 13.1076C203.806 13.9193 203.69 14.7256 203.509 15.5183Z" fill="#231F20"/>
<path d="M222.182 19.5156C222.06 19.5156 221.944 19.4672 221.858 19.3811C221.771 19.295 221.723 19.1782 221.723 19.0564L221.783 5.10621C221.8 4.95162 221.785 4.7951 221.737 4.64702C221.652 4.78246 221.591 4.93163 221.558 5.08784L217.333 19.0793C217.289 19.2027 217.209 19.3101 217.103 19.3878C216.998 19.4655 216.872 19.51 216.741 19.5156H214.674C214.547 19.5059 214.426 19.4595 214.325 19.3821C214.224 19.3046 214.147 19.1994 214.105 19.0793L209.972 5.09243C209.939 4.93589 209.879 4.78654 209.793 4.65161C209.748 4.80023 209.732 4.95621 209.747 5.1108L209.795 19.0564C209.795 19.1782 209.747 19.295 209.661 19.3811C209.575 19.4672 209.458 19.5156 209.336 19.5156H206.81C206.689 19.5156 206.572 19.4672 206.486 19.3811C206.4 19.295 206.351 19.1782 206.351 19.0564V0.629111C206.351 0.507327 206.4 0.39053 206.486 0.304415C206.572 0.218301 206.689 0.169922 206.81 0.169922H210.987C211.118 0.175671 211.245 0.220489 211.35 0.298624C211.456 0.37676 211.535 0.484649 211.579 0.608448L215.613 13.8882C215.579 13.926 215.556 13.9731 215.548 14.0236C215.54 14.0741 215.546 14.1259 215.567 14.1727C215.588 14.2195 215.622 14.2593 215.664 14.2873C215.707 14.3152 215.757 14.3301 215.809 14.3301C215.86 14.3301 215.91 14.3152 215.953 14.2873C215.996 14.2593 216.029 14.2195 216.05 14.1727C216.071 14.1259 216.077 14.0741 216.069 14.0236C216.061 13.9731 216.038 13.926 216.004 13.8882L219.948 0.610744C219.99 0.487059 220.069 0.378901 220.173 0.300298C220.278 0.221694 220.403 0.176272 220.534 0.169922H224.965C225.087 0.169922 225.204 0.218301 225.29 0.304415C225.376 0.39053 225.424 0.507327 225.424 0.629111V19.0564C225.424 19.1782 225.376 19.295 225.29 19.3811C225.204 19.4672 225.087 19.5156 224.965 19.5156H222.182Z" fill="#231F20"/>
</g>
<defs>
<clipPath id="clip0_3885_46135">
<rect width="224.848" height="20" fill="white" transform="translate(0.575745)"/>
</clipPath>
</defs>
</svg>
