<svg width="186" height="24" viewBox="0 0 186 24" fill="none" xmlns="http://www.w3.org/2000/svg">
<path d="M0.505936 23.4354C0.371753 23.4354 0.243062 23.3821 0.14818 23.2872C0.0532982 23.1923 0 23.0636 0 22.9294V0.851728C0 0.717545 0.0532982 0.588887 0.14818 0.494005C0.243062 0.399123 0.371753 0.345825 0.505936 0.345825H4.26433C4.39852 0.345825 4.52721 0.399123 4.62209 0.494005C4.71697 0.588887 4.77027 0.717545 4.77027 0.851728V19.3105C4.77027 19.377 4.78336 19.4428 4.80878 19.5041C4.83421 19.5655 4.87148 19.6213 4.91846 19.6683C4.96544 19.7153 5.02122 19.7525 5.0826 19.778C5.14398 19.8034 5.20976 19.8165 5.27621 19.8165H11.9474C12.0816 19.8165 12.2102 19.8698 12.3051 19.9647C12.4 20.0595 12.4533 20.1882 12.4533 20.3224V22.9316C12.4533 23.0658 12.4 23.1945 12.3051 23.2894C12.2102 23.3843 12.0816 23.4376 11.9474 23.4376L0.505936 23.4354Z" fill="black"/>
<path d="M28.068 23.4354C27.925 23.4297 27.7873 23.3795 27.6742 23.2918C27.5611 23.204 27.4782 23.0832 27.437 22.9461L26.4447 19.0815C26.4035 18.9443 26.3206 18.8235 26.2075 18.7358C26.0944 18.6481 25.9567 18.5978 25.8137 18.5921H20.218C20.0747 18.598 19.9367 18.6481 19.8231 18.7356C19.7095 18.8231 19.6257 18.9437 19.5834 19.0807L18.5672 22.9454C18.5249 23.0824 18.4412 23.203 18.3275 23.2905C18.2139 23.378 18.0759 23.4281 17.9326 23.4339H14.6802C14.6195 23.4384 14.5587 23.4276 14.5032 23.4027C14.4477 23.3777 14.3993 23.3393 14.3624 23.291C14.3255 23.2426 14.3012 23.1858 14.2916 23.1258C14.2821 23.0657 14.2877 23.0042 14.3079 22.9468L20.2925 1.06137C20.3361 0.924535 20.4207 0.80442 20.5348 0.717281C20.649 0.630143 20.7872 0.580187 20.9307 0.574219H25.3547C25.4981 0.58016 25.6361 0.630227 25.7499 0.717546C25.8638 0.804865 25.9479 0.925169 25.9908 1.06208L31.8727 22.9468C31.8925 23.0044 31.8978 23.066 31.888 23.1262C31.8782 23.1863 31.8537 23.2431 31.8166 23.2914C31.7795 23.3397 31.731 23.3781 31.6755 23.4031C31.6199 23.4281 31.559 23.439 31.4983 23.4347L28.068 23.4354ZM23.2392 4.71571C23.2176 4.53901 23.1537 4.37012 23.0527 4.22349C22.9509 4.36969 22.886 4.53828 22.8633 4.71496L20.3647 15.0672C20.3468 15.1259 20.3433 15.1881 20.3546 15.2484C20.3659 15.3088 20.3916 15.3656 20.4296 15.4138C20.4676 15.462 20.5168 15.5003 20.5728 15.5254C20.6288 15.5506 20.6901 15.5617 20.7514 15.558H25.2817C25.3431 15.5615 25.4045 15.5503 25.4607 15.5251C25.5168 15.5 25.5661 15.4617 25.6043 15.4135C25.6425 15.3653 25.6685 15.3086 25.6802 15.2482C25.6919 15.1878 25.6888 15.1255 25.6713 15.0665L23.2392 4.71571Z" fill="black"/>
<path d="M46.3497 23.4354C46.2005 23.427 46.0559 23.3808 45.9295 23.3012C45.803 23.2215 45.6989 23.111 45.627 22.98L38.2786 7.7455C38.2138 7.57847 38.1198 7.42429 38.001 7.29015C37.9446 7.45244 37.9253 7.62535 37.9446 7.79609L38.0169 22.9302C38.0169 22.9966 38.0038 23.0624 37.9784 23.1238C37.953 23.1852 37.9157 23.2409 37.8687 23.2879C37.8218 23.3349 37.766 23.3722 37.7046 23.3976C37.6432 23.423 37.5774 23.4361 37.511 23.4361H34.3373C34.2709 23.4361 34.2051 23.423 34.1437 23.3976C34.0823 23.3722 34.0265 23.3349 33.9796 23.2879C33.9326 23.2409 33.8953 23.1852 33.8699 23.1238C33.8444 23.0624 33.8314 22.9966 33.8314 22.9302V1.08013C33.8314 0.945947 33.8847 0.817245 33.9796 0.722363C34.0744 0.627481 34.2031 0.574183 34.3373 0.574183H38.6349C38.7843 0.582021 38.9292 0.628088 39.0558 0.707938C39.1823 0.787788 39.2863 0.898781 39.3576 1.03028L46.6345 16.3587C46.6983 16.5258 46.7913 16.6803 46.9092 16.8148C46.9655 16.6525 46.985 16.4797 46.9662 16.3089L46.9301 1.07797C46.9301 0.943785 46.9834 0.815083 47.0783 0.720201C47.1732 0.62532 47.3019 0.572021 47.436 0.572021H50.455C50.5892 0.572021 50.7179 0.62532 50.8128 0.720201C50.9077 0.815083 50.961 0.943785 50.961 1.07797V22.928C50.961 23.0622 50.9077 23.1909 50.8128 23.2857C50.7179 23.3806 50.5892 23.4339 50.455 23.4339L46.3497 23.4354Z" fill="black"/>
<path d="M63.6695 3.86781C63.5353 3.86781 63.4066 3.92111 63.3117 4.01599C63.2168 4.11087 63.1635 4.23958 63.1635 4.37376V22.9301C63.1635 23.0643 63.1102 23.193 63.0153 23.2879C62.9204 23.3827 62.7917 23.4361 62.6576 23.4361H59.1008C58.9666 23.4361 58.838 23.3827 58.7431 23.2879C58.6482 23.193 58.5949 23.0643 58.5949 22.9301V4.37014C58.5949 4.3037 58.5818 4.23791 58.5564 4.17652C58.5309 4.11514 58.4937 4.05935 58.4467 4.01237C58.3997 3.96539 58.344 3.92813 58.2826 3.90271C58.2212 3.87728 58.1554 3.86419 58.089 3.86419H53.946C53.8119 3.86419 53.6832 3.8109 53.5883 3.71601C53.4934 3.62113 53.4401 3.49243 53.4401 3.35825V1.07577C53.4401 1.00933 53.4532 0.943537 53.4786 0.882154C53.504 0.82077 53.5413 0.764985 53.5883 0.718004C53.6353 0.671024 53.691 0.633762 53.7524 0.608336C53.8138 0.58291 53.8796 0.569824 53.946 0.569824H67.8145C67.881 0.569824 67.9468 0.58291 68.0081 0.608336C68.0695 0.633762 68.1253 0.671024 68.1723 0.718004C68.2193 0.764985 68.2565 0.82077 68.282 0.882154C68.3074 0.943537 68.3205 1.00933 68.3205 1.07577V3.35825C68.3205 3.49243 68.2672 3.62113 68.1723 3.71601C68.0774 3.8109 67.9487 3.86419 67.8145 3.86419L63.6695 3.86781Z" fill="black"/>
<path d="M71.6495 23.4354C71.5154 23.4354 71.3867 23.3821 71.2918 23.2872C71.1969 23.1923 71.1436 23.0636 71.1436 22.9295V1.08017C71.1436 0.945983 71.1969 0.817281 71.2918 0.722399C71.3867 0.627517 71.5154 0.574219 71.6495 0.574219H82.9247C83.0589 0.574219 83.1876 0.627517 83.2825 0.722399C83.3774 0.817281 83.4307 0.945983 83.4307 1.08017V3.49203C83.4307 3.62621 83.3774 3.75491 83.2825 3.8498C83.1876 3.94468 83.0589 3.99798 82.9247 3.99798H76.1054C75.9712 3.99798 75.8426 4.05127 75.7477 4.14616C75.6528 4.24104 75.5995 4.36974 75.5995 4.50392V9.56331C75.5995 9.69749 75.6528 9.82619 75.7477 9.92107C75.8426 10.016 75.9712 10.0693 76.1054 10.0693H82.34C82.4065 10.0693 82.4723 10.0823 82.5337 10.1078C82.595 10.1332 82.6508 10.1705 82.6978 10.2174C82.7448 10.2644 82.782 10.3202 82.8075 10.3816C82.8329 10.443 82.846 10.5088 82.846 10.5752V12.729C82.846 12.8632 82.7927 12.9919 82.6978 13.0868C82.6029 13.1817 82.4742 13.235 82.34 13.235H76.1054C76.039 13.235 75.9732 13.2481 75.9118 13.2735C75.8504 13.2989 75.7947 13.3362 75.7477 13.3832C75.7007 13.4301 75.6634 13.4859 75.638 13.5473C75.6126 13.6087 75.5995 13.6745 75.5995 13.7409V19.4761C75.5995 19.6103 75.6528 19.7389 75.7477 19.8338C75.8426 19.9287 75.9712 19.982 76.1054 19.982H83.3093C83.4435 19.982 83.5721 20.0353 83.667 20.1302C83.7619 20.2251 83.8152 20.3538 83.8152 20.488V22.9331C83.8152 23.0673 83.7619 23.196 83.667 23.2908C83.5721 23.3857 83.4435 23.439 83.3093 23.439L71.6495 23.4354Z" fill="black"/>
<path d="M98.2286 23.4354C98.0803 23.4276 97.9366 23.3806 97.8123 23.2992C97.688 23.2178 97.5875 23.105 97.521 22.9721L93.6636 14.1471C93.5971 14.0143 93.4966 13.9016 93.3723 13.8203C93.248 13.739 93.1043 13.6922 92.956 13.6846H91.3703C91.2361 13.6846 91.1074 13.7379 91.0125 13.8327C90.9176 13.9276 90.8643 14.0563 90.8643 14.1905V22.9309C90.8643 23.0651 90.811 23.1938 90.7162 23.2887C90.6213 23.3836 90.4926 23.4369 90.3584 23.4369H86.8746C86.7405 23.4369 86.6118 23.3836 86.5169 23.2887C86.422 23.1938 86.3687 23.0651 86.3687 22.9309V1.08017C86.3687 0.945983 86.422 0.817281 86.5169 0.722399C86.6118 0.627517 86.7405 0.574219 86.8746 0.574219H93.6904C93.9679 0.574219 94.4225 0.58723 94.7022 0.602408C95.5879 0.650928 96.4688 0.765443 97.3375 0.945C98.2296 1.16308 99.0665 1.56458 99.7949 2.12387C100.483 2.6662 101.034 3.36291 101.404 4.15771C101.812 5.08204 102.01 6.08565 101.982 7.09577C101.997 7.89465 101.859 8.68904 101.576 9.43608C101.334 10.0659 100.986 10.6501 100.549 11.1635C100.158 11.619 99.6935 12.0064 99.1755 12.3098C98.8537 12.4919 98.5148 12.6418 98.1636 12.7572C98.1028 12.7749 98.0466 12.8056 97.9989 12.8474C97.9513 12.8891 97.9134 12.9407 97.8878 12.9986C97.8622 13.0566 97.8497 13.1194 97.851 13.1827C97.8523 13.246 97.8675 13.3083 97.8954 13.3651L102.389 22.9779C102.421 23.0256 102.438 23.0814 102.438 23.1386C102.439 23.1959 102.423 23.2521 102.392 23.3005C102.362 23.3489 102.318 23.3874 102.266 23.4115C102.214 23.4356 102.156 23.4441 102.1 23.4362L98.2286 23.4354ZM97.4126 7.29093C97.4337 6.70112 97.3143 6.11475 97.0643 5.58013C96.8542 5.15446 96.5412 4.78798 96.1536 4.51402C95.7724 4.25311 95.3451 4.06697 94.8945 3.96546C94.6016 3.89932 94.3042 3.85534 94.0048 3.83391C93.7272 3.81729 93.2733 3.80427 92.9929 3.80427H91.3681C91.3017 3.80427 91.2359 3.81735 91.1745 3.84278C91.1131 3.86821 91.0573 3.90547 91.0104 3.95245C90.9634 3.99943 90.9261 4.05522 90.9007 4.1166C90.8753 4.17798 90.8622 4.24378 90.8622 4.31022V10.3381C90.8622 10.4723 90.9155 10.601 91.0104 10.6959C91.1052 10.7907 91.2339 10.844 91.3681 10.844H92.9929C93.3291 10.8396 93.6648 10.8154 93.9983 10.7718C94.8159 10.6617 95.6019 10.3836 96.3068 9.95504C96.6861 9.6279 96.9836 9.21667 97.1758 8.75412C97.3679 8.29156 97.4492 7.79051 97.4134 7.29093H97.4126Z" fill="black"/>
<path d="M117.368 23.4354C117.219 23.427 117.074 23.3808 116.948 23.3012C116.822 23.2215 116.717 23.111 116.646 22.98L109.296 7.7455C109.231 7.57852 109.138 7.42436 109.019 7.29015C108.963 7.45252 108.944 7.62541 108.963 7.79609L109.035 22.9302C109.035 22.9966 109.022 23.0624 108.997 23.1238C108.972 23.1852 108.934 23.2409 108.887 23.2879C108.84 23.3349 108.785 23.3722 108.723 23.3976C108.662 23.423 108.596 23.4361 108.53 23.4361H105.356C105.289 23.4361 105.224 23.423 105.162 23.3976C105.101 23.3722 105.045 23.3349 104.998 23.2879C104.951 23.2409 104.914 23.1852 104.888 23.1238C104.863 23.0624 104.85 22.9966 104.85 22.9302V1.08013C104.85 1.01369 104.863 0.947896 104.888 0.886512C104.914 0.825129 104.951 0.769344 104.998 0.722363C105.045 0.675382 105.101 0.638121 105.162 0.612695C105.224 0.587269 105.289 0.574183 105.356 0.574183H109.652C109.801 0.582021 109.946 0.628088 110.073 0.707938C110.199 0.787788 110.303 0.898781 110.375 1.03028L117.652 16.3587C117.715 16.5258 117.808 16.6802 117.926 16.8148C117.983 16.6526 118.002 16.4797 117.983 16.3089L117.946 1.07797C117.946 1.01153 117.96 0.945734 117.985 0.884351C118.01 0.822968 118.048 0.767182 118.095 0.720201C118.142 0.673221 118.197 0.635959 118.259 0.610533C118.32 0.585108 118.386 0.572021 118.452 0.572021H121.472C121.606 0.572021 121.735 0.62532 121.83 0.720201C121.925 0.815083 121.978 0.943785 121.978 1.07797V22.928C121.978 23.0622 121.925 23.1909 121.83 23.2857C121.735 23.3806 121.606 23.4339 121.472 23.4339L117.368 23.4354Z" fill="black"/>
<path d="M145.331 7.32565C145.355 8.3774 145.136 9.42046 144.693 10.3743C144.293 11.2117 143.719 11.9542 143.009 12.552C142.303 13.1377 141.487 13.5763 140.61 13.8421C139.847 14.0398 139.069 14.1688 138.284 14.2274C138.03 14.2462 137.614 14.2614 137.36 14.2614H135.033C134.91 14.2617 134.793 14.3106 134.706 14.3972C134.619 14.4839 134.571 14.6013 134.57 14.7239V22.9635C134.57 23.0861 134.521 23.2037 134.434 23.2904C134.348 23.3771 134.23 23.4259 134.108 23.4261H130.448C130.326 23.4259 130.208 23.3771 130.121 23.2904C130.035 23.2037 129.986 23.0861 129.986 22.9635V1.04911C129.986 0.926615 130.035 0.809263 130.122 0.722711C130.208 0.63616 130.326 0.587471 130.448 0.58728H137.118C137.372 0.58728 137.788 0.599541 138.042 0.614719C138.798 0.662164 139.55 0.7607 140.293 0.909624C141.192 1.11097 142.041 1.48935 142.792 2.02267C143.547 2.57133 144.169 3.28243 144.613 4.10354C145.123 5.09904 145.37 6.20801 145.331 7.32565ZM140.942 7.3748C140.986 6.87958 140.914 6.38093 140.732 5.91828C140.55 5.45562 140.263 5.04168 139.893 4.70923C139.213 4.30414 138.456 4.04196 137.671 3.93873C137.366 3.89964 137.058 3.87817 136.751 3.87441H135.033C134.911 3.87461 134.794 3.92329 134.707 4.00985C134.62 4.0964 134.571 4.21379 134.571 4.33629V10.6381C134.571 10.7607 134.62 10.8782 134.707 10.965C134.793 11.0517 134.911 11.1005 135.033 11.1006H136.751C137.058 11.0966 137.365 11.0725 137.669 11.0284C138.467 10.9077 139.227 10.6087 139.893 10.1538C140.258 9.79373 140.541 9.3589 140.722 8.87918C140.903 8.39947 140.978 7.88626 140.942 7.3748Z" fill="black"/>
<path d="M159.699 23.4224C159.563 23.4158 159.431 23.3731 159.317 23.2986C159.203 23.2242 159.11 23.1208 159.049 22.9989L155.146 14.1038C155.085 13.9819 154.992 13.8784 154.878 13.804C154.764 13.7296 154.632 13.6869 154.496 13.6802H152.827C152.704 13.6806 152.587 13.7295 152.5 13.8161C152.413 13.9028 152.364 14.0202 152.364 14.1428V22.9606C152.364 23.0831 152.315 23.2005 152.229 23.2872C152.142 23.3739 152.025 23.4227 151.902 23.4231H148.321C148.198 23.4229 148.081 23.3741 147.994 23.2874C147.907 23.2007 147.859 23.0832 147.858 22.9606V1.04623C147.859 0.92373 147.908 0.806333 147.994 0.719782C148.081 0.63323 148.198 0.584541 148.321 0.584351H155.243C155.497 0.584351 155.913 0.595923 156.167 0.610378C157.069 0.659364 157.966 0.774587 158.852 0.955131C159.747 1.17253 160.587 1.57349 161.318 2.13254C162.008 2.67436 162.56 3.37057 162.93 4.16498C163.34 5.08807 163.539 6.09104 163.513 7.10083C163.528 7.89936 163.389 8.69337 163.105 9.43973C162.862 10.0691 162.514 10.6527 162.076 11.1657C161.682 11.6198 161.215 12.0052 160.694 12.3062C160.358 12.4933 160.006 12.6473 159.64 12.7659C159.584 12.7814 159.532 12.8091 159.488 12.847C159.444 12.885 159.409 12.9322 159.386 12.9853C159.363 13.0385 159.351 13.0961 159.353 13.1542C159.354 13.2122 159.369 13.2692 159.395 13.321L163.936 23.0032C163.965 23.0469 163.981 23.0982 163.981 23.1507C163.982 23.2032 163.967 23.2547 163.939 23.2991C163.911 23.3434 163.87 23.3786 163.822 23.4004C163.775 23.4222 163.722 23.4296 163.67 23.4217L159.699 23.4224ZM158.927 7.29312C158.948 6.70364 158.828 6.11764 158.577 5.58374C158.366 5.15826 158.052 4.79229 157.664 4.51913C157.282 4.25834 156.854 4.07219 156.402 3.97052C156.093 3.90254 155.779 3.85763 155.463 3.83611C155.209 3.82165 154.793 3.80937 154.539 3.80937H152.827C152.704 3.80956 152.587 3.85825 152.5 3.9448C152.413 4.03135 152.364 4.14871 152.364 4.27121V10.3793C152.364 10.5018 152.413 10.6192 152.5 10.7057C152.587 10.7923 152.704 10.841 152.827 10.8412H154.543C154.851 10.8375 155.158 10.8158 155.463 10.7761C156.297 10.6656 157.1 10.386 157.822 9.95432C158.201 9.62777 158.498 9.21701 158.69 8.7549C158.882 8.29278 158.963 7.79218 158.927 7.29312Z" fill="black"/>
<path d="M185.029 11.968C185.049 13.6324 184.82 15.2904 184.349 16.8871C183.946 18.2651 183.28 19.552 182.388 20.6774C181.546 21.7216 180.476 22.56 179.261 23.129C177.954 23.7034 176.542 24 175.115 24C173.687 24 172.275 23.7034 170.968 23.129C169.761 22.5565 168.698 21.7183 167.86 20.6774C166.968 19.5522 166.302 18.2652 165.899 16.8871C165.428 15.2905 165.199 13.6324 165.219 11.968C165.199 10.3101 165.421 8.65809 165.88 7.06473C166.274 5.69153 166.933 4.40909 167.822 3.2904C168.662 2.24783 169.732 1.41412 170.949 0.854671C172.262 0.290781 173.676 0 175.105 0C176.533 0 177.947 0.290781 179.26 0.854671C180.477 1.41437 181.547 2.24804 182.387 3.2904C183.277 4.41132 183.943 5.69266 184.349 7.06473C184.82 8.65581 185.049 10.3087 185.029 11.968ZM180.212 11.968C180.218 10.868 180.108 9.77044 179.882 8.69383C179.697 7.76719 179.37 6.87484 178.911 6.04851C178.523 5.34879 177.979 4.74746 177.321 4.29074C176.673 3.85633 175.907 3.63107 175.126 3.6453C174.333 3.6273 173.554 3.85254 172.893 4.29074C172.235 4.74723 171.691 5.34861 171.303 6.04851C170.845 6.87319 170.523 7.76649 170.351 8.69383C169.936 10.8569 169.936 13.079 170.351 15.2421C170.525 16.174 170.846 17.0723 171.303 17.9034C171.688 18.6103 172.232 19.2179 172.893 19.6778C173.562 20.0992 174.336 20.3229 175.126 20.3229C175.917 20.3229 176.691 20.0992 177.36 19.6778C178.02 19.2177 178.565 18.6102 178.95 17.9034C179.405 17.0721 179.727 16.1739 179.902 15.2421C180.114 14.1639 180.218 13.067 180.212 11.968Z" fill="black"/>
</svg>
