<svg xmlns="http://www.w3.org/2000/svg" width="81" height="81" viewBox="0 0 81 81">
    <g id="prefix__Group_528" data-name="Group 528" transform="translate(17624.684 -419)">
        <circle id="prefix__Ellipse_2" cx="40.5" cy="40.5" r="40.5" data-name="Ellipse 2" transform="translate(-17624.684 419)" style="fill:#00bcd4"/>
        <path id="prefix__Path_269" d="M3683.377 1016.755l.313-6.258-7.928-3.441.21-4.381-4.142-2.3a5.061 5.061 0 1 0-8.893.227l-4.176 2.386s.5 4.175.386 4.244c-.353.2-8 2.85-8 2.85l.7 6.679.051-.011c.226 2.347 3.614 36.083 11.731 40.31a2.04 2.04 0 0 0 .61.279v-.009l1.654.779 1.523.786 3.6-1.527.19-.089a4.585 4.585 0 0 0 .642-.387c8.177-5.078 11.445-40.132 11.445-40.132l-10.769-2.071v-.015zm-16.055-22.682a4 4 0 0 1 3.592 5.793l-3.392-1.884-3.676 2.1a3.974 3.974 0 0 1-.538-2 4.018 4.018 0 0 1 4.015-4.01z" data-name="Path 269" transform="translate(-21251.604 -567.432)" style="fill:#fee600"/>
        <path id="prefix__Path_270" d="M3675.763 1007.055l.21-4.381-4.142-2.3a5.061 5.061 0 1 0-8.893.227l-4.176 2.386s.5 4.175.386 4.244c-.353.2-8 2.85-8 2.85l.7 6.679c2.686-.575 10.225-2.082 10.259-2.046a.445.445 0 0 1 .094.269l1.981 42.242v.077l1.711.806 1.523.786 3.6-1.527 1.511-42.7 10.847 2.086.313-6.258zm-12.454-8.971a4.014 4.014 0 1 1 7.606 1.781l-3.392-1.884-3.676 2.1a3.974 3.974 0 0 1-.539-1.997z" data-name="Path 270" transform="translate(-21251.604 -567.432)"/>
    </g>
</svg>
