<svg width="112" height="112" viewBox="0 0 112 112" fill="none" xmlns="http://www.w3.org/2000/svg">
<path d="M56 20L60.2924 27.5217L66.6112 21.5994L68.4958 30.0521L76.2795 26.2554L75.589 34.8881L84.1459 33.5544L80.9415 41.6L89.5115 42.8477L84.0779 49.5914L91.8993 53.3097L84.7195 58.1522L91.0974 64.0108L82.8092 66.5218L87.1769 74L78.5167 73.9565L80.4862 82.3899L72.2236 79.7957L71.6198 88.4349L64.4889 83.5205L61.3655 91.5979L56 84.8L50.6345 91.5979L47.5111 83.5205L40.3802 88.4349L39.7764 79.7957L31.5138 82.3899L33.4833 73.9565L24.8231 74L29.1908 66.5218L20.9026 64.0108L27.2805 58.1522L20.1007 53.3097L27.9221 49.5914L22.4885 42.8477L31.0585 41.6L27.8541 33.5544L36.411 34.8881L35.7205 26.2554L43.5041 30.0521L45.3888 21.5994L51.7076 27.5217L56 20Z" fill="#00BCD4"/>
<path d="M67.6092 49.4169L67.8365 44.8654L62.0709 42.3625L62.2239 39.1765L59.2112 37.5034C59.5017 36.9351 59.6396 36.301 59.6111 35.6634C59.5827 35.0257 59.389 34.4065 59.049 33.8663C58.709 33.3261 58.2343 32.8836 57.6717 32.5822C57.1091 32.2808 56.4779 32.1308 55.8398 32.1469C55.2018 32.1631 54.5789 32.3448 54.0323 32.6743C53.4856 33.0038 53.0341 33.4697 52.7219 34.0264C52.4097 34.5831 52.2475 35.2113 52.2513 35.8496C52.2551 36.4878 52.4248 37.1141 52.7437 37.667L49.7065 39.4024C49.7065 39.4024 50.0722 42.4387 49.9871 42.4886C49.731 42.635 44.1689 44.561 44.1689 44.561L44.6803 49.4185L44.7173 49.4103C44.8809 51.1171 47.3452 75.6528 53.2492 78.7267C53.3849 78.8183 53.5347 78.8868 53.6927 78.9295V78.923L54.8954 79.4892L56.0032 80.0619L58.6214 78.9516L58.7596 78.887C58.9226 78.8058 59.0789 78.7117 59.2268 78.6055C65.1733 74.9122 67.5502 49.4185 67.5502 49.4185L59.7186 47.9123V47.9016L67.6092 49.4169ZM55.9329 32.9207C56.4297 32.9195 56.9187 33.0454 57.3531 33.2865C57.7876 33.5275 58.153 33.8758 58.4148 34.298C58.6767 34.7203 58.8262 35.2025 58.8491 35.6988C58.8719 36.1951 58.7672 36.689 58.5453 37.1335L56.0785 35.7631L53.4046 37.2906C53.1483 36.8474 53.0133 36.3445 53.0133 35.8325C53.0134 35.3205 53.1485 34.8176 53.4049 34.3744C53.6612 33.9312 54.0299 33.5635 54.4737 33.3083C54.9176 33.0531 55.4209 32.9194 55.9329 32.9207Z" fill="#FEE600"/>
<path d="M62.0677 42.3657L62.2207 39.1798L59.2081 37.5065C59.4986 36.9382 59.6364 36.3042 59.608 35.6666C59.5795 35.029 59.3856 34.4097 59.0457 33.8695C58.7057 33.3293 58.2312 32.8868 57.6686 32.5854C57.106 32.284 56.4747 32.134 55.8366 32.1501C55.1986 32.1662 54.5757 32.348 54.0291 32.6775C53.4825 33.007 53.0308 33.4729 52.7185 34.0296C52.4063 34.5862 52.2441 35.2145 52.2479 35.8527C52.2517 36.491 52.4214 37.1173 52.7403 37.6702L49.7033 39.4056C49.7033 39.4056 50.069 42.4418 49.9839 42.4917C49.7278 42.6382 44.1658 44.5642 44.1658 44.5642L44.6771 49.4218C46.631 49.0037 52.1137 47.9073 52.1382 47.9335C52.1817 47.9895 52.2058 48.0581 52.207 48.129C52.2585 49.2409 53.6478 78.8509 53.6478 78.8509V78.9066L54.8922 79.4923L56 80.0651L58.6182 78.9548L59.717 47.9024L67.6058 49.4193L67.8333 44.8677L62.0677 42.3657ZM53.0104 35.8416C53.0092 35.401 53.1079 34.9658 53.2988 34.5688C53.4897 34.1717 53.7679 33.823 54.1128 33.5489C54.4577 33.2747 54.8602 33.0821 55.2901 32.9856C55.72 32.8891 56.1661 32.8911 56.5951 32.9916C57.0241 33.092 57.4247 33.2883 57.767 33.5656C58.1094 33.8429 58.3845 34.1941 58.5718 34.5929C58.7591 34.9917 58.8539 35.4277 58.8487 35.8682C58.8435 36.3088 58.7387 36.7425 58.5421 37.1367L56.0751 35.7663L53.4015 37.2939C53.1449 36.8517 53.0099 36.3495 53.0104 35.8383V35.8416Z" fill="black"/>
</svg>
