<svg width="136" height="136" viewBox="0 0 136 136" fill="none" xmlns="http://www.w3.org/2000/svg">
<path d="M29.9832 18.363L50.5053 29.4648C50.8904 29.6731 51.2306 29.9552 51.5067 30.295C51.7827 30.6349 51.9891 31.0257 52.1141 31.4453C52.2391 31.8648 52.2802 32.3049 52.2351 32.7404C52.19 33.1759 52.0596 33.5982 51.8513 33.9832L40.7495 54.5053C40.5412 54.8904 40.2591 55.2306 39.9193 55.5067C39.5795 55.7827 39.1886 55.9891 38.769 56.1141C38.3495 56.2391 37.9094 56.2802 37.4739 56.2351C37.0384 56.19 36.6161 56.0596 36.2311 55.8513L15.709 44.7495C15.3239 44.5412 14.9837 44.2591 14.7076 43.9193C14.4316 43.5795 14.2252 43.1886 14.1002 42.769C13.9752 42.3495 13.9341 41.9094 13.9792 41.4739C14.0243 41.0384 14.1547 40.6161 14.363 40.2311L25.4648 19.709C25.8855 18.9313 26.5979 18.3526 27.4453 18.1002C28.2926 17.8478 29.2056 17.9423 29.9832 18.363V18.363Z" fill="#F5F5F5"/>
<path d="M38.9715 40.2796L32.6747 27.3982L24.7447 42.0569L38.9715 40.2796Z" fill="#D5001F"/>
<path d="M103.811 59.143L124.79 69.3545C125.184 69.5461 125.536 69.8133 125.826 70.141C126.117 70.4686 126.34 70.8503 126.483 71.2641C126.625 71.6779 126.685 72.1158 126.659 72.5528C126.633 72.9898 126.52 73.4174 126.329 73.811L116.117 94.7903C115.926 95.1839 115.658 95.536 115.331 95.8263C115.003 96.1167 114.622 96.3397 114.208 96.4825C113.794 96.6254 113.356 96.6854 112.919 96.659C112.482 96.6326 112.054 96.5204 111.661 96.3288L90.6815 86.1174C90.2878 85.9258 89.9358 85.6585 89.6454 85.3308C89.3551 85.0032 89.1321 84.6215 88.9893 84.2077C88.8464 83.7939 88.7864 83.356 88.8128 82.919C88.8392 82.482 88.9514 82.0545 89.143 81.6608L99.3544 60.6815C99.7414 59.8865 100.428 59.2778 101.264 58.9893C102.1 58.7007 103.016 58.756 103.811 59.143V59.143Z" fill="#F5F5F5"/>
<path d="M106.137 67.6906L101.641 65.5024L100.182 68.4999L104.678 70.6882L106.137 67.6906Z" fill="#27A83E"/>
<path d="M103.22 73.6846L98.724 71.4963L97.265 74.4938L101.761 76.6821L103.22 73.6846Z" fill="#27A83E"/>
<path d="M100.302 79.6796L95.806 77.4914L94.347 80.4889L98.8427 82.6771L100.302 79.6796Z" fill="#27A83E"/>
<path d="M121.123 74.9846L116.627 72.7964L115.168 75.7939L119.664 77.9821L121.123 74.9846Z" fill="#27A83E"/>
<path d="M118.205 80.9785L113.709 78.7903L112.25 81.7878L116.746 83.9761L118.205 80.9785Z" fill="#27A83E"/>
<path d="M115.287 86.9736L110.791 84.7853L109.332 87.7829L113.828 89.9711L115.287 86.9736Z" fill="#27A83E"/>
<path d="M113.63 71.3379L109.135 69.1496L107.676 72.1472L112.171 74.3354L113.63 71.3379Z" fill="#27A83E"/>
<path d="M110.713 77.3318L106.217 75.1436L104.758 78.1411L109.254 80.3293L110.713 77.3318Z" fill="#27A83E"/>
<path d="M107.795 83.3269L103.299 81.1386L101.84 84.1362L106.336 86.3244L107.795 83.3269Z" fill="#27A83E"/>
<path d="M81.1305 16.6155L102.967 24.836C103.377 24.9902 103.752 25.2237 104.072 25.523C104.391 25.8223 104.648 26.1816 104.829 26.5803C105.01 26.9791 105.11 27.4096 105.124 27.8471C105.139 28.2847 105.067 28.7208 104.912 29.1305L96.6919 50.967C96.5377 51.3767 96.3043 51.752 96.005 52.0715C95.7057 52.391 95.3464 52.6485 94.9476 52.8291C94.5488 53.0098 94.1184 53.1101 93.6808 53.1244C93.2432 53.1387 92.8071 53.0666 92.3974 52.9124L70.561 44.6919C70.1513 44.5377 69.7759 44.3043 69.4564 44.005C69.1369 43.7057 68.8795 43.3464 68.6988 42.9476C68.5182 42.5488 68.4178 42.1184 68.4036 41.6808C68.3893 41.2432 68.4613 40.8071 68.6155 40.3974L76.836 18.561C77.1475 17.7335 77.775 17.0637 78.5803 16.6988C79.3857 16.334 80.3031 16.304 81.1305 16.6155V16.6155Z" fill="#F5F5F5"/>
<path d="M90.6787 24.3652C88.1966 23.4308 85.4449 23.5206 83.0291 24.615C80.6132 25.7094 78.7311 27.7187 77.7967 30.2008L75.0565 37.4796C74.9016 37.8893 74.829 38.3255 74.843 38.7632C74.857 39.201 74.9572 39.6317 75.1379 40.0306C75.3187 40.4296 75.5763 40.789 75.8962 41.0881C76.2161 41.3873 76.5918 41.6204 77.002 41.7741L80.1208 42.9482L83.2525 34.6294L79.0936 33.0638L79.8767 30.9838C80.6034 29.0534 82.0672 27.4907 83.9462 26.6395C85.8251 25.7883 87.9652 25.7184 89.8956 26.4452C91.8261 27.1719 93.3888 28.6357 94.24 30.5146C95.0911 32.3936 95.161 34.5337 94.4343 36.4641L93.6513 38.5441L89.4924 36.9785L86.3608 45.2973L89.4808 46.4718C89.8904 46.6266 90.3265 46.699 90.7642 46.6849C91.2018 46.6708 91.6324 46.5705 92.0312 46.3897C92.43 46.209 92.7893 45.9513 93.0884 45.6315C93.3874 45.3117 93.6205 44.936 93.7741 44.526L96.5143 37.2471C97.4487 34.765 97.3588 32.0134 96.2644 29.5976C95.17 27.1817 93.1608 25.2996 90.6787 24.3652Z" fill="#FFC107"/>
<path d="M60.3439 96.0255L82.8813 89.9866C83.3042 89.8732 83.7453 89.8443 84.1793 89.9015C84.6134 89.9586 85.0319 90.1007 85.4111 90.3196C85.7902 90.5385 86.1225 90.8299 86.389 91.1773C86.6555 91.5246 86.851 91.921 86.9643 92.3439L93.0032 114.881C93.1165 115.304 93.1454 115.745 93.0883 116.179C93.0312 116.613 92.8891 117.032 92.6702 117.411C92.4513 117.79 92.1599 118.123 91.8125 118.389C91.4652 118.656 91.0688 118.851 90.6459 118.964L68.1084 125.003C67.6856 125.117 67.2445 125.145 66.8105 125.088C66.3764 125.031 65.9579 124.889 65.5787 124.67C65.1996 124.451 64.8673 124.16 64.6008 123.813C64.3343 123.465 64.1388 123.069 64.0255 122.646L57.9866 100.108C57.7577 99.2544 57.8775 98.3444 58.3196 97.5787C58.7617 96.813 59.4898 96.2543 60.3439 96.0255V96.0255Z" fill="#F5F5F5"/>
<path d="M66.8143 120.174L70.5199 111.395L75.8295 115.181L79.524 106.415L89.3566 114.133L66.8143 120.174Z" fill="#FF4081"/>
<path fill-rule="evenodd" clip-rule="evenodd" d="M38.4179 74.5855L15.462 70.4105C14.5924 70.255 13.6966 70.45 12.9703 70.9528C12.244 71.4555 11.7461 72.2253 11.5855 73.0939L7.4105 96.0499C7.25503 96.9194 7.44998 97.8152 7.95276 98.5415C8.45554 99.2678 9.2253 99.7657 10.0939 99.9263L33.0499 104.101C33.9194 104.257 34.8152 104.062 35.5415 103.559C36.2678 103.056 36.7657 102.287 36.9263 101.418L41.1013 78.462C41.2568 77.5924 41.0618 76.6966 40.5591 75.9703C40.0563 75.244 39.2865 74.7461 38.4179 74.5855V74.5855Z" fill="#F5F5F5"/>
<path d="M16.9513 80.8454L33.3486 83.8276L33.9451 80.5476L17.5479 77.5655L16.9513 80.8454ZM16.355 84.1241L15.7585 87.4041L32.1558 90.3862L32.7523 87.1063L16.355 84.1241ZM15.1622 90.6828L14.5657 93.9627L26.0437 96.0502L26.64 92.7715L15.1622 90.6828Z" fill="#00BCD4"/>
<path d="M65 99C82.6731 99 97 84.6731 97 67C97 49.3269 82.6731 35 65 35C47.3269 35 33 49.3269 33 67C33 84.6731 47.3269 99 65 99Z" fill="#00BCD4"/>
<path d="M77.6125 58.9591L77.8594 54.0142L71.5956 51.2951L71.7618 47.8338L68.4888 46.016C68.8044 45.3986 68.9542 44.7097 68.9232 44.017C68.8923 43.3242 68.6819 42.6514 68.3126 42.0646C67.9432 41.4778 67.4275 40.997 66.8163 40.6695C66.205 40.342 65.5192 40.1791 64.826 40.1967C64.1328 40.2142 63.4561 40.4116 62.8623 40.7696C62.2684 41.1275 61.7779 41.6338 61.4387 42.2385C61.0994 42.8433 60.9232 43.5259 60.9274 44.2193C60.9315 44.9127 61.1159 45.5931 61.4623 46.1938L58.1626 48.0791C58.1626 48.0791 58.56 51.3778 58.4675 51.432C58.1893 51.5911 52.1466 53.6835 52.1466 53.6835L52.7021 58.9609L52.7423 58.952C52.92 60.8062 55.5973 87.4622 62.0116 90.8018C62.1589 90.9013 62.3217 90.9757 62.4933 91.0222V91.0151L63.8 91.6302L65.0035 92.2524L67.8479 91.0462L67.9981 90.9759C68.1752 90.8878 68.345 90.7856 68.5057 90.6702C74.9662 86.6577 77.5485 58.9609 77.5485 58.9609L69.04 57.3244V57.3129L77.6125 58.9591ZM64.9272 41.0373C65.4669 41.036 65.9981 41.1728 66.4701 41.4347C66.9421 41.6966 67.3391 42.0749 67.6235 42.5336C67.908 42.9924 68.0705 43.5163 68.0953 44.0555C68.1201 44.5947 68.0064 45.1313 67.7653 45.6142L65.0854 44.1253L62.1804 45.7849C61.9019 45.3034 61.7553 44.757 61.7553 44.2007C61.7553 43.6445 61.9021 43.0981 62.1806 42.6166C62.4592 42.1352 62.8597 41.7356 63.3419 41.4584C63.8241 41.1811 64.3709 41.0359 64.9272 41.0373Z" fill="#FEE600"/>
<path d="M71.5921 51.2986L71.7583 47.8373L68.4853 46.0195C68.8009 45.4021 68.9507 44.7133 68.9198 44.0205C68.8888 43.3278 68.6783 42.655 68.3089 42.0682C67.9395 41.4813 67.424 41.0006 66.8128 40.6731C66.2016 40.3456 65.5157 40.1826 64.8226 40.2002C64.1294 40.2177 63.4527 40.4152 62.8588 40.7731C62.2649 41.1311 61.7742 41.6373 61.435 42.2421C61.0957 42.8468 60.9195 43.5294 60.9237 44.2228C60.9278 44.9162 61.1122 45.5966 61.4586 46.1973L58.1591 48.0827C58.1591 48.0827 58.5565 51.3813 58.464 51.4355C58.1858 51.5946 52.1431 53.6871 52.1431 53.6871L52.6986 58.9644C54.8213 58.5102 60.7779 57.3191 60.8045 57.3475C60.8518 57.4084 60.878 57.483 60.8792 57.56C60.9352 58.768 62.4445 90.9369 62.4445 90.9369V90.9973L63.7965 91.6337L65.0001 92.256L67.8445 91.0497L69.0383 57.3138L77.6088 58.9617L77.856 54.0169L71.5921 51.2986ZM61.752 44.2106C61.7508 43.732 61.8579 43.2593 62.0654 42.8279C62.2728 42.3965 62.575 42.0177 62.9497 41.7198C63.3244 41.4219 63.7618 41.2127 64.2288 41.1079C64.6958 41.003 65.1805 41.0052 65.6466 41.1143C66.1126 41.2235 66.5478 41.4367 66.9198 41.738C67.2917 42.0393 67.5906 42.4208 67.7941 42.8541C67.9976 43.2873 68.1005 43.761 68.0949 44.2396C68.0893 44.7182 67.9754 45.1894 67.7618 45.6178L65.0817 44.1289L62.1769 45.7884C61.8982 45.3081 61.7515 44.7624 61.752 44.2071V44.2106Z" fill="black"/>
</svg>
