<svg width="126" height="24" viewBox="0 0 126 24" fill="none" xmlns="http://www.w3.org/2000/svg">
<path d="M0.521745 23.9972C0.383372 23.9972 0.250651 23.9419 0.152807 23.8435C0.0549624 23.745 0 23.6115 0 23.4723V0.524948C0 0.385725 0.0549624 0.25219 0.152807 0.153745C0.250651 0.0552998 0.383372 0 0.521745 0H4.39749C4.53586 0 4.66858 0.0552998 4.76642 0.153745C4.86427 0.25219 4.91923 0.385725 4.91923 0.524948V19.7092C4.91923 19.8484 4.97419 19.9819 5.07204 20.0804C5.16988 20.1788 5.30258 20.2341 5.44095 20.2341H12.3323C12.4707 20.2341 12.6034 20.2894 12.7013 20.3879C12.7991 20.4863 12.8541 20.6199 12.8541 20.7591V23.4707C12.8541 23.61 12.7991 23.7435 12.7013 23.8419C12.6034 23.9404 12.4707 23.9957 12.3323 23.9957L0.521745 23.9972Z" fill="black"/>
<path d="M28.9936 23.9972C28.8459 23.9912 28.7036 23.939 28.5868 23.8478C28.4699 23.7567 28.3841 23.6312 28.3414 23.4887L27.3174 19.4722C27.2747 19.3298 27.189 19.2042 27.0721 19.1131C26.9552 19.022 26.8129 18.9698 26.6652 18.9638H20.8851C20.7372 18.97 20.5947 19.0221 20.4774 19.113C20.3601 19.2039 20.2737 19.3291 20.2299 19.4715L19.1753 23.4895C19.1319 23.6319 19.0456 23.7572 18.9284 23.8481C18.8112 23.9391 18.6688 23.9912 18.5209 23.9972H15.1617C15.099 24.0018 15.0362 23.9906 14.9789 23.9647C14.9216 23.9388 14.8717 23.8989 14.8335 23.8486C14.7954 23.7984 14.7704 23.7393 14.7607 23.6769C14.7509 23.6145 14.7568 23.5506 14.7778 23.491L20.9596 0.743914C21.0046 0.601621 21.0921 0.476681 21.2101 0.386122C21.3281 0.295563 21.471 0.243737 21.6193 0.237686H26.1889C26.337 0.243816 26.4797 0.295803 26.5973 0.386534C26.715 0.477265 26.8019 0.602336 26.8463 0.744646L32.9223 23.4902C32.9428 23.5501 32.9482 23.6141 32.938 23.6766C32.9279 23.7391 32.9026 23.7981 32.8643 23.8483C32.8259 23.8985 32.7759 23.9384 32.7185 23.9644C32.6611 23.9904 32.5982 24.0016 32.5355 23.9972H28.9936ZM24.0051 4.54071C23.9827 4.35729 23.9164 4.18204 23.812 4.03C23.7072 4.18181 23.64 4.35665 23.616 4.53993L21.0342 15.299C21.0155 15.36 21.0118 15.4247 21.0234 15.4875C21.0351 15.5504 21.0617 15.6094 21.1009 15.6596C21.1402 15.7098 21.191 15.7497 21.2489 15.7758C21.3069 15.8019 21.3703 15.8135 21.4337 15.8096H26.1136C26.1772 15.8134 26.2406 15.8017 26.2987 15.7755C26.3567 15.7494 26.4077 15.7095 26.4472 15.6593C26.4867 15.6091 26.5135 15.5501 26.5255 15.4873C26.5375 15.4244 26.5343 15.3595 26.5161 15.2982L24.0051 4.54071Z" fill="black"/>
<path d="M47.8782 23.9972C47.7237 23.9889 47.5739 23.9411 47.4429 23.8585C47.3118 23.7758 47.2039 23.661 47.1291 23.5247L39.5386 7.69035C39.4712 7.51714 39.3741 7.35721 39.2516 7.21791C39.1931 7.38623 39.1732 7.5657 39.1935 7.74285L39.268 23.4722C39.268 23.6115 39.2131 23.745 39.1152 23.8435C39.0174 23.9419 38.8847 23.9972 38.7463 23.9972H35.4668C35.3284 23.9972 35.1957 23.9419 35.0979 23.8435C35 23.745 34.9451 23.6115 34.9451 23.4722V0.762634C34.9451 0.623412 35 0.489922 35.0979 0.391477C35.1957 0.293032 35.3284 0.237686 35.4668 0.237686H39.9068C40.061 0.245894 40.2104 0.2938 40.3409 0.376784C40.4714 0.459768 40.5786 0.575066 40.6521 0.711645L48.1696 16.6435C48.2354 16.8174 48.3313 16.9781 48.4528 17.1182C48.5114 16.9499 48.5315 16.7705 48.5117 16.5933L48.4744 0.762634C48.4744 0.623412 48.5294 0.489922 48.6272 0.391477C48.7251 0.293032 48.8578 0.237686 48.9962 0.237686H52.1146C52.253 0.237686 52.3857 0.293032 52.4836 0.391477C52.5814 0.489922 52.6364 0.623412 52.6364 0.762634V23.4722C52.6364 23.6115 52.5814 23.745 52.4836 23.8435C52.3857 23.9419 52.253 23.9972 52.1146 23.9972H47.8782Z" fill="black"/>
<path d="M65.7693 3.66031C65.6309 3.66031 65.4982 3.71561 65.4004 3.81405C65.3025 3.9125 65.2476 4.04603 65.2476 4.18525V23.4722C65.2476 23.5412 65.2341 23.6094 65.2079 23.6731C65.1816 23.7368 65.1432 23.7947 65.0948 23.8435C65.0463 23.8922 64.9888 23.9309 64.9255 23.9572C64.8622 23.9836 64.7943 23.9972 64.7258 23.9972H61.0461C60.9078 23.9972 60.775 23.9419 60.6772 23.8435C60.5794 23.745 60.5244 23.6115 60.5244 23.4722V4.18525C60.5244 4.04603 60.4694 3.9125 60.3716 3.81405C60.2737 3.71561 60.141 3.66031 60.0026 3.66031H55.7229C55.5845 3.66031 55.4518 3.60501 55.354 3.50656C55.2561 3.40812 55.2012 3.27458 55.2012 3.13536V0.762634C55.2012 0.623412 55.2561 0.489922 55.354 0.391477C55.4518 0.293032 55.5845 0.237686 55.7229 0.237686H70.0491C70.1176 0.237686 70.1854 0.251264 70.2487 0.277644C70.312 0.304025 70.3695 0.342732 70.418 0.391477C70.4664 0.440222 70.5049 0.498057 70.5311 0.561745C70.5573 0.625434 70.5708 0.693698 70.5708 0.762634V3.13536C70.5708 3.20429 70.5573 3.27256 70.5311 3.33625C70.5049 3.39994 70.4664 3.45782 70.418 3.50656C70.3695 3.55531 70.312 3.59397 70.2487 3.62035C70.1854 3.64673 70.1176 3.66031 70.0491 3.66031H65.7693Z" fill="black"/>
<path d="M74.0134 23.9972C73.8751 23.9972 73.7424 23.9419 73.6445 23.8435C73.5467 23.745 73.4917 23.6115 73.4917 23.4722V0.762634C73.4917 0.623412 73.5467 0.489922 73.6445 0.391477C73.7424 0.293032 73.8751 0.237686 74.0134 0.237686H85.6548C85.7932 0.237686 85.9259 0.293032 86.0238 0.391477C86.1216 0.489922 86.1766 0.623412 86.1766 0.762634V3.2696C86.1766 3.40883 86.1216 3.54236 86.0238 3.64081C85.9259 3.73925 85.7932 3.79455 85.6548 3.79455H78.6137C78.5451 3.79455 78.4773 3.80813 78.414 3.83451C78.3507 3.86089 78.2932 3.89955 78.2447 3.9483C78.1963 3.99704 78.1579 4.05492 78.1316 4.11861C78.1054 4.1823 78.0919 4.25056 78.0919 4.3195V9.57864C78.0919 9.71786 78.1469 9.85135 78.2447 9.94979C78.3426 10.0482 78.4753 10.1035 78.6137 10.1035H85.0586C85.1969 10.1035 85.3297 10.1589 85.4275 10.2573C85.5254 10.3558 85.5803 10.4893 85.5803 10.6285V12.8677C85.5803 13.007 85.5254 13.1405 85.4275 13.2389C85.3297 13.3373 85.1969 13.3927 85.0586 13.3927H78.6181C78.5496 13.3927 78.4818 13.4063 78.4185 13.4326C78.3552 13.459 78.2976 13.4977 78.2492 13.5464C78.2007 13.5952 78.1623 13.653 78.1361 13.7167C78.1099 13.7804 78.0964 13.8487 78.0964 13.9176V19.8809C78.0964 19.9499 78.1099 20.0181 78.1361 20.0818C78.1623 20.1455 78.2007 20.2034 78.2492 20.2521C78.2976 20.3009 78.3552 20.3395 78.4185 20.3659C78.4818 20.3923 78.5496 20.4059 78.6181 20.4059H86.0596C86.1979 20.4059 86.3306 20.4612 86.4285 20.5596C86.5263 20.6581 86.5813 20.7916 86.5813 20.9308V23.4722C86.5813 23.6115 86.5263 23.745 86.4285 23.8435C86.3306 23.9419 86.1979 23.9972 86.0596 23.9972H74.0134Z" fill="black"/>
<path d="M101.469 23.9972C101.316 23.9892 101.168 23.9405 101.04 23.8561C100.911 23.7716 100.808 23.6545 100.739 23.5165L96.7536 14.3436C96.6847 14.2057 96.5808 14.0885 96.4524 14.0041C96.324 13.9197 96.1757 13.8709 96.0225 13.8629H94.3827C94.2443 13.8629 94.1116 13.9182 94.0138 14.0166C93.9159 14.115 93.861 14.2486 93.861 14.3878V23.4722C93.861 23.5412 93.8475 23.6094 93.8213 23.6731C93.795 23.7368 93.7566 23.7947 93.7082 23.8435C93.6597 23.8922 93.6022 23.9309 93.5389 23.9572C93.4756 23.9836 93.4077 23.9972 93.3392 23.9972H89.74C89.6715 23.9972 89.6036 23.9836 89.5403 23.9572C89.477 23.9309 89.4195 23.8922 89.3711 23.8435C89.3226 23.7947 89.2842 23.7368 89.258 23.6731C89.2318 23.6094 89.2183 23.5412 89.2183 23.4722V0.762634C89.2183 0.693698 89.2318 0.625434 89.258 0.561745C89.2842 0.498057 89.3226 0.440222 89.3711 0.391477C89.4195 0.342732 89.477 0.304025 89.5403 0.277644C89.6036 0.251264 89.6715 0.237686 89.74 0.237686H96.7805C97.0674 0.237686 97.537 0.251186 97.8239 0.266934C98.7388 0.317787 99.6486 0.436878 100.546 0.62317C101.468 0.849877 102.334 1.26746 103.087 1.84928C103.798 2.41289 104.367 3.13709 104.748 3.96326C105.17 4.92402 105.373 5.96714 105.344 7.01692C105.36 7.84734 105.218 8.6731 104.925 9.44965C104.674 10.1041 104.315 10.7112 103.863 11.2449C103.459 11.7184 102.979 12.1211 102.443 12.4365C102.111 12.6255 101.761 12.7812 101.399 12.9015C101.336 12.9197 101.278 12.9516 101.229 12.9948C101.18 13.0381 101.14 13.0918 101.114 13.152C101.088 13.2122 101.075 13.2775 101.076 13.3434C101.077 13.4092 101.093 13.4739 101.122 13.5329L105.764 23.5217C105.796 23.5713 105.814 23.6291 105.814 23.6884C105.815 23.7476 105.798 23.8058 105.767 23.8559C105.735 23.906 105.69 23.946 105.637 23.971C105.584 23.9961 105.524 24.0052 105.466 23.9972H101.469ZM100.627 7.21791C100.649 6.60489 100.526 5.99541 100.267 5.43984C100.05 4.99708 99.7267 4.61606 99.3258 4.33149C98.9321 4.06021 98.4907 3.86678 98.0252 3.76155C97.7227 3.69263 97.4155 3.64676 97.1062 3.62433C96.8192 3.60783 96.3504 3.59357 96.0627 3.59357H94.3849C94.2466 3.59357 94.1139 3.64887 94.016 3.74732C93.9182 3.84576 93.8632 3.9793 93.8632 4.11852V10.3833C93.8632 10.5225 93.9182 10.656 94.016 10.7544C94.1139 10.8529 94.2466 10.9082 94.3849 10.9082H96.0627C96.4102 10.9039 96.7572 10.8788 97.1017 10.8332C97.9465 10.719 98.7585 10.43 99.4868 9.98431C99.8777 9.64427 100.184 9.21712 100.382 8.73686C100.58 8.2566 100.664 7.7365 100.627 7.21791Z" fill="black"/>
<path d="M121.241 23.9972C121.087 23.9889 120.937 23.9411 120.806 23.8585C120.675 23.7758 120.567 23.661 120.492 23.5247L112.901 7.69035C112.834 7.51681 112.737 7.35677 112.614 7.21791C112.556 7.38642 112.536 7.56576 112.556 7.74285L112.631 23.4722C112.631 23.6115 112.576 23.745 112.478 23.8435C112.38 23.9419 112.247 23.9972 112.109 23.9972H108.83C108.691 23.9972 108.559 23.9419 108.461 23.8435C108.363 23.745 108.308 23.6115 108.308 23.4722V0.762634C108.308 0.623412 108.363 0.489922 108.461 0.391477C108.559 0.293032 108.691 0.237686 108.83 0.237686H113.27C113.424 0.245894 113.573 0.2938 113.704 0.376784C113.834 0.459768 113.941 0.575066 114.015 0.711645L121.532 16.6435C121.598 16.8174 121.694 16.9781 121.816 17.1182C121.874 16.9498 121.894 16.7705 121.875 16.5933L121.836 0.762634C121.836 0.693698 121.85 0.625434 121.876 0.561745C121.902 0.498057 121.941 0.440222 121.989 0.391477C122.038 0.342732 122.095 0.304025 122.159 0.277644C122.222 0.251264 122.29 0.237686 122.358 0.237686H125.478C125.547 0.237686 125.615 0.251264 125.678 0.277644C125.741 0.304025 125.799 0.342732 125.847 0.391477C125.896 0.440222 125.934 0.498057 125.96 0.561745C125.986 0.625434 126 0.693698 126 0.762634V23.4722C126 23.5412 125.986 23.6094 125.96 23.6731C125.934 23.7368 125.896 23.7947 125.847 23.8435C125.799 23.8922 125.741 23.9309 125.678 23.9572C125.615 23.9836 125.547 23.9972 125.478 23.9972H121.241Z" fill="black"/>
</svg>
