<svg width="31" height="20" viewBox="0 0 31 20" fill="none" xmlns="http://www.w3.org/2000/svg">
<path fill-rule="evenodd" clip-rule="evenodd" d="M15.2632 17.1745C13.6744 18.5456 11.6135 19.3732 9.36154 19.3732C4.33666 19.3732 0.263184 15.2525 0.263184 10.1693C0.263184 5.08603 4.33666 0.965271 9.36154 0.965271C11.6135 0.965271 13.6744 1.79294 15.2632 3.16398C16.8519 1.79294 18.9128 0.965271 21.1648 0.965271C26.1897 0.965271 30.2632 5.08603 30.2632 10.1693C30.2632 15.2525 26.1897 19.3732 21.1648 19.3732C18.9128 19.3732 16.8519 18.5456 15.2632 17.1745Z" fill="#ED0006"/>
<path fill-rule="evenodd" clip-rule="evenodd" d="M15.2632 17.1745C17.2194 15.4863 18.4599 12.9743 18.4599 10.1693C18.4599 7.36416 17.2194 4.85216 15.2632 3.16398C16.8519 1.79294 18.9128 0.965271 21.1648 0.965271C26.1897 0.965271 30.2632 5.08603 30.2632 10.1693C30.2632 15.2525 26.1897 19.3732 21.1648 19.3732C18.9128 19.3732 16.8519 18.5456 15.2632 17.1745Z" fill="#F9A000"/>
<path fill-rule="evenodd" clip-rule="evenodd" d="M15.2632 3.164C17.2195 4.85218 18.4599 7.36417 18.4599 10.1692C18.4599 12.9743 17.2195 15.4863 15.2632 17.1745C13.307 15.4863 12.0665 12.9743 12.0665 10.1692C12.0665 7.36417 13.307 4.85218 15.2632 3.164Z" fill="#FF5E00"/>
</svg>
