<svg width="47" height="32" viewBox="0 0 47 32" xmlns="http://www.w3.org/2000/svg">
<rect x="0.5" y="0.5" width="45.6667" height="31" rx="3.5" fill="white" stroke="#EBEBEB"/>
<path d="M16.4176 11.7539V11.7576C16.4139 11.7576 15.2454 11.7539 14.9338 12.8705C14.6481 13.8943 13.8432 16.7197 13.8209 16.7976H13.5983C13.5983 16.7976 12.7748 13.9091 12.4855 12.8668C12.1739 11.7502 11.0017 11.7539 11.0017 11.7539H8.33331V20.2462H11.0029V15.2025H11.2255L12.7835 20.2462H14.637L16.195 15.2062H16.4176V20.2462H19.0872V11.7539H16.4176ZM26.1699 11.7539C26.1699 11.7539 25.3872 11.8244 25.0199 12.6442L23.1293 16.7976H22.9067V11.7539H20.2371V20.2462H22.7584C22.7584 20.2462 23.5782 20.172 23.9454 19.3559L25.799 15.2025H26.0215V20.2462H28.6911V11.7539H26.1699ZM29.8781 15.6106V20.2462H32.5478V17.5395H35.44C36.7012 17.5395 37.7683 16.7345 38.1652 15.6118H29.8781V15.6106Z" fill="#4DB45E"/>
<path d="M35.4411 11.7539H29.5034C29.8002 13.3713 31.0131 14.6683 32.581 15.0912C32.945 15.1898 33.3205 15.2397 33.6976 15.2396H38.2739C38.3147 15.0468 38.3332 14.8501 38.3332 14.6461C38.3333 13.0485 37.0387 11.7539 35.4411 11.7539Z" fill="url(#paint0_linear_5226_50847)"/>
<defs>
<linearGradient id="paint0_linear_5226_50847" x1="29.5034" y1="13.4968" x2="38.3333" y2="13.4968" gradientUnits="userSpaceOnUse">
<stop offset="0.3" stop-color="#00B4E6"/>
<stop offset="1" stop-color="#088CCB"/>
</linearGradient>
</defs>
</svg>
