<svg width="31" height="10" viewBox="0 0 31 10" fill="none" xmlns="http://www.w3.org/2000/svg">
<path d="M8.41757 0.753906V0.757616C8.41386 0.757616 7.24537 0.753906 6.93377 1.87047C6.64813 2.89429 5.84317 5.7197 5.82091 5.7976H5.59834C5.59834 5.7976 4.77483 2.90913 4.48549 1.86676C4.17389 0.750196 3.00169 0.753906 3.00169 0.753906H0.333313V9.24621H3.00292V4.20247H3.22549L4.78349 9.24617H6.63701L8.195 4.20618H8.41757V9.24617H11.0872V0.753906H8.41757ZM18.1699 0.753906C18.1699 0.753906 17.3872 0.824387 17.0199 1.64423L15.1293 5.7976H14.9067V0.753906H12.2371V9.24621H14.7584C14.7584 9.24621 15.5782 9.17202 15.9454 8.35593L17.799 4.20251H18.0215V9.24621H20.6911V0.753906H18.1699ZM21.8781 4.61056V9.24621H24.5478V6.5395H27.44C28.7012 6.5395 29.7683 5.73454 30.1652 4.6118H21.8781V4.61056Z" fill="#4DB45E"/>
<path d="M27.4411 0.753906H21.5034C21.8002 2.37125 23.0132 3.66834 24.581 4.09123C24.945 4.18981 25.3205 4.23972 25.6976 4.23965H30.2739C30.3147 4.04675 30.3333 3.85015 30.3333 3.64613C30.3333 2.04852 29.0387 0.753906 27.4411 0.753906Z" fill="url(#paint0_linear_5226_51508)"/>
<defs>
<linearGradient id="paint0_linear_5226_51508" x1="21.5034" y1="2.49677" x2="30.3333" y2="2.49677" gradientUnits="userSpaceOnUse">
<stop offset="0.3" stop-color="#00B4E6"/>
<stop offset="1" stop-color="#088CCB"/>
</linearGradient>
</defs>
</svg>
