<svg width="18" height="19" viewBox="0 0 18 19" fill="none" xmlns="http://www.w3.org/2000/svg">
<path d="M16 9H14.3C14.3 9.74 14.14 10.43 13.87 11.05L15.1 12.28C15.66 11.3 16 10.19 16 9ZM11.98 9.17C11.98 9.11 12 9.06 12 9V3C12 1.34 10.66 0 9 0C7.34 0 6 1.34 6 3V3.18L11.98 9.17ZM1.27 1L0 2.27L6.01 8.28V9C6.01 10.66 7.34 12 9 12C9.22 12 9.44 11.97 9.65 11.92L11.31 13.58C10.6 13.91 9.81 14.1 9 14.1C6.24 14.1 3.7 12 3.7 9H2C2 12.41 4.72 15.23 8 15.72V19H10V15.72C10.91 15.59 11.77 15.27 12.54 14.82L16.73 19L18 17.73L1.27 1Z" fill="#F5F5F5"/>
</svg>
