<svg height="34.174" viewBox="0 0 181.28 34.174" width="181.28" xmlns="http://www.w3.org/2000/svg"><path d="m177.828 115.745v15.036c0 5.226 2.239 7.358 6.078 7.358s5.972-2.132 5.972-7.358v-15.036h6.292v15.249c0 8-4.585 12.478-12.371 12.478-7.677 0-12.262-4.372-12.262-12.478v-15.249zm-87.655 0 12.156 27.3h-6.611l-2.453-5.865h-12.582l-2.453 5.865h-6.5l12.156-27.3zm72.833 0v5.119h-14.183v7.145h12.477v5.119h-12.477v9.918h-6.292v-27.3zm48.093 0v22.181h14.181v5.119h-20.473v-27.3zm-155.262 0c7.251 0 11.837 3.733 11.837 9.918 0 6.079-4.585 9.811-11.837 9.811h-5.546v7.572h-6.291v-27.3zm68.993 14.4 9.171 12.8h-6.079a3.182 3.182 0 0 1 -2.392-1.075l-.166-.205-3.412-4.692a3.326 3.326 0 0 1 .053-3.822l.161-.229zm-37.856-8.211-4.265 10.45h8.637zm-31.458-1.067h-5.225v9.491h5.119c3.946 0 5.865-1.707 5.865-4.692s-1.92-4.802-5.758-4.802zm57.263-5.119a2.749 2.749 0 0 1 2.313 1.076l.14.2 1.813 2.453a3.418 3.418 0 0 1 .139 3.513l-.139.218-2.453 3.519-7.892-10.982z" fill="#454c59" transform="translate(-44 -113.186)"/><path d="m117.429 114-31.67 34.017c-.32.427-.96-.107-.64-.534l22.821-32.2a3.177 3.177 0 0 1 2.56-1.283z" fill="#00a5ef" transform="translate(-24.869 -114)"/></svg>