<svg width="144" height="144" viewBox="0 0 144 144" fill="none" xmlns="http://www.w3.org/2000/svg">
<path opacity="0.761" fill-rule="evenodd" clip-rule="evenodd" d="M113.99 17.9955H29.9971C26.8174 18.0062 23.771 19.274 21.5226 21.5224C19.2741 23.7708 18.0063 26.8173 17.9956 29.997V113.994C18.0051 117.174 19.2726 120.221 21.5213 122.47C23.7699 124.718 26.817 125.986 29.9971 125.995H113.99C117.17 125.988 120.219 124.722 122.468 122.472C124.717 120.223 125.984 117.175 125.991 113.994V29.997C125.982 26.8169 124.714 23.7698 122.465 21.5211C120.217 19.2725 117.17 18.005 113.99 17.9955Z" fill="#F5F5F5"/>
<path d="M41.9986 54H29.9971V90H35.9911V77.9985H41.5306C44.1067 78.071 46.6401 77.3294 48.7705 75.8793C50.9009 74.4291 52.5198 72.3442 53.3971 69.921C54.0146 68.1085 54.191 66.1749 53.9116 64.2806C53.6322 62.3862 52.9052 60.5859 51.7907 59.0288C50.6763 57.4717 49.2066 56.2029 47.5036 55.3275C45.8006 54.4521 43.9134 53.9955 41.9986 53.9955V54Z" fill="#F7F7F7"/>
<path d="M35.9911 59.9985V72H41.5306C42.8313 72.0603 44.1192 71.7191 45.2195 71.0228C46.3199 70.3266 47.1796 69.3088 47.6821 68.1075C48.012 67.172 48.1107 66.1706 47.9696 65.1888C47.8286 64.2069 47.452 63.2738 46.8721 62.469C46.317 61.7016 45.587 61.0777 44.7426 60.6488C43.8981 60.2199 42.9636 59.9985 42.0166 60.003H35.9911V59.9985ZM29.9971 54H42.0166C43.9298 54.0026 45.8149 54.4612 47.5155 55.3378C49.2161 56.2144 50.6833 57.4837 51.7954 59.0406C52.9075 60.5974 53.6325 62.3969 53.9102 64.2899C54.188 66.1829 54.0105 68.1148 53.3926 69.9255C52.5138 72.3468 50.8951 74.4301 48.766 75.8799C46.6369 77.3297 44.1055 78.0725 41.5306 78.003H35.9911V90.0045H29.9971V54Z" fill="black"/>
<path d="M67.932 90C72.4648 89.7546 76.7153 87.7221 79.752 84.348C82.7887 80.9739 84.3638 76.5335 84.132 72C84.3626 67.4668 82.7871 63.0271 79.7506 59.6533C76.7142 56.2794 72.4644 54.2466 67.932 54H59.9985V90H67.932Z" fill="#F7F7F7"/>
<path d="M67.932 84.3435C70.9545 84.0796 73.7516 82.6368 75.7187 80.327C77.6858 78.0171 78.6648 75.0259 78.444 72C78.6624 68.9751 77.6824 65.9857 75.7157 63.6771C73.7489 61.3686 70.9532 59.926 67.932 59.661H65.6595V84.3435H67.932ZM67.932 90H59.9985V54H67.932C72.4588 54.2546 76.7006 56.2909 79.7303 59.6639C82.7601 63.0368 84.3313 67.472 84.1005 72C84.3313 76.528 82.7601 80.9632 79.7303 84.3362C76.7006 87.7091 72.4588 89.7454 67.932 90Z" fill="black"/>
<path d="M113.99 59.9985V54H89.9956V90H95.9896V75.0015H110.988V68.9985H95.9896V59.9985H113.99Z" fill="black"/>
</svg>
