<svg width="12" height="13" viewBox="0 0 12 13" fill="none" xmlns="http://www.w3.org/2000/svg">
<path d="M6 1.5C3.24 1.5 1 3.74 1 6.5C1 9.26 3.24 11.5 6 11.5C8.76 11.5 11 9.26 11 6.5C11 3.74 8.76 1.5 6 1.5ZM3.5 7.25C3.085 7.25 2.75 6.915 2.75 6.5C2.75 6.085 3.085 5.75 3.5 5.75C3.915 5.75 4.25 6.085 4.25 6.5C4.25 6.915 3.915 7.25 3.5 7.25ZM6 7.25C5.585 7.25 5.25 6.915 5.25 6.5C5.25 6.085 5.585 5.75 6 5.75C6.415 5.75 6.75 6.085 6.75 6.5C6.75 6.915 6.415 7.25 6 7.25ZM8.5 7.25C8.085 7.25 7.75 6.915 7.75 6.5C7.75 6.085 8.085 5.75 8.5 5.75C8.915 5.75 9.25 6.085 9.25 6.5C9.25 6.915 8.915 7.25 8.5 7.25Z" fill="black"/>
</svg>
