<svg width="24" height="24" viewBox="0 0 24 24" fill="none" xmlns="http://www.w3.org/2000/svg">
<path d="M5.20645 15.771L3.27295 5.32877L8.59045 10.0755L11.9729 4.37927L15.3569 10.0755L20.673 5.32877L18.741 15.771H5.20645ZM18.741 18.621C18.7475 18.7489 18.7269 18.8768 18.6804 18.9961C18.6339 19.1154 18.5626 19.2235 18.4712 19.3133C18.3798 19.403 18.2705 19.4724 18.1503 19.5167C18.0302 19.561 17.902 19.5794 17.7742 19.5705H6.1732C6.04543 19.5794 5.91724 19.561 5.79709 19.5167C5.67694 19.4724 5.56756 19.403 5.47619 19.3133C5.38481 19.2235 5.31352 19.1154 5.26703 18.9961C5.22053 18.8768 5.19988 18.7489 5.20645 18.621V17.67H18.741V18.621Z" fill="black"/>
</svg>
