<svg height="16" viewBox="0 0 123.35 16" width="123.35" xmlns="http://www.w3.org/2000/svg"><g fill="#040505"><path d="m142.466 598.3a.338.338 0 0 1 -.337-.337v-14.717a.338.338 0 0 1 .337-.337h2.5a.338.338 0 0 1 .337.337v12.306a.338.338 0 0 0 .337.337h4.447a.338.338 0 0 1 .337.337v1.74a.338.338 0 0 1 -.337.337z" transform="translate(-142.129 -582.68)"/><path d="m203.867 598.989a.458.458 0 0 1 -.421-.326l-.661-2.576a.458.458 0 0 0 -.421-.326h-3.73a.462.462 0 0 0 -.423.326l-.68 2.577a.463.463 0 0 1 -.423.326h-2.168a.244.244 0 0 1 -.248-.325l3.99-14.59a.467.467 0 0 1 .426-.325h2.949a.465.465 0 0 1 .424.325l3.921 14.589a.246.246 0 0 1 -.249.325zm-3.219-12.48a.188.188 0 1 0 -.251 0l-1.665 6.9a.254.254 0 0 0 .258.327h3.02a.255.255 0 0 0 .26-.328z" transform="translate(-185.155 -583.368)"/><path d="m274.906 598.989a.587.587 0 0 1 -.483-.3l-4.9-10.156a1.009 1.009 0 0 0 -.185-.3.765.765 0 0 0 -.037.337l.049 10.089a.336.336 0 0 1 -.335.337h-2.115a.338.338 0 0 1 -.337-.337v-14.573a.338.338 0 0 1 .337-.337h2.865a.583.583 0 0 1 .481.3l4.851 10.219a1.007 1.007 0 0 0 .183.3.772.772 0 0 0 .038-.337l-.024-10.154a.337.337 0 0 1 .336-.337h2.013a.338.338 0 0 1 .337.337v14.566a.338.338 0 0 1 -.337.337z" transform="translate(-244.007 -583.368)"/><path d="m345.486 585.944a.338.338 0 0 0 -.337.337v12.371a.338.338 0 0 1 -.337.337h-2.375a.338.338 0 0 1 -.337-.337v-12.371a.338.338 0 0 0 -.337-.337h-2.763a.338.338 0 0 1 -.337-.337v-1.522a.338.338 0 0 1 .337-.337h9.245a.338.338 0 0 1 .337.337v1.522a.338.338 0 0 1 -.337.337z" transform="translate(-303.042 -583.368)"/><path d="m404.123 598.989a.338.338 0 0 1 -.337-.337v-14.566a.338.338 0 0 1 .337-.337h7.515a.338.338 0 0 1 .337.337v1.608a.338.338 0 0 1 -.337.337h-4.544a.338.338 0 0 0 -.337.337v3.373a.338.338 0 0 0 .337.337h4.156a.338.338 0 0 1 .337.337v1.436a.338.338 0 0 1 -.337.337h-4.156a.338.338 0 0 0 -.337.337v3.825a.338.338 0 0 0 .337.337h4.8a.338.338 0 0 1 .337.337v1.63a.338.338 0 0 1 -.337.337z" transform="translate(-356.358 -583.368)"/><path d="m467.693 598.989a.56.56 0 0 1 -.472-.309l-2.571-5.88a.56.56 0 0 0 -.472-.309h-1.057a.338.338 0 0 0 -.337.337v5.827a.338.338 0 0 1 -.337.337h-2.323a.338.338 0 0 1 -.337-.337v-14.569a.338.338 0 0 1 .337-.337h4.544c.185 0 .488.009.673.019a11.885 11.885 0 0 1 1.759.232 4.409 4.409 0 0 1 1.64.786 3.723 3.723 0 0 1 1.072 1.356 4.54 4.54 0 0 1 .387 1.958 4.174 4.174 0 0 1 -.271 1.56 3.969 3.969 0 0 1 -.685 1.152 3.613 3.613 0 0 1 -.917.764 3.743 3.743 0 0 1 -.673.3.287.287 0 0 0 -.179.405l3 6.407a.2.2 0 0 1 -.194.305zm-.544-10.763a2.483 2.483 0 0 0 -.232-1.14 1.9 1.9 0 0 0 -.607-.711 2.433 2.433 0 0 0 -.84-.366 3.987 3.987 0 0 0 -.593-.088c-.185-.011-.488-.02-.673-.02h-1.083a.338.338 0 0 0 -.337.337v4.018a.338.338 0 0 0 .337.337h1.079a5.747 5.747 0 0 0 .67-.048 3.986 3.986 0 0 0 1.539-.544 2.143 2.143 0 0 0 .74-1.775z" transform="translate(-402.209 -583.368)"/><path d="m536.1 598.989a.587.587 0 0 1 -.483-.3l-4.9-10.156a1.015 1.015 0 0 0 -.185-.3.766.766 0 0 0 -.037.337l.048 10.089a.336.336 0 0 1 -.335.337h-2.108a.338.338 0 0 1 -.337-.337v-14.573a.338.338 0 0 1 .337-.337h2.865a.583.583 0 0 1 .481.3l4.851 10.219a1.008 1.008 0 0 0 .183.3.765.765 0 0 0 .038-.337l-.025-10.154a.337.337 0 0 1 .336-.337h2.013a.338.338 0 0 1 .337.337v14.566a.338.338 0 0 1 -.337.337z" transform="translate(-457.859 -583.368)"/></g><path d="m630.435 588.276a4.578 4.578 0 0 1 -.426 2.032 4.345 4.345 0 0 1 -1.122 1.452 4.587 4.587 0 0 1 -1.6.86 8.778 8.778 0 0 1 -1.55.257c-.169.013-.446.023-.616.023h-1.551a.309.309 0 0 0 -.308.308v5.492a.309.309 0 0 1 -.308.308h-2.439a.309.309 0 0 1 -.308-.308v-14.611a.309.309 0 0 1 .308-.308h4.446c.169 0 .446.008.616.018a11.212 11.212 0 0 1 1.5.2 4.621 4.621 0 0 1 1.666.742 4.158 4.158 0 0 1 1.214 1.387 4.384 4.384 0 0 1 .478 2.148zm-2.926.033a2.136 2.136 0 0 0 -.7-1.777 3.889 3.889 0 0 0 -1.482-.514 5.34 5.34 0 0 0 -.613-.043h-1.144a.309.309 0 0 0 -.308.308v4.2a.309.309 0 0 0 .308.308h1.145a4.717 4.717 0 0 0 .612-.048 3.578 3.578 0 0 0 1.483-.583 2.369 2.369 0 0 0 .699-1.852z" fill="#1a1818" transform="translate(-533.549 -583.394)"/><path d="m693.818 599.007a.513.513 0 0 1 -.432-.282l-2.6-5.93a.513.513 0 0 0 -.432-.282h-1.119a.309.309 0 0 0 -.308.308v5.879a.309.309 0 0 1 -.308.308h-2.388a.309.309 0 0 1 -.308-.308v-14.611a.309.309 0 0 1 .308-.308h4.615c.169 0 .447.008.616.017a12.293 12.293 0 0 1 1.79.23 4.431 4.431 0 0 1 1.644.785 3.728 3.728 0 0 1 1.075 1.355 4.524 4.524 0 0 1 .388 1.957 4.162 4.162 0 0 1 -.272 1.559 3.982 3.982 0 0 1 -.686 1.151 3.62 3.62 0 0 1 -.919.763 3.945 3.945 0 0 1 -.7.307.261.261 0 0 0 -.164.37l3.027 6.453a.181.181 0 0 1 -.177.279zm-.515-10.753a2.475 2.475 0 0 0 -.233-1.14 1.9 1.9 0 0 0 -.609-.71 2.445 2.445 0 0 0 -.841-.366 4.264 4.264 0 0 0 -.625-.09c-.169-.01-.446-.018-.616-.018h-1.145a.309.309 0 0 0 -.308.308v4.072a.309.309 0 0 0 .308.308h1.145a5.256 5.256 0 0 0 .613-.043 4.118 4.118 0 0 0 1.572-.548 2.137 2.137 0 0 0 .736-1.773z" fill="#1a1818" transform="translate(-587.354 -583.394)"/><path d="m762.988 589.624a11.137 11.137 0 0 1 -.453 3.28 7.433 7.433 0 0 1 -1.308 2.527 5.883 5.883 0 0 1 -2.084 1.634 6.87 6.87 0 0 1 -5.529 0 5.911 5.911 0 0 1 -2.072-1.634 7.424 7.424 0 0 1 -1.308-2.527 11.123 11.123 0 0 1 -.453-3.28 11.308 11.308 0 0 1 .44-3.269 7.268 7.268 0 0 1 1.295-2.516 5.777 5.777 0 0 1 2.085-1.624 7.021 7.021 0 0 1 5.542 0 5.782 5.782 0 0 1 2.084 1.624 7.45 7.45 0 0 1 1.308 2.516 11.032 11.032 0 0 1 .453 3.269zm-3.211 0a10.358 10.358 0 0 0 -.22-2.183 6.1 6.1 0 0 0 -.647-1.763 3.492 3.492 0 0 0 -1.062-1.172 2.546 2.546 0 0 0 -1.463-.43 2.589 2.589 0 0 0 -1.489.43 3.486 3.486 0 0 0 -1.062 1.172 5.829 5.829 0 0 0 -.634 1.763 11.6 11.6 0 0 0 0 4.365 5.964 5.964 0 0 0 .634 1.774 3.453 3.453 0 0 0 1.062 1.183 2.792 2.792 0 0 0 2.978 0 3.457 3.457 0 0 0 1.062-1.183 5.986 5.986 0 0 0 .634-1.774 10.97 10.97 0 0 0 .207-2.182z" fill="#1a1818" transform="translate(-639.637 -581.645)"/></svg>