<svg width="32" height="32" viewBox="0 0 32 32" fill="none" xmlns="http://www.w3.org/2000/svg">
<path d="M6.94201 21.028L4.36401 7.10499L11.454 13.434L15.964 5.83899L20.476 13.434L27.564 7.10499L24.988 21.028H6.94201ZM24.988 24.828C24.9968 24.9985 24.9692 25.169 24.9072 25.3281C24.8452 25.4872 24.7502 25.6314 24.6284 25.751C24.5065 25.8707 24.3607 25.9631 24.2005 26.0222C24.0403 26.0814 23.8694 26.1058 23.699 26.094H8.23101C8.06066 26.1058 7.88973 26.0814 7.72953 26.0222C7.56933 25.9631 7.4235 25.8707 7.30166 25.751C7.17983 25.6314 7.08478 25.4872 7.02278 25.3281C6.96079 25.169 6.93326 24.9985 6.94201 24.828V23.56H24.988V24.828Z" fill="#FFC107"/>
</svg>
