<svg width="48" height="32" viewBox="0 0 48 32" fill="none" xmlns="http://www.w3.org/2000/svg">
<rect x="1.16669" y="0.5" width="45.6667" height="31" rx="3.5" fill="white" stroke="#EBEBEB"/>
<path fill-rule="evenodd" clip-rule="evenodd" d="M16.3393 20.1229C17.2737 20.1229 18.2875 20.4427 19.4099 21.4351C19.5224 21.5344 19.6721 21.4109 19.5737 21.2874C18.471 19.8977 17.451 19.6331 16.4338 19.4096C15.1892 19.1357 14.5494 18.4369 14.1034 17.6697C14.0147 17.5173 13.9747 17.5442 13.9668 17.7404C13.9568 17.9802 13.9737 18.2979 14.0275 18.6104C13.9771 18.6124 13.9268 18.6121 13.8757 18.6121C12.0958 18.6121 10.6526 17.1716 10.6526 15.3949C10.6526 13.6184 12.0958 12.1783 13.8761 12.1783C15.6559 12.1783 17.0992 13.6184 17.0992 15.3949C17.0992 15.5215 17.0929 15.6467 17.0785 15.7691C16.8432 15.7267 16.38 15.7219 16.055 15.7498C15.9329 15.7605 15.9502 15.8174 16.0426 15.834C17.1081 16.0261 17.8397 16.6853 18.0074 17.8812C18.0108 17.9088 18.0474 17.9167 18.0615 17.8929C18.5146 17.1385 18.7532 16.2748 18.7518 15.3949C18.7518 12.7078 16.5686 10.5288 13.8761 10.5288C11.1831 10.5288 9 12.7074 9 15.3949C9 18.0826 11.1831 20.2616 13.8761 20.2616C14.5901 20.2616 15.2993 20.1229 16.3393 20.1229ZM16.7021 18.3562C16.9191 18.539 16.985 18.7566 16.8705 18.9101C16.8067 18.9943 16.7032 19.0409 16.579 19.0409C16.4578 19.0409 16.3405 18.9984 16.2475 18.9208C16.0502 18.7487 15.9923 18.47 16.1209 18.3117C16.1713 18.2496 16.253 18.2154 16.351 18.2154C16.47 18.2154 16.5949 18.2654 16.7021 18.3562ZM17.7031 17.8912C17.7349 18.1044 17.6676 18.1927 17.5997 18.1927C17.5255 18.1927 17.4327 18.1064 17.3234 17.9357C17.2151 17.7673 17.1754 17.5742 17.2292 17.4766C17.2644 17.4121 17.3385 17.3838 17.432 17.4193C17.6131 17.4873 17.6838 17.7639 17.7031 17.8912ZM24.4619 16.777L23.8996 16.102C23.8864 16.0861 23.8781 16.0667 23.8755 16.0462C23.8729 16.0257 23.8762 16.0049 23.8851 15.9862C23.8939 15.9675 23.9079 15.9517 23.9254 15.9407C23.9428 15.9297 23.9631 15.9239 23.9838 15.924H25.1597C25.2156 15.7577 25.2473 15.5801 25.2473 15.3952C25.2473 14.5501 24.6168 13.8212 23.7516 13.8212C22.8865 13.8212 22.256 14.5501 22.256 15.3952C22.256 16.2403 22.8865 16.9592 23.7516 16.9592C24.0138 16.9592 24.2535 16.8926 24.4619 16.777ZM27.0055 17.917C27.0665 17.9847 27.0165 18.093 26.9244 18.093H25.6412C25.6154 18.093 25.59 18.0874 25.5666 18.0765C25.5432 18.0655 25.5225 18.0496 25.506 18.0298L25.2887 17.7687C24.831 18.0655 24.2971 18.2232 23.7516 18.2227C22.1894 18.2227 20.9187 16.9543 20.9187 15.3952C20.9187 13.8361 22.1894 12.5677 23.7516 12.5677C25.3139 12.5677 26.5846 13.8361 26.5846 15.3952C26.5846 15.9575 26.4191 16.4811 26.1345 16.9219L27.0055 17.917ZM38.8606 12.6985H37.8131C37.7762 12.6986 37.7409 12.7132 37.7149 12.7393C37.6888 12.7653 37.6741 12.8006 37.6741 12.8375V17.954C37.6741 18.0309 37.7361 18.093 37.8131 18.093H38.8606C38.9376 18.093 39 18.0309 39 17.954V12.8371C39 12.8002 38.9853 12.7647 38.9592 12.7386C38.9331 12.7125 38.8976 12.6985 38.8606 12.6985ZM37.098 12.6985H35.9266C35.8968 12.6984 35.8678 12.7078 35.8438 12.7253C35.8198 12.7429 35.802 12.7677 35.7931 12.7961L34.8659 15.8198L33.8466 12.7926C33.8373 12.765 33.8195 12.741 33.7958 12.7241C33.7721 12.7071 33.7437 12.698 33.7145 12.6981H32.897C32.8678 12.698 32.8393 12.7071 32.8155 12.724C32.7918 12.741 32.7739 12.765 32.7645 12.7926L31.7456 15.8198L30.8184 12.7961C30.8096 12.7676 30.7918 12.7428 30.7678 12.7251C30.7438 12.7075 30.7147 12.698 30.6849 12.6981H29.5132C29.4911 12.6982 29.4695 12.7034 29.4499 12.7134C29.4303 12.7234 29.4133 12.7379 29.4004 12.7557C29.3874 12.7734 29.3789 12.7939 29.3756 12.8155C29.3722 12.8371 29.3741 12.8592 29.381 12.8799L31.1023 17.9991C31.1213 18.0557 31.1747 18.0937 31.2344 18.0937H32.1644C32.2244 18.0937 32.2775 18.0557 32.2965 17.9995L33.3058 15.0085L34.3147 17.9991C34.3337 18.0557 34.3871 18.0937 34.4468 18.0937H35.3771C35.4371 18.0937 35.4903 18.0557 35.5092 17.9991L37.2305 12.8799C37.2374 12.8592 37.2393 12.8371 37.236 12.8155C37.2327 12.7939 37.2243 12.7734 37.2115 12.7557C37.1985 12.7379 37.1815 12.7234 37.1618 12.7134C37.1422 12.7034 37.1201 12.6985 37.098 12.6985ZM28.9375 12.8375V17.954C28.9375 18.0309 28.8754 18.093 28.7981 18.093H27.7509C27.714 18.093 27.6786 18.0783 27.6524 18.0523C27.6263 18.0262 27.6116 17.9909 27.6115 17.954V12.8371C27.6115 12.7602 27.6736 12.6978 27.7509 12.6978H28.7981C28.875 12.6978 28.9375 12.7602 28.9375 12.8375Z" fill="#FF8C00"/>
</svg>
