<svg width="30" height="12" viewBox="0 0 30 12" fill="none" xmlns="http://www.w3.org/2000/svg">
<path fill-rule="evenodd" clip-rule="evenodd" d="M7.33926 10.1229C8.2737 10.1229 9.28747 10.4427 10.4099 11.4351C10.5224 11.5344 10.6721 11.4109 10.5737 11.2874C9.47098 9.89769 8.451 9.63312 7.43377 9.4096C6.18923 9.13572 5.54937 8.43687 5.10337 7.66973C5.01472 7.51726 4.9747 7.54417 4.96677 7.74044C4.95677 7.98017 4.97367 8.29786 5.02748 8.61038C4.97712 8.61244 4.92676 8.6121 4.87571 8.6121C3.09582 8.6121 1.6526 7.17164 1.6526 5.39486C1.6526 3.61842 3.09582 2.17831 4.87605 2.17831C6.65594 2.17831 8.09916 3.61842 8.09916 5.39486C8.09916 5.52145 8.09295 5.64666 8.07846 5.76912C7.84321 5.72669 7.37996 5.72186 7.05503 5.7498C6.93292 5.76049 6.95017 5.81741 7.04261 5.83396C8.10813 6.02609 8.83974 6.68527 9.00738 7.88118C9.01083 7.90877 9.04739 7.9167 9.06154 7.8929C9.5146 7.13853 9.75324 6.27483 9.75176 5.39486C9.75176 2.70779 7.56864 0.528809 4.87605 0.528809C2.18312 0.528809 0 2.70744 0 5.39486C0 8.08262 2.18312 10.2616 4.87605 10.2616C5.59008 10.2616 6.29927 10.1229 7.33926 10.1229ZM7.70213 8.35616C7.9191 8.53897 7.98498 8.75663 7.87046 8.91013C7.80665 8.99429 7.70317 9.04086 7.57899 9.04086C7.45785 9.04088 7.34054 8.9984 7.2475 8.92082C7.0502 8.7487 6.99225 8.46999 7.12091 8.31166C7.17127 8.24957 7.25302 8.21542 7.35099 8.21542C7.46999 8.21542 7.59486 8.26544 7.70213 8.35616ZM8.70315 7.89118C8.73488 8.10435 8.66762 8.19265 8.59966 8.19265C8.5255 8.19265 8.43271 8.10642 8.32337 7.93568C8.21506 7.76734 8.17539 7.57418 8.2292 7.47656C8.26438 7.41206 8.33855 7.38377 8.43202 7.4193C8.61312 7.48726 8.68383 7.7639 8.70315 7.89118ZM15.4619 6.77703L14.8996 6.10198C14.8864 6.08607 14.8781 6.06672 14.8755 6.04621C14.8729 6.0257 14.8762 6.00489 14.8851 5.9862C14.8939 5.96751 14.9079 5.95174 14.9254 5.94072C14.9428 5.9297 14.9631 5.9239 14.9838 5.92399H16.1597C16.2156 5.75773 16.2473 5.58009 16.2473 5.3952C16.2473 4.5501 15.6168 3.82125 14.7516 3.82125C13.8865 3.82125 13.256 4.5501 13.256 5.3952C13.256 6.2403 13.8865 6.95915 14.7516 6.95915C15.0138 6.95915 15.2535 6.89258 15.4619 6.77703ZM18.0055 7.91705C18.0665 7.98466 18.0165 8.09297 17.9244 8.09297H16.6412C16.6154 8.093 16.59 8.08736 16.5666 8.07645C16.5432 8.06554 16.5225 8.04963 16.506 8.02984L16.2887 7.76872C15.831 8.06553 15.2971 8.22322 14.7516 8.22266C13.1894 8.22266 11.9187 6.95432 11.9187 5.3952C11.9187 3.83608 13.1894 2.56774 14.7516 2.56774C16.3139 2.56774 17.5846 3.83608 17.5846 5.3952C17.5846 5.95745 17.4191 6.48107 17.1345 6.9219L18.0055 7.91705ZM29.8606 2.69847H28.8131C28.7762 2.69856 28.7409 2.71324 28.7149 2.73929C28.6888 2.76534 28.6741 2.80064 28.6741 2.83748V7.95396C28.6741 8.03088 28.7361 8.09297 28.8131 8.09297H29.8606C29.9376 8.09297 30 8.03088 30 7.95396V2.83714C30 2.80018 29.9853 2.76473 29.9592 2.7386C29.9331 2.71246 29.8976 2.69847 29.8606 2.69847ZM28.098 2.69847H26.9266C26.8968 2.69836 26.8678 2.70777 26.8438 2.72534C26.8198 2.7429 26.802 2.7677 26.7931 2.79609L25.8659 5.81982L24.8466 2.79264C24.8373 2.76502 24.8195 2.74104 24.7958 2.72408C24.7721 2.70712 24.7437 2.69804 24.7145 2.69813H23.897C23.8678 2.69802 23.8393 2.70709 23.8155 2.72404C23.7918 2.741 23.7739 2.765 23.7645 2.79264L22.7456 5.81982L21.8184 2.79609C21.8096 2.76763 21.7918 2.74276 21.7678 2.72513C21.7438 2.7075 21.7147 2.69804 21.6849 2.69813H20.5132C20.4911 2.69816 20.4695 2.7034 20.4499 2.71341C20.4303 2.72342 20.4133 2.73792 20.4004 2.75573C20.3874 2.77337 20.3789 2.79386 20.3756 2.81547C20.3722 2.83708 20.3741 2.85918 20.381 2.87991L22.1023 7.99914C22.1213 8.05571 22.1747 8.09366 22.2344 8.09366H23.1644C23.2244 8.09366 23.2775 8.05571 23.2965 7.99949L24.3058 5.00853L25.3147 7.99914C25.3337 8.05571 25.3871 8.09366 25.4468 8.09366H26.3771C26.4371 8.09366 26.4903 8.05571 26.5092 7.99914L28.2305 2.87991C28.2374 2.8592 28.2393 2.83712 28.236 2.81552C28.2327 2.79393 28.2243 2.77343 28.2115 2.75573C28.1985 2.7379 28.1815 2.72338 28.1618 2.71337C28.1422 2.70336 28.1201 2.69848 28.098 2.69847ZM19.9375 2.83748V7.95396C19.9375 8.03088 19.8754 8.09297 19.7981 8.09297H18.7509C18.714 8.09297 18.6786 8.07833 18.6524 8.05227C18.6263 8.02621 18.6116 7.99086 18.6115 7.95396V2.83714C18.6115 2.76022 18.6736 2.69778 18.7509 2.69778H19.7981C19.875 2.69778 19.9375 2.76022 19.9375 2.83748Z" fill="#FF8C00"/>
</svg>
