<svg width="39" height="30" viewBox="0 0 39 30" fill="none" xmlns="http://www.w3.org/2000/svg">
<path d="M37.9635 0.884691C38.3777 0.885899 38.7125 1.22266 38.7113 1.63687C38.7101 2.05108 38.3733 2.38589 37.9591 2.38469L37.9635 0.884691ZM4.3279 29.0533C3.95537 29.2344 3.50657 29.0792 3.32548 28.7067L0.374426 22.6359C0.193334 22.2634 0.348525 21.8146 0.721056 21.6335C1.09359 21.4524 1.54239 21.6076 1.72348 21.9801L4.34664 27.3763L9.74284 24.7532C10.1154 24.5721 10.5642 24.7273 10.7453 25.0998C10.9264 25.4723 10.7712 25.9211 10.3986 26.1022L4.3279 29.0533ZM37.9591 2.38469C25.9224 2.34962 17.6268 8.8593 12.3061 15.4508C9.64635 18.7458 7.74343 22.0467 6.50561 24.525C5.88714 25.7633 5.43592 26.7937 5.14021 27.5121C4.99238 27.8713 4.88349 28.1522 4.81207 28.3419C4.77636 28.4367 4.75003 28.5087 4.73288 28.5563C4.72431 28.5801 4.71803 28.5977 4.71403 28.609C4.71203 28.6147 4.7106 28.6188 4.70973 28.6213C4.7093 28.6225 4.70901 28.6234 4.70885 28.6238C4.70878 28.624 4.70877 28.624 4.70874 28.6241C4.70876 28.6241 4.70883 28.6239 4.00001 28.3788C3.29119 28.1337 3.29132 28.1333 3.29149 28.1328C3.2916 28.1325 3.2918 28.1319 3.29201 28.1313C3.29243 28.1301 3.29299 28.1285 3.29369 28.1265C3.29509 28.1225 3.29707 28.1168 3.29962 28.1096C3.30472 28.0952 3.31212 28.0744 3.32184 28.0474C3.34129 27.9935 3.37004 27.9149 3.40828 27.8133C3.48474 27.6103 3.59919 27.3151 3.75313 26.9412C4.06096 26.1933 4.52705 25.1294 5.16367 23.8548C6.43601 21.3073 8.39433 17.9087 11.1389 14.5087C16.6267 7.71018 25.3117 0.847832 37.9635 0.884691L37.9591 2.38469Z" fill="#DB0A5B"/>
</svg>
