<svg width="132" height="162" viewBox="0 0 132 162" fill="none" xmlns="http://www.w3.org/2000/svg">
<path fill-rule="evenodd" clip-rule="evenodd" d="M58.5 112.284C95 114.281 112 88.5868 112 56.8918C112 25.1968 95 1 58.5 1C38 1 28.2124 7.55142 18 16.47C6.43296 26.5717 1 40.0586 1 56.8918C1 85.8357 22 110.288 58.5 112.284Z" stroke="#191919"/>
<path fill-rule="evenodd" clip-rule="evenodd" d="M58.3919 108.688C92.9189 110.584 109 86.181 109 56.0789C109 25.9768 92.9189 2.99609 58.3919 2.99609C39 2.99609 29.7414 9.21826 20.0811 17.6887C9.13928 27.2826 4 40.0917 4 56.0789C4 83.5682 23.8649 106.792 58.3919 108.688Z" fill="none" stroke="#191919" stroke-width="0.5"/>
<path d="M84.4388 107.245C92.2056 118.991 98.6161 123.529 103.369 133.357C106.152 139.111 113.183 154.992 116.99 158.658C118.095 159.722 127.126 166.162 127.671 156.146C128.104 148.171 116.741 135.063 112.743 132.108C101.606 123.878 102.003 115.709 91.5594 103.391" stroke="#191919" stroke-width="0.5"/>
<mask id="mask0_2827_39516" style="mask-type:alpha" maskUnits="userSpaceOnUse" x="5" y="3" width="104" height="106">
<path d="M58.8739 108.689C93.0721 110.567 109 86.3943 109 56.5762C109 26.758 93.0721 3.99414 58.8739 3.99414C39.6667 3.99414 30.4963 10.1576 20.9279 18.5481C10.0903 28.0516 5 40.7398 5 56.5762C5 83.8061 24.6757 106.811 58.8739 108.689Z" fill="white"/>
</mask>
<g mask="url(#mask0_2827_39516)">
<path d="M65 32.9381H-81V88.8299H65V32.9381Z" fill="white" stroke="#007A7C"/>
<path d="M40.5 62.8801H39.71L39.43 62.6106C40.41 61.4728 41 59.9957 41 58.3888C41 54.8057 38.09 51.9014 34.5 51.9014C30.91 51.9014 28 54.8057 28 58.3888C28 61.9719 30.91 64.8762 34.5 64.8762C36.11 64.8762 37.59 64.2874 38.73 63.3093L39 63.5887V64.3772L44 69.3576L45.49 67.8704L40.5 62.8801ZM34.5 62.8801C32.01 62.8801 30 60.874 30 58.3888C30 55.9036 32.01 53.8975 34.5 53.8975C36.99 53.8975 39 55.9036 39 58.3888C39 60.874 36.99 62.8801 34.5 62.8801Z" fill="#007A7C"/>
<path d="M-295 88.8298H65" stroke="#007A7C"/>
</g>
<defs>
<radialGradient id="paint0_radial_2827_39516" cx="0" cy="0" r="1" gradientUnits="userSpaceOnUse" gradientTransform="translate(109 29.9439) rotate(101.871) scale(72.9212 72.3614)">
<stop stop-color="#F8F8F8" stop-opacity="0"/>
<stop offset="1" stop-color="#F8F8F8"/>
</radialGradient>
</defs>
</svg>
