<svg width="144" height="144" viewBox="0 0 144 144" fill="none" xmlns="http://www.w3.org/2000/svg">
<path d="M30.0015 18H113.999C115.575 18 117.135 18.3104 118.591 18.9136C120.047 19.5167 121.37 20.4007 122.485 21.5152C123.599 22.6296 124.483 23.9526 125.086 25.4087C125.69 26.8648 126 28.4254 126 30.0015V113.999C126 115.575 125.69 117.135 125.086 118.591C124.483 120.047 123.599 121.37 122.485 122.485C121.37 123.599 120.047 124.483 118.591 125.086C117.135 125.69 115.575 126 113.999 126H30.0015C28.4254 126 26.8648 125.69 25.4087 125.086C23.9526 124.483 22.6296 123.599 21.5152 122.485C20.4007 121.37 19.5167 120.047 18.9136 118.591C18.3104 117.135 18 115.575 18 113.999V30.0015C18 26.8185 19.2644 23.7659 21.5152 21.5152C23.7659 19.2644 26.8185 18 30.0015 18V18Z" fill="#F5F5F5"/>
<path d="M50.9985 41.9985H32.9985V54H50.9985V41.9985Z" fill="black"/>
<path d="M50.9985 65.9971H32.9985V77.9986H50.9985V65.9971Z" fill="black"/>
<path d="M50.9985 90H32.9985V102.001H50.9985V90Z" fill="black"/>
<path d="M110.997 41.9985H92.9971V54H110.997V41.9985Z" fill="black"/>
<path d="M110.997 65.9971H92.9971V77.9986H110.997V65.9971Z" fill="black"/>
<path d="M110.997 90H92.9971V102.001H110.997V90Z" fill="black"/>
<path d="M81 41.9985H63V54H81V41.9985Z" fill="black"/>
<path d="M81 65.9971H63V77.9986H81V65.9971Z" fill="black"/>
<path d="M81 90H63V102.001H81V90Z" fill="black"/>
</svg>
