<svg width="236" height="206" viewBox="0 0 236 206" fill="none" xmlns="http://www.w3.org/2000/svg">
<g clip-path="url(#clip0_1368:13716)">
<mask id="mask0_1368:13716" style="mask-type:alpha" maskUnits="userSpaceOnUse" x="39" y="8" width="197" height="198">
<path d="M137.582 206C191.937 206 236 161.87 236 107.434C236 52.9971 191.937 8.86749 137.582 8.86749C83.2265 8.86749 39.1631 52.9971 39.1631 107.434C39.1631 161.87 83.2265 206 137.582 206Z" fill="white"/>
</mask>
<g mask="url(#mask0_1368:13716)">
<path fill-rule="evenodd" clip-rule="evenodd" d="M138.751 107.393C139.217 109.746 140.02 111.584 141.159 112.91C148.286 121.204 162.538 107.746 159.688 105.868C159.621 105.824 159.555 105.78 159.488 105.736C163.972 105.906 168.405 109.058 172.789 115.19C191.724 141.677 214.801 216.293 208.813 233.623C205.167 244.174 184.104 246.583 161.014 249.224C131.303 252.622 98.237 256.403 94.6078 278.41C83.2817 281.564 50.402 252.316 55.753 233.623C55.753 233.623 78.4052 204.291 111.44 201.768C171.502 197.18 147.496 144.782 137.576 123.129C135.54 118.685 134.097 115.536 134.097 114.362C134.093 109.763 135.596 107.396 138.603 107.263L138.751 107.393Z" fill="#0A5ADB"/>
<path opacity="0.08" d="M140.308 71.2486C142.565 71.2486 144.394 70.4851 144.394 69.5433C144.394 68.6015 142.565 67.838 140.308 67.838C138.051 67.838 136.221 68.6015 136.221 69.5433C136.221 70.4851 138.051 71.2486 140.308 71.2486Z" fill="#0A5ADB"/>
</g>
<path opacity="0.08" fill-rule="evenodd" clip-rule="evenodd" d="M9.66222 11.2611L80.0186 6.01354C82.5665 5.8235 84.7908 7.67402 84.9866 10.1468C84.9957 10.2613 85.0002 10.3761 85.0002 10.4909V53.8671C85.0002 56.3472 82.9286 58.3576 80.3731 58.3576C80.3415 58.3576 80.3098 58.3573 80.2782 58.3567L61.8045 57.9887C58.9857 64.4039 55.5241 69.4077 51.4198 73.0001C51.4198 70.1262 51.2961 66.3841 51.0486 61.7738H8.62737C6.07188 61.7738 4.00024 59.7633 4.00024 57.2832C4.00024 57.2347 4.00106 57.1861 4.00268 57.1376L5.39209 15.5927C5.46867 13.3032 7.30874 11.4366 9.66222 11.2611Z" fill="#0A5ADB"/>
</g>
<defs>
<clipPath id="clip0_1368:13716">
<rect width="236" height="206" fill="white"/>
</clipPath>
</defs>
</svg>
