<svg width="236" height="206" viewBox="0 0 236 206" fill="none" xmlns="http://www.w3.org/2000/svg">
<g clip-path="url(#clip0_1427:19415)">
<mask id="mask0_1427:19415" style="mask-type:alpha" maskUnits="userSpaceOnUse" x="39" y="8" width="197" height="198">
<path d="M137.582 206C191.937 206 236 161.87 236 107.434C236 52.997 191.937 8.86743 137.582 8.86743C83.2265 8.86743 39.1631 52.997 39.1631 107.434C39.1631 161.87 83.2265 206 137.582 206Z" fill="white"/>
</mask>
<g mask="url(#mask0_1427:19415)">
<path d="M235.625 107.434C235.625 161.664 191.729 205.625 137.582 205.625C83.4342 205.625 39.5381 161.664 39.5381 107.434C39.5381 53.2036 83.4342 9.24243 137.582 9.24243C191.729 9.24243 235.625 53.2036 235.625 107.434Z" stroke="black" stroke-width="0.75"/>
<path fill-rule="evenodd" clip-rule="evenodd" d="M138.603 107.263C135.596 107.396 134.093 109.763 134.097 114.362C134.101 121.26 183.829 196.239 111.44 201.768C78.4052 204.291 55.753 233.623 55.753 233.623C50.402 252.316 83.2817 281.564 94.6078 278.41C101.057 239.3 200.475 257.751 208.813 233.623C214.801 216.293 191.724 141.677 172.789 115.19C168.28 108.882 163.718 105.728 159.104 105.728C158.625 110.958 154.175 113.573 145.755 113.573" fill="#7A003B"/>
<path d="M131.423 107.463C129.116 107.463 127.964 109.763 127.967 114.362C127.972 121.26 177.699 196.239 105.31 201.768C72.2755 204.291 49.6233 233.623 49.6233 233.623C44.2723 252.316 77.152 281.564 88.4781 278.41C94.9277 239.3 194.346 257.751 202.683 233.623C208.671 216.293 185.595 141.677 166.66 115.19C162.15 108.882 157.588 105.728 152.974 105.728" stroke="#191919" stroke-width="0.75" stroke-linecap="round" stroke-linejoin="round"/>
<path fill-rule="evenodd" clip-rule="evenodd" d="M139.101 92.0971C137.506 102.519 138.192 109.456 141.159 112.91C148.286 121.203 162.538 107.746 159.688 105.868C153.6 101.857 150.38 96.7977 150.028 90.6887" fill="#F3F3F3"/>
<path d="M139.101 92.0971C137.506 102.519 138.192 109.456 141.159 112.91C148.286 121.203 162.538 107.746 159.688 105.868C153.6 101.857 150.38 96.7977 150.028 90.6887" stroke="#191919" stroke-width="0.75" stroke-linecap="round" stroke-linejoin="round"/>
<path d="M142.035 91.839C128.865 90.685 119.288 77.1549 120.646 61.6187C122.003 46.0826 133.78 34.4235 146.95 35.5775C160.121 36.7315 169.697 50.2615 168.34 65.7977C166.983 81.3339 155.206 92.993 142.035 91.839Z" stroke="#191919" stroke-width="0.75"/>
<path d="M138.222 60.9485C137.673 60.8214 137.398 59.9744 137.61 59.0567C137.821 58.1391 138.439 57.4982 138.988 57.6253C139.538 57.7524 139.812 58.5994 139.601 59.5171C139.389 60.4347 138.772 61.0756 138.222 60.9485Z" fill="#191919"/>
<path d="M140.308 71.2485C142.565 71.2485 144.394 70.485 144.394 69.5432C144.394 68.6014 142.565 67.8379 140.308 67.8379C138.051 67.8379 136.221 68.6014 136.221 69.5432C136.221 70.485 138.051 71.2485 140.308 71.2485Z" fill="url(#paint0_radial_1427:19415)"/>
<path d="M126.193 56.148C125.679 56.0572 125.372 55.3576 125.508 54.5854C125.644 53.8132 126.171 53.2608 126.685 53.3515C127.199 53.4423 127.505 54.1419 127.369 54.9141C127.233 55.6863 126.706 56.2387 126.193 56.148Z" fill="#191919"/>
<path d="M126.515 61.6987C125.38 67.0799 124.813 70.0926 124.813 70.7368C124.813 71.381 125.38 71.9495 126.515 72.4421" stroke="#191919" stroke-linecap="round" stroke-linejoin="round"/>
<path d="M125.662 112.72C125.429 113.115 118.454 134.036 113.573 133.184C98.9294 130.626 75.191 90.5513 73.3882 90.5513C71.5152 90.5513 81.2368 133.137 109.997 150.578C117.585 155.179 126.496 146.88 136.73 125.68" stroke="#191919" stroke-width="0.75" stroke-linecap="round" stroke-linejoin="round"/>
<path fill-rule="evenodd" clip-rule="evenodd" d="M71.4077 89.9647C65.1026 88.5605 48.8 73.8794 58.4012 68.1262C60.4438 66.9022 61.6809 64.4002 61.6053 60.2594C61.3158 44.4124 78.9059 91.6348 71.4077 89.9647Z" stroke="#191919" stroke-width="0.75"/>
</g>
<path fill-rule="evenodd" clip-rule="evenodd" d="M9.66222 11.2609L80.0186 6.01342C82.5665 5.82338 84.7908 7.6739 84.9866 10.1467C84.9957 10.2612 85.0002 10.3759 85.0002 10.4908V53.867C85.0002 56.347 82.9286 58.3575 80.3731 58.3575C80.3415 58.3575 80.3098 58.3572 80.2782 58.3566L61.8045 57.9886C58.9857 64.4038 55.5241 69.4076 51.4198 73C51.4198 70.1261 51.2961 66.3839 51.0486 61.7736H8.62737C6.07188 61.7736 4.00024 59.7632 4.00024 57.2831C4.00024 57.2345 4.00106 57.186 4.00268 57.1374L5.39209 15.5926C5.46867 13.3031 7.30874 11.4365 9.66222 11.2609Z" fill="#7A003B" fill-opacity="0.08"/>
<path fill-rule="evenodd" clip-rule="evenodd" d="M5.90383 5.54794L73.2192 0.366767C75.6571 0.179129 77.7852 2.00625 77.9726 4.44776C77.9812 4.5608 77.9856 4.67413 77.9856 4.78751V47.6154C77.9856 50.0641 76.0035 52.0491 73.5585 52.0491C73.5282 52.0491 73.4979 52.0488 73.4676 52.0482L55.7924 51.6849C53.0954 58.019 49.7835 62.9595 45.8566 66.5065C45.8566 63.6689 45.7382 59.9741 45.5014 55.4221H4.9137C2.46867 55.4221 0.486572 53.437 0.486572 50.9883C0.486572 50.9404 0.487349 50.8924 0.488902 50.8445L1.81826 9.82485C1.89153 7.56425 3.65207 5.72125 5.90383 5.54794Z" stroke="#191919" stroke-width="0.75"/>
<path d="M9.76685 15.8591H68.5593" stroke="#191919" stroke-width="0.75" stroke-linecap="round" stroke-linejoin="round"/>
<path d="M10.448 30.1838H69.2405" stroke="#191919" stroke-width="0.75" stroke-linecap="round" stroke-linejoin="round"/>
<path d="M10 44H47" stroke="#191919" stroke-width="0.75" stroke-linecap="round" stroke-linejoin="round"/>
</g>
<defs>
<radialGradient id="paint0_radial_1427:19415" cx="0" cy="0" r="1" gradientUnits="userSpaceOnUse" gradientTransform="translate(103.384 55.5943) rotate(90) scale(4.0927 0.709476)">
<stop stop-color="#DEDDDD"/>
<stop offset="1" stop-color="#DADADA"/>
</radialGradient>
<clipPath id="clip0_1427:19415">
<rect width="236" height="206" fill="white"/>
</clipPath>
</defs>
</svg>
