<svg width="236" height="206" viewBox="0 0 236 206" fill="none" xmlns="http://www.w3.org/2000/svg">
<g clip-path="url(#clip0_1368:13692)">
<mask id="mask0_1368:13692" style="mask-type:alpha" maskUnits="userSpaceOnUse" x="39" y="8" width="197" height="198">
<path d="M137.582 206C191.937 206 236 161.87 236 107.434C236 52.9971 191.937 8.86749 137.582 8.86749C83.2265 8.86749 39.1631 52.9971 39.1631 107.434C39.1631 161.87 83.2265 206 137.582 206Z" fill="white"/>
</mask>
<g mask="url(#mask0_1368:13692)">
<path d="M235.625 107.434C235.625 161.664 191.729 205.625 137.582 205.625C83.4342 205.625 39.5381 161.664 39.5381 107.434C39.5381 53.2037 83.4342 9.24249 137.582 9.24249C191.729 9.24249 235.625 53.2037 235.625 107.434Z" stroke="black" stroke-width="0.75"/>
<path d="M131.423 107.463C129.116 107.463 127.964 109.763 127.967 114.362C127.971 121.26 177.699 196.239 105.31 201.768C72.2753 204.291 49.6232 233.623 49.6232 233.623C44.2722 252.316 77.1519 281.564 88.4779 278.41C94.9275 239.3 194.345 257.751 202.683 233.623C208.671 216.293 185.594 141.677 166.659 115.19C162.15 108.882 157.588 105.728 152.974 105.728" stroke="#191919" stroke-width="0.75" stroke-linecap="round" stroke-linejoin="round"/>
<path fill-rule="evenodd" clip-rule="evenodd" d="M139.101 92.0973C137.506 102.519 138.192 109.457 141.159 112.91C148.286 121.204 162.538 107.746 159.688 105.868C153.6 101.858 150.38 96.798 150.028 90.689" fill="white"/>
<path d="M139.101 92.0973C137.506 102.519 138.192 109.457 141.159 112.91C148.286 121.204 162.538 107.746 159.688 105.868C153.6 101.858 150.38 96.798 150.028 90.689" stroke="#191919" stroke-width="0.75" stroke-linecap="round" stroke-linejoin="round"/>
<path d="M142.035 91.8391C128.865 90.6851 119.288 77.1551 120.645 61.6189C122.003 46.0827 133.78 34.4237 146.95 35.5777C160.121 36.7317 169.697 50.2617 168.34 65.7979C166.983 81.3341 155.206 92.9931 142.035 91.8391Z" stroke="#191919" stroke-width="0.75"/>
<path d="M138.222 60.9485C137.673 60.8214 137.398 59.9745 137.61 59.0568C137.821 58.1391 138.439 57.4982 138.988 57.6254C139.538 57.7525 139.812 58.5994 139.601 59.5171C139.389 60.4348 138.772 61.0757 138.222 60.9485Z" fill="#191919"/>
<path d="M126.193 56.1481C125.679 56.0573 125.372 55.3578 125.508 54.5855C125.644 53.8133 126.171 53.2609 126.685 53.3517C127.199 53.4424 127.505 54.142 127.369 54.9142C127.233 55.6864 126.706 56.2389 126.193 56.1481Z" fill="#191919"/>
<path d="M126.515 61.6989C125.38 67.0801 124.813 70.0928 124.813 70.737C124.813 71.3812 125.38 71.9496 126.515 72.4423" stroke="#191919" stroke-linecap="round" stroke-linejoin="round"/>
<path d="M125.662 112.72C125.429 113.115 118.454 134.036 113.573 133.184C98.9294 130.626 75.191 90.5513 73.3882 90.5513C71.5152 90.5513 81.2368 133.137 109.997 150.578C117.585 155.179 126.496 146.88 136.73 125.68" stroke="#191919" stroke-width="0.75" stroke-linecap="round" stroke-linejoin="round"/>
<path fill-rule="evenodd" clip-rule="evenodd" d="M71.4076 89.9648C65.1025 88.5605 48.7999 73.8795 58.4011 68.1262C60.4437 66.9023 61.6808 64.4002 61.6052 60.2594C61.3157 44.4125 78.9059 91.6349 71.4076 89.9648Z" stroke="#191919" stroke-width="0.75"/>
</g>
<path fill-rule="evenodd" clip-rule="evenodd" d="M5.90383 5.54806L73.2192 0.366889C75.6571 0.179251 77.7852 2.00637 77.9726 4.44788C77.9812 4.56092 77.9856 4.67425 77.9856 4.78763V47.6155C77.9856 50.0642 76.0035 52.0493 73.5585 52.0493C73.5282 52.0493 73.4979 52.049 73.4676 52.0483L55.7924 51.685C53.0954 58.0191 49.7835 62.9596 45.8566 66.5066C45.8566 63.669 45.7382 59.9742 45.5014 55.4222H4.9137C2.46867 55.4222 0.486572 53.4371 0.486572 50.9884C0.486572 50.9405 0.487349 50.8925 0.488902 50.8446L1.81826 9.82497C1.89153 7.56438 3.65207 5.72137 5.90383 5.54806Z" stroke="#191919" stroke-width="0.75"/>
<path d="M9.76685 15.8593H68.5593" stroke="#191919" stroke-width="0.75" stroke-linecap="round" stroke-linejoin="round"/>
<path d="M10.4479 30.1838H69.2403" stroke="#191919" stroke-width="0.75" stroke-linecap="round" stroke-linejoin="round"/>
<path d="M10 44.0001H47" stroke="#191919" stroke-width="0.75" stroke-linecap="round" stroke-linejoin="round"/>
</g>
<defs>
<clipPath id="clip0_1368:13692">
<rect width="236" height="206" fill="white"/>
</clipPath>
</defs>
</svg>
