<svg height="24" viewBox="0 0 24 24" width="24" xmlns="http://www.w3.org/2000/svg" xmlns:xlink="http://www.w3.org/1999/xlink"><clipPath id="a"><path d="m0 0h24v24h-24z"/></clipPath><g clip-path="url(#a)"><path d="m176.667 58.667a11 11 0 1 1 -11 11 11 11 0 0 1 11-11z" fill="#53ae94" transform="translate(-164.667 -57.667)"/><path d="m176.583 66.4v-1.637h3.742v-2.493h-10.189v2.493h3.743v1.637c-3.042.14-5.33.742-5.33 1.464s2.289 1.324 5.33 1.465v5.241h2.706v-5.244c3.036-.14 5.318-.742 5.318-1.463s-2.282-1.323-5.318-1.463zm0 2.482c-.077 0-.47.028-1.342.028-.7 0-1.19-.02-1.362-.029-2.688-.119-4.693-.587-4.693-1.147s2.006-1.027 4.693-1.146v1.827c.176.012.678.042 1.374.042.834 0 1.254-.035 1.331-.042v-1.826c2.682.119 4.683.588 4.683 1.146s-2 1.027-4.683 1.146" fill="#fff" transform="translate(-163.225 -55.865)"/></g></svg>