<svg width="47" height="32" viewBox="0 0 47 32" fill="none" xmlns="http://www.w3.org/2000/svg">
<rect x="0.833374" y="0.5" width="45.6667" height="31" rx="3.5" fill="white" stroke="#EBEBEB"/>
<path d="M14.7704 6.66821H22.1248C23.1514 6.66821 23.7899 7.50498 23.5504 8.53499L20.1264 23.2355C19.8848 24.2619 18.8569 25.0994 17.8296 25.0994H10.4759C9.45076 25.0994 8.81081 24.2619 9.0503 23.2355L12.4757 8.53499C12.7152 7.50498 13.7425 6.66821 14.7704 6.66821Z" fill="#E21836"/>
<path d="M21.5124 6.66675H29.9697C30.9961 6.66675 30.5333 7.50352 30.2918 8.53353L26.8684 23.234C26.6282 24.2604 26.7031 25.0979 25.6745 25.0979H17.2172C16.1886 25.0979 15.5521 24.2604 15.7937 23.234L19.217 8.53353C19.46 7.50352 20.4852 6.66675 21.5124 6.66675Z" fill="#00447C"/>
<path d="M29.6344 6.66675H36.9888C38.0168 6.66675 38.6553 7.50352 38.4138 8.53353L34.9904 23.234C34.7488 24.2604 33.7202 25.0979 32.6923 25.0979H25.3414C24.3128 25.0979 23.6748 24.2604 23.9157 23.234L27.3397 8.53353C27.5792 7.50352 28.6058 6.66675 29.6344 6.66675Z" fill="#007B84"/>
<path d="M16.6907 11.3778C15.9345 11.3855 15.7111 11.3778 15.6398 11.3609C15.6123 11.4912 15.102 13.8454 15.1006 13.8474C14.9907 14.3237 14.9107 14.6632 14.6391 14.8824C14.485 15.0099 14.305 15.0713 14.0964 15.0713C13.761 15.0713 13.5656 14.9048 13.5328 14.589L13.5265 14.4805C13.5265 14.4805 13.6287 13.8425 13.6287 13.839C13.6287 13.839 14.1643 11.6936 14.2602 11.41C14.2652 11.3939 14.2667 11.3855 14.2679 11.3778C13.2253 11.3869 13.0405 11.3778 13.0278 11.3609C13.0208 11.384 12.995 11.517 12.995 11.517L12.4481 13.935L12.4011 14.1401L12.3102 14.8109C12.3102 15.0099 12.3493 15.1723 12.4271 15.3096C12.6763 15.745 13.387 15.8102 13.7891 15.8102C14.3072 15.8102 14.7931 15.7002 15.1215 15.4992C15.6916 15.1624 15.8407 14.6359 15.9737 14.1681L16.0354 13.928C16.0354 13.928 16.5871 11.6999 16.6809 11.41C16.6845 11.3939 16.6859 11.3855 16.6907 11.3778ZM18.568 13.1752C18.435 13.1752 18.192 13.2075 17.9736 13.3145C17.8944 13.3552 17.8195 13.4022 17.7404 13.449L17.8118 13.1914L17.7727 13.148C17.3097 13.2417 17.206 13.2543 16.7783 13.3145L16.7425 13.3384C16.6928 13.7501 16.6487 14.0597 16.4646 14.869C16.3946 15.1673 16.3218 15.4685 16.2488 15.766L16.2685 15.8039C16.7068 15.7807 16.8398 15.7807 17.2207 15.787L17.2516 15.7535C17.3 15.5056 17.3063 15.4475 17.4134 14.9454C17.4638 14.7074 17.5689 14.1843 17.6207 13.998C17.7159 13.9539 17.8098 13.9106 17.8994 13.9106C18.1129 13.9106 18.0869 14.0968 18.0787 14.171C18.0695 14.2956 17.9917 14.7025 17.912 15.0519L17.8587 15.2774C17.8216 15.4439 17.7809 15.6058 17.7438 15.7709L17.76 15.8039C18.192 15.7807 18.3237 15.7807 18.6926 15.787L18.736 15.7535C18.8027 15.3663 18.8222 15.2627 18.9405 14.6989L19.0001 14.4399C19.1157 13.933 19.1738 13.6759 19.0863 13.4665C18.9938 13.2319 18.7719 13.1752 18.568 13.1752ZM20.6652 13.706C20.4356 13.7501 20.2891 13.7795 20.1436 13.7985C19.9993 13.8216 19.8585 13.8426 19.6366 13.8734L19.6191 13.8894L19.6029 13.9021C19.5798 14.0674 19.5637 14.2103 19.533 14.3782C19.507 14.5519 19.4671 14.7493 19.402 15.0329C19.3516 15.2499 19.3256 15.3256 19.2969 15.402C19.269 15.4783 19.2381 15.5525 19.1815 15.766L19.1948 15.7857L19.2059 15.8038C19.4133 15.794 19.549 15.787 19.6884 15.7857C19.8277 15.7807 19.972 15.7857 20.1954 15.787L20.2149 15.771L20.2359 15.7535C20.2681 15.561 20.273 15.5091 20.2927 15.4152C20.3122 15.3145 20.3459 15.175 20.4286 14.8025C20.4677 14.6276 20.5112 14.4531 20.5517 14.2746C20.5939 14.0968 20.638 13.9216 20.6799 13.7467L20.6736 13.7255L20.6652 13.706ZM20.6701 12.9904C20.4614 12.8672 20.0952 12.9063 19.8487 13.0764C19.603 13.2431 19.575 13.4797 19.783 13.6045C19.988 13.7243 20.3557 13.6886 20.6 13.517C20.8452 13.3467 20.8759 13.1123 20.6701 12.9904ZM21.932 15.8424C22.3541 15.8424 22.7869 15.7261 23.1126 15.3809C23.3632 15.1009 23.4781 14.6843 23.5179 14.5127C23.6475 13.9441 23.5465 13.6786 23.4198 13.5169C23.2273 13.2705 22.8871 13.1914 22.5341 13.1914C22.3219 13.1914 21.8164 13.2124 21.4215 13.5765C21.1379 13.8391 21.0068 14.1954 20.9278 14.5371C20.848 14.8852 20.7562 15.5119 21.3325 15.7451C21.5104 15.8215 21.7667 15.8424 21.932 15.8424ZM21.899 14.5631C21.9963 14.1325 22.1112 13.7711 22.4045 13.7711C22.6343 13.7711 22.651 14.04 22.5488 14.472C22.5305 14.5679 22.4466 14.9245 22.3332 15.0763C22.2539 15.1883 22.1602 15.2563 22.0566 15.2563C22.0257 15.2563 21.8423 15.2563 21.8395 14.984C21.838 14.8495 21.8655 14.7122 21.899 14.5631ZM24.5731 15.7871L24.6061 15.7535C24.6529 15.5056 24.6606 15.4474 24.7642 14.9455C24.816 14.7074 24.9232 14.1843 24.9736 13.9981C25.069 13.9538 25.1613 13.9104 25.2538 13.9104C25.4658 13.9104 25.44 14.0967 25.4316 14.1709C25.4239 14.2957 25.3461 14.7024 25.2649 15.0518L25.2145 15.2773C25.176 15.444 25.134 15.6057 25.0969 15.7709L25.1131 15.8039C25.5465 15.7808 25.6732 15.7808 26.0443 15.7871L26.0891 15.7535C26.1542 15.3662 26.1718 15.2626 26.2937 14.699L26.3517 14.4398C26.4679 13.9328 26.5267 13.676 26.4406 13.4666C26.3455 13.2319 26.1221 13.1753 25.9212 13.1753C25.788 13.1753 25.5436 13.2074 25.3266 13.3146C25.2489 13.3553 25.1711 13.4021 25.0948 13.449L25.1613 13.1914L25.1256 13.1479C24.6628 13.2418 24.557 13.2543 24.1298 13.3146L24.097 13.3384C24.0452 13.7502 24.0031 14.0596 23.819 14.8691C23.7489 15.1674 23.6761 15.4685 23.6034 15.7661L23.6229 15.8039C24.0619 15.7808 24.1929 15.7808 24.5731 15.7871ZM27.7577 15.8038C27.785 15.6708 27.9468 14.8824 27.9483 14.8824C27.9483 14.8824 28.0861 14.304 28.0946 14.283C28.0946 14.283 28.1379 14.2228 28.1813 14.1989H28.2451C28.8473 14.1989 29.5272 14.1989 30.0601 13.8069C30.4227 13.538 30.6707 13.141 30.7813 12.6584C30.8099 12.5401 30.8311 12.3994 30.8311 12.2587C30.8311 12.0739 30.794 11.891 30.6868 11.7481C30.415 11.3679 29.8739 11.3609 29.2491 11.3581C29.2472 11.3581 28.9412 11.3609 28.9412 11.3609C28.1415 11.3708 27.8208 11.3679 27.6891 11.3518C27.678 11.4101 27.657 11.5137 27.657 11.5137C27.657 11.5137 27.3705 12.8413 27.3705 12.8434C27.3705 12.8434 26.6851 15.666 26.6528 15.799C27.351 15.7906 27.6373 15.7906 27.7577 15.8038ZM28.2885 13.4455C28.2885 13.4455 28.5931 12.1206 28.5916 12.1257L28.6015 12.0577L28.6058 12.0059L28.7275 12.0185C28.7275 12.0185 29.3556 12.0724 29.3703 12.0739C29.6182 12.1698 29.7204 12.417 29.6491 12.7396C29.584 13.0345 29.3927 13.2824 29.147 13.4021C28.9446 13.5036 28.6967 13.512 28.4412 13.512H28.276L28.2885 13.4455ZM30.1848 14.5876C30.1043 14.9307 30.0118 15.5574 30.5852 15.7808C30.7681 15.8586 30.9319 15.8817 31.0984 15.8733C31.2743 15.8638 31.4372 15.7756 31.5882 15.6486C31.5745 15.7008 31.5609 15.753 31.5473 15.8053L31.5733 15.8388C31.9858 15.8214 32.1137 15.8214 32.5606 15.8249L32.6011 15.794C32.6664 15.4104 32.7279 15.0379 32.8975 14.304C32.9801 13.9525 33.0625 13.6044 33.1473 13.2543L33.1341 13.2158C32.6727 13.3013 32.5493 13.3196 32.1055 13.3825L32.0718 13.4099C32.0673 13.4456 32.0627 13.4798 32.0584 13.5141C31.9893 13.4026 31.8893 13.3074 31.735 13.248C31.5376 13.1704 31.0741 13.2704 30.6756 13.6333C30.3956 13.8923 30.2611 14.2472 30.1848 14.5876ZM31.1538 14.6086C31.2526 14.1857 31.3661 13.8279 31.66 13.8279C31.8459 13.8279 31.9438 13.9995 31.9239 14.292C31.9081 14.365 31.8911 14.4419 31.8709 14.5288C31.8415 14.6545 31.8095 14.7791 31.7785 14.9038C31.747 14.9892 31.7102 15.0696 31.6699 15.1232C31.5943 15.2304 31.4143 15.2969 31.3107 15.2969C31.2813 15.2969 31.0999 15.2969 31.0936 15.0295C31.0922 14.8963 31.1196 14.7592 31.1538 14.6086ZM36.2143 13.2123L36.1787 13.1717C35.7221 13.2642 35.6395 13.2789 35.22 13.3355L35.1892 13.3663C35.1877 13.3713 35.1865 13.3791 35.1843 13.386L35.1829 13.3791C34.8706 14.0995 34.8798 13.9441 34.6256 14.5112C34.6241 14.4854 34.6241 14.4693 34.6227 14.4419L34.5591 13.2123L34.5191 13.1717C34.0408 13.2642 34.0296 13.2789 33.5879 13.3355L33.5534 13.3663C33.5486 13.381 33.5486 13.3972 33.5457 13.4147L33.5486 13.421C33.6038 13.7032 33.5906 13.6402 33.6459 14.0855C33.6718 14.304 33.7062 14.5238 33.732 14.7396C33.7755 15.1008 33.7999 15.2786 33.8532 15.8299C33.5549 16.3221 33.4843 16.5083 33.1971 16.9404L33.1991 16.9447L32.9969 17.2644C32.9737 17.2981 32.9528 17.3213 32.9234 17.3311C32.8911 17.3471 32.8491 17.35 32.7909 17.35H32.6789L32.5123 17.9039L33.0836 17.9137C33.419 17.9123 33.6298 17.7554 33.7433 17.5446L34.1025 16.9291H34.0968L34.1346 16.8857C34.3762 16.3655 36.2143 13.2123 36.2143 13.2123ZM30.1847 20.487H29.9424L30.8394 17.5202H31.137L31.2314 17.2145L31.2406 17.5544C31.2295 17.7645 31.3947 17.9507 31.8289 17.9199H32.331L32.5038 17.3486H32.3149C32.2062 17.3486 32.1559 17.3212 32.1621 17.2624L32.153 16.9166H31.2232V16.9184C30.9226 16.9247 30.0248 16.9473 29.8431 16.9957C29.6231 17.0523 29.3914 17.219 29.3914 17.219L29.4824 16.913H28.6127L28.4314 17.5202L27.5224 20.5324H27.346L27.173 21.0996H28.9054L28.8473 21.2887H29.7009L29.7576 21.0996H29.9971L30.1847 20.487ZM29.474 18.123C29.3347 18.1615 29.0755 18.2784 29.0755 18.2784L29.306 17.5202H29.9971L29.8304 18.0726C29.8304 18.0726 29.6169 18.0852 29.474 18.123ZM29.4873 19.2062C29.4873 19.2062 29.2702 19.2335 29.1273 19.2658C28.9866 19.3084 28.7227 19.4429 28.7227 19.4429L28.9608 18.6538H29.6554L29.4873 19.2062ZM29.1001 20.494H28.4069L28.6078 19.8281H29.2989L29.1001 20.494ZM30.7694 18.6538H31.7686L31.625 19.1188H30.6126L30.4605 19.6271H31.3464L30.6757 20.5716C30.6287 20.641 30.5866 20.6656 30.5398 20.6851C30.4928 20.709 30.4312 20.7369 30.3598 20.7369H30.114L29.9452 21.2937H30.588C30.9221 21.2937 31.1195 21.1417 31.2652 20.9422L31.7252 20.3126L31.824 20.9518C31.8449 21.0716 31.931 21.1417 31.9893 21.1689C32.0536 21.2012 32.1201 21.2566 32.214 21.2648C32.3148 21.2691 32.3876 21.2725 32.436 21.2725H32.7518L32.9415 20.6494H32.8169C32.7454 20.6494 32.6222 20.6374 32.6012 20.615C32.5803 20.5878 32.5803 20.5458 32.569 20.482L32.4688 19.8414H32.0584L32.2384 19.6271H33.2489L33.4043 19.1188H32.4688L32.6145 18.6538H33.5472L33.7202 18.0803H30.9395L30.7694 18.6538ZM22.3303 20.6235L22.5635 19.8477H23.522L23.6972 19.2707H22.7378L22.8842 18.7931H23.8217L23.9954 18.2344H21.6497L21.4796 18.7931H22.0125L21.8703 19.2707H21.336L21.1589 19.8575H21.6916L21.3808 20.884C21.3389 21.0198 21.4005 21.0716 21.4396 21.1347C21.4796 21.1962 21.5201 21.2369 21.6111 21.26C21.7051 21.281 21.7694 21.2936 21.8569 21.2936H22.9375L23.13 20.6543L22.651 20.7201C22.5585 20.7201 22.3024 20.709 22.3303 20.6235ZM22.4403 16.9095L22.1974 17.3485C22.1454 17.4444 22.0986 17.5039 22.0565 17.5314C22.0194 17.5545 21.9459 17.5642 21.8394 17.5642H21.7127L21.5433 18.1258H21.9642C22.1665 18.1258 22.3219 18.0516 22.3962 18.0145C22.4759 17.9718 22.4969 17.9962 22.5586 17.9367L22.7007 17.8135H24.015L24.1894 17.2288H23.2274L23.3953 16.9095H22.4403ZM24.3806 20.6348C24.3582 20.6025 24.3743 20.5457 24.4086 20.4274L24.7678 19.2384H26.0457C26.232 19.2357 26.3664 19.2335 26.4539 19.2273C26.5478 19.2174 26.65 19.1839 26.7613 19.1236C26.8762 19.0605 26.935 18.994 26.9847 18.9177C27.0401 18.8415 27.129 18.6748 27.2053 18.4177L27.6569 16.9131L26.3307 16.9208C26.3307 16.9208 25.9224 16.981 25.7426 17.0475C25.5612 17.1217 25.302 17.3289 25.302 17.3289L25.4217 16.9165H24.6025L23.4556 20.7201C23.4149 20.8678 23.3877 20.975 23.3814 21.0394C23.3793 21.1087 23.4689 21.1774 23.527 21.2292C23.5956 21.281 23.6971 21.2726 23.7944 21.281C23.8968 21.2887 24.0423 21.2935 24.2433 21.2935H24.8728L25.0661 20.6411L24.5025 20.6943C24.4423 20.6943 24.3987 20.662 24.3806 20.6348ZM24.9996 18.4353H26.3419L26.2565 18.7028C26.2445 18.709 26.2158 18.6895 26.0792 18.7056H24.9169L24.9996 18.4353ZM25.2685 17.5383H26.622L26.5247 17.8604C26.5247 17.8604 25.8867 17.8541 25.7845 17.873C25.335 17.9508 25.0724 18.191 25.0724 18.191L25.2685 17.5383ZM26.2866 19.5984C26.2755 19.6383 26.2579 19.6627 26.2333 19.681C26.2061 19.6986 26.162 19.7049 26.0962 19.7049H25.9049L25.9162 19.3791H25.1207L25.0884 20.9715C25.0872 21.0864 25.0983 21.1529 25.1824 21.2061C25.2664 21.2726 25.5254 21.2811 25.8741 21.2811H26.3726L26.5526 20.685L26.1186 20.7089L25.9743 20.7173C25.9546 20.7089 25.9358 20.7012 25.9148 20.6802C25.8965 20.6621 25.8657 20.6732 25.8707 20.5583L25.8741 20.1501L26.3292 20.1313C26.575 20.1313 26.68 20.0514 26.7697 19.9752C26.8552 19.9022 26.8831 19.8183 26.9154 19.7049L26.9918 19.3435H26.3663L26.2866 19.5984Z" fill="#FEFEFE"/>
</svg>
