<svg width="30" height="20" viewBox="0 0 30 20" fill="none" xmlns="http://www.w3.org/2000/svg">
<path d="M5.77038 0.668213H13.1248C14.1514 0.668213 14.7899 1.50498 14.5504 2.53499L11.1264 17.2355C10.8848 18.2619 9.8569 19.0994 8.82958 19.0994H1.47593C0.450759 19.0994 -0.189188 18.2619 0.050299 17.2355L3.47572 2.53499C3.7152 1.50498 4.74253 0.668213 5.77038 0.668213Z" fill="#E21836"/>
<path d="M12.5124 0.666748H20.9697C21.9961 0.666748 21.5333 1.50352 21.2918 2.53353L17.8684 17.234C17.6282 18.2604 17.7031 19.0979 16.6745 19.0979H8.21718C7.18861 19.0979 6.55207 18.2604 6.7937 17.234L10.217 2.53353C10.46 1.50352 11.4852 0.666748 12.5124 0.666748Z" fill="#00447C"/>
<path d="M20.6344 0.666748H27.9888C29.0168 0.666748 29.6553 1.50352 29.4138 2.53353L25.9904 17.234C25.7488 18.2604 24.7202 19.0979 23.6923 19.0979H16.3414C15.3128 19.0979 14.6748 18.2604 14.9157 17.234L18.3397 2.53353C18.5792 1.50352 19.6058 0.666748 20.6344 0.666748Z" fill="#007B84"/>
<path d="M7.69074 5.37776C6.93446 5.38547 6.7111 5.37776 6.63976 5.36091C6.61233 5.49123 6.10199 7.84541 6.10055 7.84738C5.99067 8.32367 5.91072 8.66318 5.63915 8.88241C5.48499 9.00986 5.30501 9.07135 5.09636 9.07135C4.76097 9.07135 4.56558 8.90482 4.53277 8.58897L4.5265 8.48052C4.5265 8.48052 4.62868 7.84254 4.62868 7.83896C4.62868 7.83896 5.16429 5.69361 5.2602 5.41003C5.26522 5.3939 5.26665 5.38547 5.26791 5.37776C4.22535 5.3869 4.04053 5.37776 4.02781 5.36091C4.02082 5.38404 3.995 5.51705 3.995 5.51705L3.44809 7.93504L3.40112 8.14011L3.31024 8.81089C3.31024 9.00986 3.34932 9.17227 3.42712 9.30958C3.67628 9.745 4.38704 9.81024 4.78911 9.81024C5.30716 9.81024 5.79313 9.70018 6.12153 9.49923C6.69156 9.16241 6.8407 8.63593 6.97371 8.16807L7.03538 7.92805C7.03538 7.92805 7.58713 5.69989 7.68088 5.41003C7.68447 5.3939 7.6859 5.38547 7.69074 5.37776ZM9.56804 7.17524C9.43503 7.17524 9.19196 7.20751 8.97363 7.31452C8.8944 7.35522 8.81947 7.40218 8.74041 7.44897L8.81176 7.19138L8.77268 7.14799C8.30966 7.24175 8.20605 7.25429 7.77834 7.31452L7.74249 7.33837C7.69284 7.75012 7.64874 8.0597 7.46464 8.86904C7.39455 9.16732 7.32178 9.46847 7.24882 9.76604L7.26854 9.80386C7.70682 9.78074 7.83983 9.78074 8.22075 9.78701L8.25158 9.75349C8.29998 9.50558 8.30625 9.4475 8.41345 8.9454C8.46382 8.70735 8.56887 8.18428 8.62067 7.99803C8.71586 7.95393 8.80979 7.91055 8.89942 7.91055C9.11291 7.91055 9.08692 8.0968 9.07867 8.17101C9.06953 8.2956 8.99173 8.70251 8.91196 9.05188L8.85872 9.27739C8.82162 9.44392 8.78093 9.60578 8.74382 9.77088L8.75995 9.80386C9.19196 9.78074 9.32372 9.78074 9.69263 9.78701L9.73601 9.75349C9.80269 9.3663 9.82223 9.26269 9.94054 8.69892L10.0001 8.4399C10.1157 7.93296 10.1738 7.67591 10.0863 7.46653C9.99378 7.23189 9.77186 7.17524 9.56804 7.17524ZM11.6652 7.706C11.4356 7.7501 11.2891 7.7795 11.1436 7.7985C10.9993 7.82162 10.8585 7.8426 10.6366 7.87343L10.6191 7.88938L10.6029 7.90211C10.5798 8.06739 10.5637 8.21025 10.533 8.37822C10.507 8.55192 10.4671 8.74928 10.402 9.03286C10.3516 9.24994 10.3256 9.32559 10.2969 9.40195C10.269 9.47831 10.2381 9.55253 10.1815 9.76602L10.1948 9.78574L10.2059 9.80385C10.4133 9.79399 10.549 9.787 10.6884 9.78574C10.8277 9.78072 10.972 9.78574 11.1954 9.787L11.2149 9.77104L11.2359 9.75347C11.2681 9.56095 11.273 9.50915 11.2927 9.41522C11.3122 9.31448 11.3459 9.17501 11.4286 8.80252C11.4677 8.62756 11.5112 8.45315 11.5517 8.27461C11.5939 8.09678 11.638 7.92165 11.6799 7.74669L11.6736 7.72554L11.6652 7.706ZM11.6701 6.99037C11.4614 6.86723 11.0952 6.9063 10.8487 7.07642C10.603 7.24313 10.575 7.47975 10.783 7.60451C10.988 7.72425 11.3557 7.68858 11.6 7.51703C11.8452 7.34674 11.8759 7.11227 11.6701 6.99037ZM12.932 9.84244C13.3541 9.84244 13.7869 9.7261 14.1126 9.38085C14.3632 9.10085 14.4781 8.68426 14.5179 8.51271C14.6475 7.94411 14.5465 7.67863 14.4198 7.51694C14.2273 7.27046 13.8871 7.19141 13.5341 7.19141C13.3219 7.19141 12.8164 7.21238 12.4215 7.57645C12.1379 7.83907 12.0068 8.19543 11.9278 8.53709C11.848 8.88521 11.7562 9.51189 12.3325 9.7451C12.5104 9.82147 12.7667 9.84244 12.932 9.84244ZM12.899 8.56308C12.9963 8.13251 13.1112 7.77113 13.4045 7.77113C13.6343 7.77113 13.651 8.04001 13.5488 8.47202C13.5305 8.56792 13.4466 8.92447 13.3332 9.0763C13.2539 9.18833 13.1602 9.25627 13.0566 9.25627C13.0257 9.25627 12.8423 9.25627 12.8395 8.98398C12.838 8.84954 12.8655 8.71223 12.899 8.56308ZM15.5731 9.78707L15.6061 9.75355C15.6529 9.50563 15.6606 9.44738 15.7642 8.94546C15.816 8.7074 15.9232 8.18433 15.9736 7.99808C16.069 7.95381 16.1613 7.91043 16.2538 7.91043C16.4658 7.91043 16.44 8.09668 16.4316 8.17089C16.4239 8.29565 16.3461 8.70238 16.2649 9.05176L16.2145 9.27726C16.176 9.44397 16.134 9.60566 16.0969 9.77093L16.1131 9.80392C16.5465 9.78079 16.6732 9.78079 17.0443 9.78707L17.0891 9.75355C17.1542 9.36617 17.1718 9.26256 17.2937 8.69898L17.3517 8.43977C17.4679 7.93283 17.5267 7.67596 17.4406 7.46659C17.3455 7.23194 17.1221 7.1753 16.9212 7.1753C16.788 7.1753 16.5436 7.20738 16.3266 7.31458C16.2489 7.35527 16.1711 7.40206 16.0948 7.44902L16.1613 7.19143L16.1256 7.14787C15.6628 7.2418 15.557 7.25435 15.1298 7.31458L15.097 7.33842C15.0452 7.75017 15.0031 8.05957 14.819 8.86909C14.7489 9.16738 14.6761 9.46853 14.6034 9.76609L14.6229 9.80392C15.0619 9.78079 15.1929 9.78079 15.5731 9.78707ZM18.7577 9.80383C18.785 9.67082 18.9468 8.88245 18.9483 8.88245C18.9483 8.88245 19.0861 8.30399 19.0946 8.28301C19.0946 8.28301 19.1379 8.22278 19.1813 8.19894H19.2451C19.8473 8.19894 20.5272 8.19894 21.0601 7.80691C21.4227 7.53802 21.6707 7.14097 21.7813 6.65841C21.8099 6.5401 21.8311 6.39938 21.8311 6.25867C21.8311 6.07385 21.794 5.89101 21.6868 5.74814C21.415 5.36794 20.8739 5.36095 20.2491 5.35808C20.2472 5.35808 19.9412 5.36095 19.9412 5.36095C19.1415 5.37081 18.8208 5.36794 18.6891 5.35181C18.678 5.41007 18.657 5.51368 18.657 5.51368C18.657 5.51368 18.3705 6.84125 18.3705 6.8434C18.3705 6.8434 17.6851 9.66598 17.6528 9.79899C18.351 9.79056 18.6373 9.79056 18.7577 9.80383ZM19.2885 7.44553C19.2885 7.44553 19.5931 6.12064 19.5916 6.12566L19.6015 6.05772L19.6058 6.00591L19.7275 6.01846C19.7275 6.01846 20.3556 6.07242 20.3703 6.07385C20.6182 6.16975 20.7204 6.41695 20.6491 6.73961C20.584 7.03449 20.3927 7.2824 20.147 7.40215C19.9446 7.5036 19.6967 7.51203 19.4412 7.51203H19.276L19.2885 7.44553ZM21.1848 8.58762C21.1043 8.93072 21.0118 9.5574 21.5852 9.78076C21.7681 9.85855 21.9319 9.88168 22.0984 9.87325C22.2743 9.86375 22.4372 9.77556 22.5882 9.64864C22.5745 9.70081 22.5609 9.75297 22.5473 9.80532L22.5733 9.83884C22.9858 9.82145 23.1137 9.82145 23.5606 9.82485L23.6011 9.79402C23.6664 9.41041 23.7279 9.03792 23.8975 8.30404C23.9801 7.95252 24.0625 7.6044 24.1473 7.25431L24.1341 7.21577C23.6727 7.30128 23.5493 7.31956 23.1055 7.38248L23.0718 7.40991C23.0673 7.44558 23.0627 7.47982 23.0584 7.51406C22.9893 7.40256 22.8893 7.30737 22.735 7.24804C22.5376 7.17042 22.0741 7.27045 21.6756 7.63326C21.3956 7.89229 21.2611 8.24722 21.1848 8.58762ZM22.1538 8.6086C22.2526 8.18573 22.3661 7.82793 22.66 7.82793C22.8459 7.82793 22.9438 7.99948 22.9239 8.29203C22.9081 8.36499 22.8911 8.44189 22.8709 8.52883C22.8415 8.65449 22.8095 8.77907 22.7785 8.90383C22.747 8.98916 22.7102 9.06965 22.6699 9.12324C22.5943 9.23044 22.4143 9.29694 22.3107 9.29694C22.2813 9.29694 22.0999 9.29694 22.0936 9.02949C22.0922 8.8963 22.1196 8.75917 22.1538 8.6086ZM27.2143 7.21235L27.1787 7.17166C26.7221 7.26415 26.6395 7.27885 26.22 7.3355L26.1892 7.36633C26.1877 7.37135 26.1865 7.37906 26.1843 7.38605L26.1829 7.37906C25.8706 8.09949 25.8798 7.94407 25.6256 8.51124C25.6241 8.48543 25.6241 8.4693 25.6227 8.44187L25.5591 7.21235L25.5191 7.17166C25.0408 7.26415 25.0296 7.27885 24.5879 7.3355L24.5534 7.36633C24.5486 7.38103 24.5486 7.39716 24.5457 7.41473L24.5486 7.421C24.6038 7.70315 24.5906 7.64023 24.6459 8.08551C24.6718 8.30402 24.7062 8.52379 24.732 8.73962C24.7755 9.10082 24.7999 9.27864 24.8532 9.82986C24.5549 10.3221 24.4843 10.5083 24.1971 10.9404L24.1991 10.9447L23.9969 11.2644C23.9737 11.2981 23.9528 11.3213 23.9234 11.3311C23.8911 11.3471 23.8491 11.35 23.7909 11.35H23.6789L23.5123 11.9039L24.0836 11.9137C24.419 11.9123 24.6298 11.7554 24.7433 11.5446L25.1025 10.9291H25.0968L25.1346 10.8857C25.3762 10.3655 27.2143 7.21235 27.2143 7.21235ZM21.1847 14.487H20.9424L21.8394 11.5202H22.137L22.2314 11.2145L22.2406 11.5544C22.2295 11.7645 22.3947 11.9507 22.8289 11.9199H23.331L23.5038 11.3486H23.3149C23.2062 11.3486 23.1559 11.3212 23.1621 11.2624L23.153 10.9166H22.2232V10.9184C21.9226 10.9247 21.0248 10.9473 20.8431 10.9957C20.6231 11.0523 20.3914 11.219 20.3914 11.219L20.4824 10.913H19.6127L19.4314 11.5202L18.5224 14.5324H18.346L18.173 15.0996H19.9054L19.8473 15.2887H20.7009L20.7576 15.0996H20.9971L21.1847 14.487ZM20.474 12.123C20.3347 12.1615 20.0755 12.2784 20.0755 12.2784L20.306 11.5202H20.9971L20.8304 12.0726C20.8304 12.0726 20.6169 12.0852 20.474 12.123ZM20.4873 13.2062C20.4873 13.2062 20.2702 13.2335 20.1273 13.2658C19.9866 13.3084 19.7227 13.4429 19.7227 13.4429L19.9608 12.6538H20.6554L20.4873 13.2062ZM20.1001 14.494H19.4069L19.6078 13.8281H20.2989L20.1001 14.494ZM21.7694 12.6538H22.7686L22.625 13.1188H21.6126L21.4605 13.6271H22.3464L21.6757 14.5716C21.6287 14.641 21.5866 14.6656 21.5398 14.6851C21.4928 14.709 21.4312 14.7369 21.3598 14.7369H21.114L20.9452 15.2937H21.588C21.9221 15.2937 22.1195 15.1417 22.2652 14.9422L22.7252 14.3126L22.824 14.9518C22.8449 15.0716 22.931 15.1417 22.9893 15.1689C23.0536 15.2012 23.1201 15.2566 23.214 15.2648C23.3148 15.2691 23.3876 15.2725 23.436 15.2725H23.7518L23.9415 14.6494H23.8169C23.7454 14.6494 23.6222 14.6374 23.6012 14.615C23.5803 14.5878 23.5803 14.5458 23.569 14.482L23.4688 13.8414H23.0584L23.2384 13.6271H24.2489L24.4043 13.1188H23.4688L23.6145 12.6538H24.5472L24.7202 12.0803H21.9395L21.7694 12.6538ZM13.3303 14.6235L13.5635 13.8477H14.522L14.6972 13.2707H13.7378L13.8842 12.7931H14.8217L14.9954 12.2344H12.6497L12.4796 12.7931H13.0125L12.8703 13.2707H12.336L12.1589 13.8575H12.6916L12.3808 14.884C12.3389 15.0198 12.4005 15.0716 12.4396 15.1347C12.4796 15.1962 12.5201 15.2369 12.6111 15.26C12.7051 15.281 12.7694 15.2936 12.8569 15.2936H13.9375L14.13 14.6543L13.651 14.7201C13.5585 14.7201 13.3024 14.709 13.3303 14.6235ZM13.4403 10.9095L13.1974 11.3485C13.1454 11.4444 13.0986 11.5039 13.0565 11.5314C13.0194 11.5545 12.9459 11.5642 12.8394 11.5642H12.7127L12.5433 12.1258H12.9642C13.1665 12.1258 13.3219 12.0516 13.3962 12.0145C13.4759 11.9718 13.4969 11.9962 13.5586 11.9367L13.7007 11.8135H15.015L15.1894 11.2288H14.2274L14.3953 10.9095H13.4403ZM15.3806 14.6348C15.3582 14.6025 15.3743 14.5457 15.4086 14.4274L15.7678 13.2384H17.0457C17.232 13.2357 17.3664 13.2335 17.4539 13.2273C17.5478 13.2174 17.65 13.1839 17.7613 13.1236C17.8762 13.0605 17.935 12.994 17.9847 12.9177C18.0401 12.8415 18.129 12.6748 18.2053 12.4177L18.6569 10.9131L17.3307 10.9208C17.3307 10.9208 16.9224 10.981 16.7426 11.0475C16.5612 11.1217 16.302 11.3289 16.302 11.3289L16.4217 10.9165H15.6025L14.4556 14.7201C14.4149 14.8678 14.3877 14.975 14.3814 15.0394C14.3793 15.1087 14.4689 15.1774 14.527 15.2292C14.5956 15.281 14.6971 15.2726 14.7944 15.281C14.8968 15.2887 15.0423 15.2935 15.2433 15.2935H15.8728L16.0661 14.6411L15.5025 14.6943C15.4423 14.6943 15.3987 14.662 15.3806 14.6348ZM15.9996 12.4353H17.3419L17.2565 12.7028C17.2445 12.709 17.2158 12.6895 17.0792 12.7056H15.9169L15.9996 12.4353ZM16.2685 11.5383H17.622L17.5247 11.8604C17.5247 11.8604 16.8867 11.8541 16.7845 11.873C16.335 11.9508 16.0724 12.191 16.0724 12.191L16.2685 11.5383ZM17.2866 13.5984C17.2755 13.6383 17.2579 13.6627 17.2333 13.681C17.2061 13.6986 17.162 13.7049 17.0962 13.7049H16.9049L16.9162 13.3791H16.1207L16.0884 14.9715C16.0872 15.0864 16.0983 15.1529 16.1824 15.2061C16.2664 15.2726 16.5254 15.2811 16.8741 15.2811H17.3726L17.5526 14.685L17.1186 14.7089L16.9743 14.7173C16.9546 14.7089 16.9358 14.7012 16.9148 14.6802C16.8965 14.6621 16.8657 14.6732 16.8707 14.5583L16.8741 14.1501L17.3292 14.1313C17.575 14.1313 17.68 14.0514 17.7697 13.9752C17.8552 13.9022 17.8831 13.8183 17.9154 13.7049L17.9918 13.3435H17.3663L17.2866 13.5984Z" fill="#FEFEFE"/>
</svg>
