<svg width="144" height="144" viewBox="0 0 144 144" fill="none" xmlns="http://www.w3.org/2000/svg">
<path d="M30.0015 18H113.999C115.575 17.9994 117.136 18.3094 118.592 18.9124C120.048 19.5153 121.372 20.3993 122.486 21.5138C123.601 22.6284 124.485 23.9517 125.088 25.408C125.691 26.8644 126.001 28.4253 126 30.0015V113.999C126.001 115.575 125.691 117.136 125.088 118.592C124.485 120.048 123.601 121.372 122.486 122.486C121.372 123.601 120.048 124.485 118.592 125.088C117.136 125.691 115.575 126.001 113.999 126H30.0015C28.4253 126.001 26.8644 125.691 25.408 125.088C23.9517 124.485 22.6284 123.601 21.5138 122.486C20.3993 121.372 19.5153 120.048 18.9124 118.592C18.3094 117.136 17.9994 115.575 18 113.999V30.0015C17.9994 28.4253 18.3094 26.8644 18.9124 25.408C19.5153 23.9517 20.3993 22.6284 21.5138 21.5138C22.6284 20.3993 23.9517 19.5153 25.408 18.9124C26.8644 18.3094 28.4253 17.9994 30.0015 18Z" fill="#F5F5F5"/>
<path d="M63.081 88.596C62.8765 85.277 63.5468 81.9626 65.025 78.984C67.1235 76.1152 69.6826 73.6139 72.5985 71.5815C74.6719 69.9287 76.4663 67.9536 77.913 65.7315C79.2472 63.6307 79.94 61.1864 79.9065 58.698C80.0526 56.2385 79.2378 53.8183 77.634 51.948C76.7854 51.106 75.7678 50.4536 74.6484 50.034C73.5291 49.6143 72.3335 49.4369 71.1405 49.5135C68.9929 49.4564 66.8993 50.1916 65.259 51.579C64.4261 52.3416 63.7731 53.2799 63.3474 54.3259C62.9217 55.3719 62.7339 56.4994 62.7975 57.627H49.482L49.3875 57.3435C49.1868 54.7358 49.6221 52.1183 50.656 49.716C51.6898 47.3136 53.2913 45.198 55.323 43.551C59.8941 40.196 65.4763 38.5079 71.1405 38.7675C77.107 38.4214 82.987 40.3204 87.624 44.091C89.6227 45.9126 91.1947 48.1531 92.2278 50.6524C93.2608 53.1517 93.7293 55.8482 93.6 58.5495C93.6048 62.4945 92.3846 66.3437 90.108 69.5655C87.7767 72.9379 84.806 75.8199 81.3645 78.048C79.7452 79.1663 78.4516 80.6943 77.616 82.476C76.9402 84.4428 76.6351 86.5179 76.716 88.596H63.081ZM76.815 108H63.0315V96.3H76.815V108Z" fill="black"/>
</svg>
