<svg width="32" height="32" viewBox="0 0 32 32" fill="none" xmlns="http://www.w3.org/2000/svg">
<path d="M6.667 4H25.333C25.6832 4 26.03 4.06898 26.3536 4.20301C26.6772 4.33704 26.9712 4.53349 27.2189 4.78115C27.4665 5.0288 27.663 5.32281 27.797 5.64638C27.931 5.96996 28 6.31676 28 6.667V25.333C28 25.6832 27.931 26.03 27.797 26.3536C27.663 26.6772 27.4665 26.9712 27.2189 27.2189C26.9712 27.4665 26.6772 27.663 26.3536 27.797C26.03 27.931 25.6832 28 25.333 28H6.667C6.31676 28 5.96996 27.931 5.64638 27.797C5.32281 27.663 5.0288 27.4665 4.78115 27.2189C4.53349 26.9712 4.33704 26.6772 4.20301 26.3536C4.06898 26.03 4 25.6832 4 25.333V6.667C4 5.95967 4.28099 5.28131 4.78115 4.78115C5.28131 4.28099 5.95967 4 6.667 4V4Z" fill="#F5F5F5"/>
<path d="M21.334 16L12 9.33301V22.666L21.334 16Z" fill="black"/>
</svg>
