<svg width="33" height="11" viewBox="0 0 33 11" fill="none" xmlns="http://www.w3.org/2000/svg">
<path fill-rule="evenodd" clip-rule="evenodd" d="M8.16701 10.6776H5.33992L3.21994 2.58981C3.11932 2.21777 2.90566 1.88886 2.59139 1.73385C1.80708 1.34428 0.942825 1.03425 0 0.877885V0.566504H4.55423C5.18278 0.566504 5.65419 1.03425 5.73276 1.57748L6.83272 7.4115L9.65844 0.566504H12.407L8.16701 10.6776ZM13.9783 10.6776H11.3084L13.5069 0.566504H16.1769L13.9783 10.6776ZM19.6312 3.3676C19.7097 2.82302 20.1811 2.51164 20.7311 2.51164C21.5954 2.43345 22.5368 2.58982 23.3225 2.97803L23.7939 0.801059C23.0082 0.489678 22.144 0.333313 21.3597 0.333313C18.7683 0.333313 16.8826 1.73386 16.8826 3.67763C16.8826 5.15636 18.2183 5.93279 19.1611 6.40053C20.1811 6.86693 20.574 7.17831 20.4954 7.64471C20.4954 8.34431 19.7097 8.65569 18.9254 8.65569C17.9826 8.65569 17.0398 8.42249 16.1769 8.03293L15.7055 10.2113C16.6483 10.5995 17.6683 10.7558 18.6111 10.7558C21.5168 10.8327 23.3225 9.43347 23.3225 7.33333C23.3225 4.68861 19.6312 4.53359 19.6312 3.3676ZM32.6667 10.6776L30.5467 0.566504H28.2696C27.7982 0.566504 27.3268 0.877885 27.1696 1.34428L23.2439 10.6776H25.9925L26.5411 9.20026H29.9181L30.2324 10.6776H32.6667ZM28.6624 3.28943L29.4467 7.10014H27.2482L28.6624 3.28943Z" fill="#172B85"/>
</svg>
