<?xml version="1.0" encoding="utf-8"?>
<svg xmlns="http://www.w3.org/2000/svg" fill="none" height="32" viewBox="0 0 48 32" width="48">
<rect fill="white" height="31" rx="3.5" stroke="#EBEBEB" width="45.6667" x="1.16667" y="0.5"/>
<path clip-rule="evenodd" d="M14.8337 21.6777H12.0066L9.88661 13.5899C9.78599 13.2178 9.57234 12.8889 9.25806 12.7339C8.47375 12.3443 7.6095 12.0343 6.66667 11.8779V11.5666H11.2209C11.8495 11.5666 12.3209 12.0343 12.3994 12.5775L13.4994 18.4116L16.3251 11.5666H19.0736L14.8337 21.6777ZM20.645 21.6777H17.975L20.1736 11.5666H22.8436L20.645 21.6777ZM26.2978 14.3677C26.3764 13.8231 26.8478 13.5117 27.3978 13.5117C28.262 13.4335 29.2035 13.5899 29.9892 13.9781L30.4606 11.8011C29.6749 11.4897 28.8106 11.3334 28.0263 11.3334C25.4349 11.3334 23.5493 12.7339 23.5493 14.6777C23.5493 16.1564 24.885 16.9328 25.8278 17.4006C26.8478 17.867 27.2406 18.1784 27.1621 18.6448C27.1621 19.3444 26.3764 19.6558 25.5921 19.6558C24.6493 19.6558 23.7064 19.4226 22.8436 19.033L22.3721 21.2113C23.315 21.5995 24.335 21.7559 25.2778 21.7559C28.1835 21.8327 29.9892 20.4335 29.9892 18.3334C29.9892 15.6887 26.2978 15.5337 26.2978 14.3677ZM39.3333 21.6777L37.2134 11.5666H34.9362C34.4648 11.5666 33.9934 11.8779 33.8363 12.3443L29.9106 21.6777H32.6591L33.2077 20.2003H36.5848L36.8991 21.6777H39.3333ZM35.3291 14.2895L36.1134 18.1002H33.9149L35.3291 14.2895Z" fill="#172B85" fill-rule="evenodd"/>
</svg>