<svg width="22" height="22" viewBox="0 0 22 22" fill="none" xmlns="http://www.w3.org/2000/svg">
<path d="M10.6161 0.5C12.2797 0.5 13.8626 0.881155 15.2829 1.56297C15.5057 1.66347 15.7299 1.78375 15.952 1.90414L14.978 2.76684L13.518 1.26242L11.0021 3.46865L9.52057 1.88383L4.89429 5.99593L7.85623 9.22533L6.69993 10.2281L9.6221 13.4575L8.46579 14.4597L12.6458 19.0531L15.1197 16.8065L17.2715 19.2142C16.8451 19.5351 16.3784 19.8568 15.8718 20.137C14.3294 20.9994 12.5436 21.5 10.6366 21.5C4.77218 21.5 0.00470574 16.7872 0.00470574 10.991C-0.0159826 5.23384 4.75224 0.5 10.6161 0.5ZM8.66788 10.3487L11.2042 8.10198L13.4773 10.6092L10.9404 12.8556L8.66788 10.3487ZM10.4743 14.6813L12.9899 12.4148L15.2829 14.9218L12.7465 17.1686L10.4743 14.6813ZM6.86309 6.07645L9.39879 3.82981L11.6712 6.33697L9.13475 8.58357L6.86309 6.07645ZM11.5087 4.87258L13.3958 3.18778L15.1005 5.05327L13.2134 6.75799L11.5087 4.87258ZM14.8772 12.595L16.7637 10.91L18.4685 12.795L16.5812 14.481L14.8772 12.595ZM16.5407 16.3864L18.4281 14.7011L20.1313 16.5665L18.2448 18.271L16.5407 16.3864ZM17.312 7.72085L18.5698 6.59749L19.7056 7.84156L18.448 8.96449L17.312 7.72085ZM15.6887 4.01008L16.9466 2.86702L18.0833 4.13047L16.8245 5.25373L15.6887 4.01008ZM18.9147 11.4319L20.1725 10.3087L21.329 11.5523L20.0511 12.6753L18.9147 11.4319ZM13.2539 8.64371L15.1411 6.95879L16.8451 8.82394L14.9586 10.5091L13.2539 8.64371Z" fill="#036CB5"/>
</svg>
