<svg width="278" height="240" viewBox="0 0 278 240" fill="none" xmlns="http://www.w3.org/2000/svg">
<path opacity="0.507975" fill-rule="evenodd" clip-rule="evenodd" d="M121.832 106H199.445C207.483 106 214 112.044 214 119.5C214 126.956 207.483 133 199.445 133H136.004C130.965 133 126.874 129.221 126.854 124.548L126.798 111.333L121.321 107.38C120.958 107.119 120.893 106.634 121.175 106.298C121.333 106.11 121.575 106 121.832 106Z" stroke="#666666" stroke-width="0.5"/>
<path opacity="0.5" fill-rule="evenodd" clip-rule="evenodd" d="M208.312 148H61.8667C52.5515 148 45 154.268 45 162C45 169.732 52.5515 176 61.8667 176H193.377C197.559 176 200.95 173.186 200.95 169.714C200.95 169.709 200.95 169.704 200.95 169.699L200.905 154.395L208.75 149.012C209.043 148.811 209.084 148.451 208.842 148.207C208.711 148.076 208.517 148 208.312 148Z" stroke="#666666" stroke-width="0.5"/>
<path fill-rule="evenodd" clip-rule="evenodd" d="M199.354 151H61.8382C53.091 151 46 157.044 46 164.5C46 171.956 53.091 178 61.8382 178H185.329C189.257 178 192.44 175.286 192.44 171.939C192.44 171.934 192.44 171.929 192.44 171.924L192.399 157.167L199.765 151.976C200.041 151.782 200.079 151.434 199.852 151.2C199.729 151.073 199.546 151 199.354 151Z" fill="#4E4877" fill-opacity="0.1"/>
<path fill-rule="evenodd" clip-rule="evenodd" d="M102.429 95.7572C102.827 95.7572 103.228 95.7572 103.634 95.7572C101.687 66.4742 102.985 45 133.5 45C165.313 45 167.261 65.8235 164.664 95.7572C171.477 95.7572 177 101.28 177 108.093V166.622C177 173.487 171.436 179.051 164.571 179.051H102.429C95.5645 179.051 90 173.487 90 166.622V108.186C90 101.322 95.5645 95.7572 102.429 95.7572Z" stroke="#4E4877"/>
<path fill-rule="evenodd" clip-rule="evenodd" d="M133.809 57.4286C156.766 57.4286 154.143 77.4858 153.487 95.602C133.809 95.602 133.809 95.602 114.131 95.602C114.131 76.8388 110.852 57.4286 133.809 57.4286Z" stroke="#4E4877"/>
<path fill-rule="evenodd" clip-rule="evenodd" d="M131.605 60.0918C152.011 60.0918 149.679 77.8168 149.096 93.8265C131.605 93.8265 131.605 93.8265 114.113 93.8265C114.113 77.2451 111.198 60.0918 131.605 60.0918Z" fill="#15038D" fill-opacity="0.1"/>
<path d="M56.5945 161.422C82.6214 204.738 138.835 218.754 182.151 192.727C225.467 166.7 239.483 110.486 213.456 67.1698C200.003 44.7798 178.484 30.2184 154.85 24.9691" stroke="#15038D" stroke-opacity="0.1" stroke-width="5" stroke-linecap="round"/>
<circle cx="138.5" cy="112.5" r="94.375" stroke="#4E4877" stroke-width="0.25"/>
<path d="M139.5 152C139.5 156.418 139.418 160 135 160C130.582 160 130 156.418 130 152C130 147.582 130.582 139.5 135 139.5C139.418 139.5 139.5 147.582 139.5 152Z" fill="#4E4877"/>
<g opacity="0.6">
<path d="M50.9347 29.141H53.9996" stroke="#957000" stroke-linecap="round"/>
<path d="M48.693 24V27.3571" stroke="#957000" stroke-linecap="round"/>
<path d="M48.693 30.6468V34.0039" stroke="#957000" stroke-linecap="round"/>
<path d="M44 29.141H47.0649" stroke="#957000" stroke-linecap="round"/>
</g>
<g opacity="0.6">
<path d="M21.7372 182.77H23.3888" stroke="#DB0A5B" stroke-linecap="round"/>
<path d="M20.5292 180V181.809" stroke="#DB0A5B" stroke-linecap="round"/>
<path d="M20.5292 183.582V185.391" stroke="#DB0A5B" stroke-linecap="round"/>
<path d="M18 182.77H19.6516" stroke="#DB0A5B" stroke-linecap="round"/>
</g>
<g opacity="0.6">
<path d="M84.7372 212.77H86.3888" stroke="#D5001F" stroke-linecap="round"/>
<path d="M83.5292 210V211.809" stroke="#D5001F" stroke-linecap="round"/>
<path d="M83.5292 213.582V215.391" stroke="#D5001F" stroke-linecap="round"/>
<path d="M81 212.77H82.6516" stroke="#D5001F" stroke-linecap="round"/>
</g>
<g opacity="0.6">
<path d="M191.242 67.6269H194" stroke="#007A02" stroke-linecap="round"/>
<path d="M189.224 63V66.0214" stroke="#007A02" stroke-linecap="round"/>
<path d="M189.224 68.9821V72.0035" stroke="#007A02" stroke-linecap="round"/>
<path d="M185 67.6269H187.758" stroke="#007A02" stroke-linecap="round"/>
</g>
<path opacity="0.6" d="M196.925 93.8492C197.988 93.8492 198.849 92.9875 198.849 91.9246C198.849 90.8617 197.988 90 196.925 90C195.862 90 195 90.8617 195 91.9246C195 92.9875 195.862 93.8492 196.925 93.8492Z" stroke="#00A83E"/>
<g opacity="0.6">
<path d="M271 161C274.314 161 277 158.314 277 155C277 151.686 274.314 149 271 149C267.686 149 265 151.686 265 155C265 158.314 267.686 161 271 161Z" stroke="#C20850"/>
<path d="M271 158C272.657 158 274 156.657 274 155C274 153.343 272.657 152 271 152C269.343 152 268 153.343 268 155C268 156.657 269.343 158 271 158Z" stroke="#C20850"/>
</g>
<line x1="138.5" y1="124.5" x2="197.5" y2="124.5" stroke="#4E4877" stroke-linecap="round"/>
<line x1="138.25" y1="117.75" x2="197.75" y2="117.75" stroke="#4E4877" stroke-width="0.5" stroke-linecap="round"/>
<line x1="63.5" y1="169.5" x2="184.5" y2="169.5" stroke="#4E4877" stroke-linecap="round"/>
<line x1="63.5" y1="156.5" x2="168.5" y2="156.5" stroke="#4E4877" stroke-linecap="round"/>
<line x1="63.25" y1="162.75" x2="156.75" y2="162.75" stroke="#4E4877" stroke-width="0.5" stroke-linecap="round"/>
</svg>
