<svg width="112" height="69" viewBox="0 0 112 69" fill="none" xmlns="http://www.w3.org/2000/svg">
    <path fill-rule="evenodd" clip-rule="evenodd" d="M87.184 29.1889H80.5857L80.6152 59.2446H87.2135V49.3501C87.1811 48.7985 87.263 48.2462 87.4541 47.7278C87.6452 47.2094 87.9414 46.736 88.3241 46.3374C88.9916 45.8005 89.831 45.5236 90.6869 45.5577C91.0733 45.5241 91.4623 45.5766 91.826 45.7115C92.1896 45.8463 92.5188 46.0601 92.7899 46.3374C93.5342 47.1645 93.6169 48.5644 93.6169 49.9231V59.2446H100.209V47.5366C100.209 45.7645 100.127 44.0278 98.4785 42.3797C97.3679 41.2691 95.6312 40.4007 93.038 40.4007C91.7152 40.3589 90.4054 40.6731 89.2456 41.3104C88.458 41.7903 87.7604 42.4041 87.184 43.124V29.1889ZM30.2743 32.9577H30.3274L34.1317 31.0733L39.2472 33.6429L30.3274 38.0674L21.4666 33.6311L26.5823 31.0733L30.2743 32.9577ZM106.867 38.0911L97.9764 33.6548L103.092 31.0969L112 35.5509L106.867 38.0911ZM8.91391 56.7105L0 40.7611H7.67933L12.5882 50.2126L17.373 40.7611H24.9223L10.1131 68.6429H2.72911L8.91391 56.7105ZM33.724 59.2269V40.7847H30.4249H27.1258V59.2269H33.724ZM38.2194 40.7847H44.8236V43.1062C45.5073 42.2126 46.3978 41.4984 47.4186 41.0251C48.4393 40.5518 49.5598 40.3335 50.6836 40.389C51.6773 40.3406 52.6707 40.4906 53.6059 40.8303C54.541 41.1701 55.3991 41.6928 56.13 42.3679C57.654 43.8801 57.8607 45.5045 57.8607 47.5248V59.2446H51.2566V49.7577C51.2566 48.6885 51.2565 47.1762 50.4354 46.3079C50.1574 46.0403 49.8271 45.833 49.4653 45.6988C49.1035 45.5646 48.7178 45.5065 48.3325 45.5282C47.4407 45.5048 46.5718 45.812 45.8928 46.3906C45.1715 47.202 44.7889 48.2591 44.8236 49.3442V59.2446H38.2194V40.7847ZM110.192 59.2269V40.7847H103.594V59.2269H110.192ZM63.4785 53.1424C64.2813 53.7321 65.1726 54.1907 66.1191 54.501C66.9436 54.7817 67.8061 54.9351 68.6769 54.9559C69.2787 54.9765 69.8712 54.8025 70.3663 54.4597C70.4831 54.3503 70.5736 54.2159 70.6309 54.0665C70.6882 53.9171 70.7109 53.7567 70.6971 53.5973C70.7112 53.4431 70.6885 53.2877 70.631 53.144C70.5735 53.0003 70.4828 52.8722 70.3663 52.7703C69.8468 52.4216 69.255 52.1954 68.6355 52.1087L66.9047 51.701C65.6899 51.5116 64.5645 50.9479 63.6853 50.0884C62.8905 49.227 62.4662 48.0877 62.5039 46.9162C62.4919 45.2529 63.1103 43.6467 64.2347 42.4209C65.6347 40.9795 68.1098 40.1939 70.833 40.1939C72.8611 40.1898 74.8696 40.5915 76.7402 41.3753L74.5132 45.5812C73.4222 45.0645 72.2396 44.7694 71.0338 44.7129C70.4987 44.6877 69.9677 44.8169 69.5039 45.085C69.3282 45.162 69.1788 45.2884 69.0739 45.449C68.969 45.6095 68.9131 45.7971 68.9132 45.9888C68.9122 46.2227 68.9879 46.4505 69.1287 46.6372C69.2695 46.8239 69.4677 46.9593 69.6929 47.0226C70.0129 47.157 70.3329 47.2186 70.7186 47.2928C71.045 47.3556 71.4184 47.4274 71.8786 47.5601L73.06 47.885C74.0552 48.1809 74.9811 48.6729 75.7832 49.3322C76.712 50.3246 77.2147 51.6418 77.1832 53.0007C77.2069 53.8505 77.0544 54.6959 76.7351 55.4839C76.4159 56.2718 75.9369 56.9851 75.3283 57.5787C73.184 59.723 70.0532 59.8825 68.5292 59.8825C65.9007 59.9005 63.3234 59.1556 61.1097 57.7382L63.4785 53.1424Z" fill="#850000"/>
    <path fill-rule="evenodd" clip-rule="evenodd" d="M38.2031 14.5192C47.8914 19.491 63.6777 19.5203 73.3945 14.5192C75.8491 13.3746 77.9708 11.59 79.5494 9.34205C80.5895 13.0233 78.1817 16.7484 72.8959 19.4617C63.464 24.3455 48.1051 24.3308 38.7018 19.4617C33.4587 16.7191 31.0651 13.0379 32.1051 9.38605C33.6735 11.61 35.7743 13.3783 38.2031 14.5192ZM60.0633 6.94606L55.849 4.92087L51.5902 6.94606L46.8418 4.64989L55.8342 0.357063L64.8118 4.66415L60.0633 6.94606Z" fill="#850000"/>
</svg>