<svg width="144" height="144" viewBox="0 0 144 144" fill="none" xmlns="http://www.w3.org/2000/svg">
<path fill-rule="evenodd" clip-rule="evenodd" d="M113.999 18H30.0015C26.8214 18.0095 23.7743 19.277 21.5256 21.5256C19.277 23.7743 18.0095 26.8214 18 30.0015L18 113.999C18.0095 117.179 19.277 120.226 21.5256 122.474C23.7743 124.723 26.8214 125.991 30.0015 126H113.999C117.179 125.991 120.226 124.723 122.474 122.474C124.723 120.226 125.991 117.179 126 113.999V30.0015C125.991 26.8214 124.723 23.7743 122.474 21.5256C120.226 19.277 117.179 18.0095 113.999 18V18Z" fill="#F5F5F5"/>
<path fill-rule="evenodd" clip-rule="evenodd" d="M83.997 101.997H72V90H59.9985V77.9985H72V90H84.0015L83.997 101.997Z" fill="black"/>
<path fill-rule="evenodd" clip-rule="evenodd" d="M83.997 54H72V66.0015H84.0015V78.003H72V66.0015H59.9985V54H72V42.003H59.9985V30.0015H72V42.003H84.0015L83.997 54Z" fill="black"/>
</svg>
